M48
; DRILL file KiCad 10.0.4 date 2026-07-17T09:03:47
; FORMAT={-:-/ absolute / metric / decimal}
; #@! TF.CreationDate,2026-07-17T09:03:47+02:00
; #@! TF.GenerationSoftware,Kicad,Pcbnew,10.0.4
; #@! TF.FileFunction,Plated,1,4,PTH
FMAT,2
METRIC
; #@! TA.AperFunction,Plated,PTH,ViaDrill
T1C0.200
; #@! TA.AperFunction,Plated,PTH,ViaDrill
T2C0.250
%
G90
G05
T1
X0.614Y-16.752
X1.04Y-28.0
X1.293Y-14.825
X1.673Y-27.767
X3.836Y-28.406
X3.862Y-27.591
X3.869Y-13.002
X4.556Y-28.155
X4.749Y-13.916
X5.594Y-22.916
X5.609Y-13.16
X5.715Y-33.835
X5.945Y-35.373
X6.003Y-18.731
X6.142Y-12.585
X6.155Y-17.504
X6.185Y-15.479
X7.054Y-12.0
X7.118Y-19.676
X7.27Y-22.767
X7.392Y-20.294
X7.69Y-28.297
X7.788Y-17.377
X7.82Y-23.134
X7.839Y-31.884
X8.866Y-20.261
X8.913Y-23.699
X9.07Y-22.791
X9.143Y-16.807
X9.179Y-21.197
X9.859Y-26.935
X10.07Y-22.279
X11.047Y-18.75
X11.079Y-17.02
X11.316Y-20.778
X11.367Y-28.862
X12.097Y-16.59
X12.191Y-17.186
X12.602Y-18.779
X12.603Y-26.027
X12.888Y-22.117
X13.291Y-22.851
X13.627Y-26.615
X13.707Y-17.022
X13.913Y-30.139
X14.003Y-22.421
X14.03Y-20.477
X14.55Y-24.077
X14.59Y-27.596
X14.628Y-20.697
X14.795Y-17.13
X14.798Y-25.804
X14.808Y-30.134
X15.726Y-23.798
X15.739Y-21.985
X17.089Y-21.02
X17.231Y-16.771
X17.716Y-17.357
X17.888Y-19.084
X18.339Y-13.16
X19.058Y-17.831
X19.115Y-13.053
X19.168Y-12.5
X19.168Y-14.264
X19.174Y-11.234
X20.631Y-17.037
X21.711Y-14.366
X21.995Y-23.727
X22.091Y-15.159
X22.563Y-19.631
X22.575Y-18.823
X22.932Y-25.138
X23.408Y-14.854
X24.501Y-17.109
X24.718Y-30.892
X24.829Y-20.609
X25.0Y-11.933
X25.184Y-31.217
X25.394Y-27.141
X26.555Y-13.053
X26.556Y-20.885
X26.961Y-12.5
X27.063Y-25.42
T2
X1.828Y-16.962
X2.5Y-33.863
X3.64Y-30.723
X5.751Y-14.048
X5.992Y-16.374
X6.098Y-26.536
X6.811Y-33.044
X7.054Y-9.794
X7.31Y-27.691
X7.314Y-31.079
X7.652Y-18.814
X9.698Y-31.918
X11.0Y-27.652
X11.6Y-32.626
X11.722Y-30.504
X15.29Y-27.904
X15.592Y-14.518
X15.677Y-25.377
X16.255Y-21.243
X16.767Y-34.255
X16.779Y-18.88
X20.13Y-21.845
X20.408Y-32.815
X21.039Y-21.567
X21.35Y-26.347
X25.181Y-21.564
X25.319Y-34.786
X25.415Y-33.91
X25.426Y-32.815
M30
