%TF.GenerationSoftware,KiCad,Pcbnew,10.0.4*%
%TF.CreationDate,2026-07-17T09:03:47+02:00*%
%TF.ProjectId,neorecall-wearable-v1,6e656f72-6563-4616-9c6c-2d7765617261,rev?*%
%TF.SameCoordinates,Original*%
%TF.FileFunction,Copper,L4,Bot*%
%TF.FilePolarity,Positive*%
%FSLAX46Y46*%
G04 Gerber Fmt 4.6, Leading zero omitted, Abs format (unit mm)*
G04 Created by KiCad (PCBNEW 10.0.4) date 2026-07-17 09:03:47*
%MOMM*%
%LPD*%
G01*
G04 APERTURE LIST*
G04 Aperture macros list*
%AMRoundRect*
0 Rectangle with rounded corners*
0 $1 Rounding radius*
0 $2 $3 $4 $5 $6 $7 $8 $9 X,Y pos of 4 corners*
0 Add a 4 corners polygon primitive as box body*
4,1,4,$2,$3,$4,$5,$6,$7,$8,$9,$2,$3,0*
0 Add four circle primitives for the rounded corners*
1,1,$1+$1,$2,$3*
1,1,$1+$1,$4,$5*
1,1,$1+$1,$6,$7*
1,1,$1+$1,$8,$9*
0 Add four rect primitives between the rounded corners*
20,1,$1+$1,$2,$3,$4,$5,0*
20,1,$1+$1,$4,$5,$6,$7,0*
20,1,$1+$1,$6,$7,$8,$9,0*
20,1,$1+$1,$8,$9,$2,$3,0*%
G04 Aperture macros list end*
%TA.AperFunction,SMDPad,CuDef*%
%ADD10RoundRect,0.200000X-0.200000X-0.275000X0.200000X-0.275000X0.200000X0.275000X-0.200000X0.275000X0*%
%TD*%
%TA.AperFunction,SMDPad,CuDef*%
%ADD11RoundRect,0.112500X0.112500X-0.187500X0.112500X0.187500X-0.112500X0.187500X-0.112500X-0.187500X0*%
%TD*%
%TA.AperFunction,SMDPad,CuDef*%
%ADD12R,0.950000X0.450000*%
%TD*%
%TA.AperFunction,SMDPad,CuDef*%
%ADD13R,1.200000X0.400000*%
%TD*%
%TA.AperFunction,SMDPad,CuDef*%
%ADD14R,1.300000X1.400000*%
%TD*%
%TA.AperFunction,SMDPad,CuDef*%
%ADD15RoundRect,0.225000X-0.225000X-0.250000X0.225000X-0.250000X0.225000X0.250000X-0.225000X0.250000X0*%
%TD*%
%TA.AperFunction,SMDPad,CuDef*%
%ADD16RoundRect,0.150000X0.150000X-0.512500X0.150000X0.512500X-0.150000X0.512500X-0.150000X-0.512500X0*%
%TD*%
%TA.AperFunction,SMDPad,CuDef*%
%ADD17C,1.000000*%
%TD*%
%TA.AperFunction,SMDPad,CuDef*%
%ADD18RoundRect,0.200000X0.275000X-0.200000X0.275000X0.200000X-0.275000X0.200000X-0.275000X-0.200000X0*%
%TD*%
%TA.AperFunction,SMDPad,CuDef*%
%ADD19RoundRect,0.140000X-0.140000X-0.170000X0.140000X-0.170000X0.140000X0.170000X-0.140000X0.170000X0*%
%TD*%
%TA.AperFunction,SMDPad,CuDef*%
%ADD20RoundRect,0.225000X0.250000X-0.225000X0.250000X0.225000X-0.250000X0.225000X-0.250000X-0.225000X0*%
%TD*%
%TA.AperFunction,SMDPad,CuDef*%
%ADD21RoundRect,0.135000X0.185000X-0.135000X0.185000X0.135000X-0.185000X0.135000X-0.185000X-0.135000X0*%
%TD*%
%TA.AperFunction,SMDPad,CuDef*%
%ADD22RoundRect,0.250000X-0.250000X-0.475000X0.250000X-0.475000X0.250000X0.475000X-0.250000X0.475000X0*%
%TD*%
%TA.AperFunction,ViaPad*%
%ADD23C,0.500000*%
%TD*%
%TA.AperFunction,ViaPad*%
%ADD24C,0.450000*%
%TD*%
%TA.AperFunction,Conductor*%
%ADD25C,0.300000*%
%TD*%
%TA.AperFunction,Conductor*%
%ADD26C,0.150000*%
%TD*%
G04 APERTURE END LIST*
D10*
%TO.P,R8,1*%
%TO.N,/BQ_ITERM*%
X2175000Y-24500000D03*
%TO.P,R8,2*%
%TO.N,/GND*%
X3825000Y-24500000D03*
%TD*%
D11*
%TO.P,D1,1*%
%TO.N,/VBUS_USB*%
X7000000Y-37050000D03*
%TO.P,D1,2*%
%TO.N,/GND*%
X7000000Y-34950000D03*
%TD*%
D12*
%TO.P,J3,1*%
%TO.N,/SD_DAT2_UNUSED*%
X23745000Y-24720000D03*
%TO.P,J3,2*%
%TO.N,/SD_CS_CARD*%
X23745000Y-25420000D03*
%TO.P,J3,3*%
%TO.N,/SD_MOSI_CARD*%
X23745000Y-26120000D03*
%TO.P,J3,4*%
%TO.N,/SD_3V3*%
X23745000Y-26820000D03*
%TO.P,J3,5*%
%TO.N,/SD_CLK_CARD*%
X23745000Y-28520000D03*
D13*
%TO.P,J3,6*%
%TO.N,/GND*%
X18275000Y-33460000D03*
X22125000Y-33460000D03*
D14*
X17070000Y-33150000D03*
X23330000Y-33150000D03*
D12*
X23745000Y-29220000D03*
D14*
X17070000Y-22650000D03*
X23330000Y-22650000D03*
D13*
X18275000Y-22340000D03*
X22125000Y-22340000D03*
D12*
%TO.P,J3,7*%
%TO.N,/SD_MISO_CARD*%
X23745000Y-30620000D03*
%TO.P,J3,8*%
%TO.N,/SD_DAT1_UNUSED*%
X23745000Y-31320000D03*
%TO.P,J3,CD*%
%TO.N,/SD_CARD_DETECT*%
X23745000Y-29920000D03*
%TD*%
D15*
%TO.P,C3,1*%
%TO.N,/SYS_RAW*%
X8725000Y-33500000D03*
%TO.P,C3,2*%
%TO.N,/GND*%
X10275000Y-33500000D03*
%TD*%
D16*
%TO.P,U2,1*%
%TO.N,/USB_DP_CONN*%
X14450000Y-31137500D03*
%TO.P,U2,2*%
%TO.N,/GND*%
X13500000Y-31137500D03*
%TO.P,U2,3*%
%TO.N,/USB_DM_CONN*%
X12550000Y-31137500D03*
%TO.P,U2,4*%
%TO.N,/USB_DM_ESD*%
X12550000Y-28862500D03*
%TO.P,U2,5*%
%TO.N,/VBUS_USB*%
X13500000Y-28862500D03*
%TO.P,U2,6*%
%TO.N,/USB_DP_ESD*%
X14450000Y-28862500D03*
%TD*%
D17*
%TO.P,TP3,1*%
%TO.N,/ESP_EN*%
X25000000Y-13000000D03*
%TD*%
D18*
%TO.P,R25,1*%
%TO.N,/SD_3V3*%
X27000000Y-26325000D03*
%TO.P,R25,2*%
%TO.N,/SD_MOSI_CARD*%
X27000000Y-24675000D03*
%TD*%
%TO.P,R16,1*%
%TO.N,/BAT_SENSE*%
X4800000Y-17825000D03*
%TO.P,R16,2*%
%TO.N,/GND*%
X4800000Y-16175000D03*
%TD*%
%TO.P,R22,1*%
%TO.N,/SD_MISO_MCU*%
X12000000Y-21325000D03*
%TO.P,R22,2*%
%TO.N,/SD_MISO_CARD*%
X12000000Y-19675000D03*
%TD*%
D10*
%TO.P,R11,1*%
%TO.N,/3V3*%
X21175000Y-15500000D03*
%TO.P,R11,2*%
%TO.N,/CHARGER_PGOOD_N*%
X22825000Y-15500000D03*
%TD*%
D19*
%TO.P,C23,1*%
%TO.N,/SD_SLEW_CT*%
X4820000Y-27300000D03*
%TO.P,C23,2*%
%TO.N,/GND*%
X5780000Y-27300000D03*
%TD*%
D15*
%TO.P,C9,1*%
%TO.N,/3V3*%
X8725000Y-15500000D03*
%TO.P,C9,2*%
%TO.N,/GND*%
X10275000Y-15500000D03*
%TD*%
D20*
%TO.P,C22,1*%
%TO.N,/SD_3V3*%
X13500000Y-25575000D03*
%TO.P,C22,2*%
%TO.N,/GND*%
X13500000Y-24025000D03*
%TD*%
D21*
%TO.P,R28,1*%
%TO.N,/SD_3V3*%
X25200000Y-24710000D03*
%TO.P,R28,2*%
%TO.N,/SD_DAT2_UNUSED*%
X25200000Y-23690000D03*
%TD*%
D10*
%TO.P,R7,1*%
%TO.N,/BQ_TMR*%
X1675000Y-33500000D03*
%TO.P,R7,2*%
%TO.N,/GND*%
X3325000Y-33500000D03*
%TD*%
D18*
%TO.P,R12,1*%
%TO.N,/3V3*%
X7000000Y-12825000D03*
%TO.P,R12,2*%
%TO.N,/ESP_EN*%
X7000000Y-11175000D03*
%TD*%
D17*
%TO.P,TP5,1*%
%TO.N,/GND*%
X25200000Y-16200000D03*
%TD*%
D20*
%TO.P,C8,1*%
%TO.N,/ESP_EN*%
X7000000Y-15775000D03*
%TO.P,C8,2*%
%TO.N,/GND*%
X7000000Y-14225000D03*
%TD*%
D15*
%TO.P,C10,1*%
%TO.N,/3V3*%
X12725000Y-14500000D03*
%TO.P,C10,2*%
%TO.N,/GND*%
X14275000Y-14500000D03*
%TD*%
D10*
%TO.P,R13,1*%
%TO.N,/3V3*%
X16675000Y-18000000D03*
%TO.P,R13,2*%
%TO.N,/USER_BUTTON*%
X18325000Y-18000000D03*
%TD*%
D18*
%TO.P,R26,1*%
%TO.N,/SD_3V3*%
X27000000Y-23325000D03*
%TO.P,R26,2*%
%TO.N,/SD_MISO_CARD*%
X27000000Y-21675000D03*
%TD*%
%TO.P,R23,1*%
%TO.N,/SD_CS_MCU*%
X14000000Y-21325000D03*
%TO.P,R23,2*%
%TO.N,/SD_CS_CARD*%
X14000000Y-19675000D03*
%TD*%
D22*
%TO.P,C19,1*%
%TO.N,/SD_3V3*%
X22550000Y-36000000D03*
%TO.P,C19,2*%
%TO.N,/GND*%
X24450000Y-36000000D03*
%TD*%
D18*
%TO.P,R32,1*%
%TO.N,/SD_POWER_EN*%
X7500000Y-25625000D03*
%TO.P,R32,2*%
%TO.N,/GND*%
X7500000Y-23975000D03*
%TD*%
D10*
%TO.P,R14,1*%
%TO.N,/3V3*%
X18175000Y-16000000D03*
%TO.P,R14,2*%
%TO.N,/GPIO8_STRAP*%
X19825000Y-16000000D03*
%TD*%
D18*
%TO.P,R29,1*%
%TO.N,/3V3*%
X26300000Y-32325000D03*
%TO.P,R29,2*%
%TO.N,/SD_CARD_DETECT*%
X26300000Y-30675000D03*
%TD*%
%TO.P,R20,1*%
%TO.N,/SD_CLK_MCU*%
X8000000Y-21325000D03*
%TO.P,R20,2*%
%TO.N,/SD_CLK_CARD*%
X8000000Y-19675000D03*
%TD*%
%TO.P,R27,1*%
%TO.N,/SD_3V3*%
X5500000Y-25325000D03*
%TO.P,R27,2*%
%TO.N,/SD_DAT1_UNUSED*%
X5500000Y-23675000D03*
%TD*%
D17*
%TO.P,TP4,1*%
%TO.N,/3V3*%
X23000000Y-18000000D03*
%TD*%
D18*
%TO.P,R3,1*%
%TO.N,/USB_CC1*%
X5000000Y-36825000D03*
%TO.P,R3,2*%
%TO.N,/GND*%
X5000000Y-35175000D03*
%TD*%
D10*
%TO.P,R6,1*%
%TO.N,/BQ_ILIM*%
X2175000Y-29500000D03*
%TO.P,R6,2*%
%TO.N,/GND*%
X3825000Y-29500000D03*
%TD*%
%TO.P,R19,1*%
%TO.N,/I2S_SD_1V85*%
X21675000Y-20800000D03*
%TO.P,R19,2*%
%TO.N,/GND*%
X23325000Y-20800000D03*
%TD*%
%TO.P,R10,1*%
%TO.N,/3V3*%
X21175000Y-13500000D03*
%TO.P,R10,2*%
%TO.N,/CHARGER_CHG_N*%
X22825000Y-13500000D03*
%TD*%
D21*
%TO.P,R1,1*%
%TO.N,/USB_DP_ESD*%
X14250000Y-17610000D03*
%TO.P,R1,2*%
%TO.N,/USB_DP*%
X14250000Y-16590000D03*
%TD*%
D18*
%TO.P,R21,1*%
%TO.N,/SD_MOSI_MCU*%
X10000000Y-21325000D03*
%TO.P,R21,2*%
%TO.N,/SD_MOSI_CARD*%
X10000000Y-19675000D03*
%TD*%
%TO.P,R24,1*%
%TO.N,/SD_3V3*%
X26300000Y-29325000D03*
%TO.P,R24,2*%
%TO.N,/SD_CS_CARD*%
X26300000Y-27675000D03*
%TD*%
D20*
%TO.P,C11,1*%
%TO.N,/BAT_SENSE*%
X4800000Y-20775000D03*
%TO.P,C11,2*%
%TO.N,/GND*%
X4800000Y-19225000D03*
%TD*%
D17*
%TO.P,TP1,1*%
%TO.N,/UART_TX*%
X3000000Y-13000000D03*
%TD*%
D21*
%TO.P,R2,1*%
%TO.N,/USB_DM_ESD*%
X12750000Y-17610000D03*
%TO.P,R2,2*%
%TO.N,/USB_DM*%
X12750000Y-16590000D03*
%TD*%
D15*
%TO.P,C2,1*%
%TO.N,/BAT_PLUS*%
X5025000Y-32000000D03*
%TO.P,C2,2*%
%TO.N,/GND*%
X6575000Y-32000000D03*
%TD*%
D16*
%TO.P,U7,1*%
%TO.N,/3V3*%
X11450000Y-25937500D03*
%TO.P,U7,2*%
%TO.N,/GND*%
X10500000Y-25937500D03*
%TO.P,U7,3*%
%TO.N,/SD_POWER_EN*%
X9550000Y-25937500D03*
%TO.P,U7,4*%
%TO.N,/SD_SLEW_CT*%
X9550000Y-23662500D03*
%TO.P,U7,5*%
%TO.N,/SD_3V3*%
X10500000Y-23662500D03*
%TO.P,U7,6*%
X11450000Y-23662500D03*
%TD*%
D20*
%TO.P,C18,1*%
%TO.N,/SD_3V3*%
X26300000Y-35275000D03*
%TO.P,C18,2*%
%TO.N,/GND*%
X26300000Y-33725000D03*
%TD*%
D10*
%TO.P,R9,1*%
%TO.N,/BQ_ISET*%
X1675000Y-26500000D03*
%TO.P,R9,2*%
%TO.N,/GND*%
X3325000Y-26500000D03*
%TD*%
D20*
%TO.P,C1,1*%
%TO.N,/VBUS_USB*%
X9000000Y-30775000D03*
%TO.P,C1,2*%
%TO.N,/GND*%
X9000000Y-29225000D03*
%TD*%
D17*
%TO.P,TP2,1*%
%TO.N,/UART_RX*%
X3000000Y-15000000D03*
%TD*%
D18*
%TO.P,R15,1*%
%TO.N,/BAT_PLUS*%
X4800000Y-14825000D03*
%TO.P,R15,2*%
%TO.N,/BAT_SENSE*%
X4800000Y-13175000D03*
%TD*%
D23*
%TO.N,/3V3*%
X7652000Y-18813700D03*
X7053900Y-9793700D03*
X16778600Y-18879800D03*
X20407600Y-32814900D03*
X15289700Y-27904300D03*
X25181300Y-21564300D03*
X25426400Y-32814900D03*
D24*
%TO.N,/BUCK_PG_N*%
X19167900Y-12500100D03*
X26960800Y-12500100D03*
D23*
%TO.N,/GND*%
X16766700Y-34254500D03*
X2500000Y-33863100D03*
X20129700Y-21844600D03*
X1827800Y-16961500D03*
X25318900Y-34786200D03*
X7314500Y-31079500D03*
X11000000Y-27651600D03*
D24*
%TO.N,/MIC_POWER_EN*%
X12888300Y-22117400D03*
X7819900Y-23134300D03*
X14549500Y-24077400D03*
X23408000Y-14853800D03*
D23*
%TO.N,/1V85*%
X5750900Y-14048100D03*
X21039100Y-21566600D03*
X15592400Y-14518000D03*
X16255200Y-21242700D03*
%TO.N,/SYS_RAW*%
X25414700Y-33910200D03*
X21350000Y-26346800D03*
X9698300Y-31917800D03*
D24*
%TO.N,/CHARGER_CHG_N*%
X7839500Y-31884100D03*
X21711200Y-14366200D03*
X17888400Y-19083800D03*
%TO.N,/USER_BUTTON*%
X17715800Y-17357300D03*
%TO.N,/I2S_WS_1V85*%
X17089300Y-21020300D03*
X22574700Y-18823100D03*
X614000Y-16752500D03*
%TO.N,/I2S_BCLK_1V85*%
X24829300Y-20608800D03*
X7269700Y-22767200D03*
X15726100Y-23798300D03*
X15738500Y-21984900D03*
X6003400Y-18731000D03*
%TO.N,/I2S_SD_1V85*%
X1293000Y-14825300D03*
X14003300Y-22421000D03*
X22563000Y-19630900D03*
D23*
%TO.N,/BAT_PLUS*%
X5991900Y-16374100D03*
X3640000Y-30723100D03*
D24*
%TO.N,/I2S_SD_3V3*%
X8913300Y-23699100D03*
X6155300Y-17504000D03*
%TO.N,/I2S_BCLK_3V3*%
X9142600Y-16807200D03*
X8866100Y-20261000D03*
X6185300Y-15478700D03*
%TO.N,/ESP_EN*%
X6142000Y-12585200D03*
X25000000Y-11932900D03*
%TO.N,/BAT_SENSE*%
X4749500Y-13915900D03*
X7053900Y-12000000D03*
%TO.N,/SD_MISO_MCU*%
X12601700Y-18778700D03*
%TO.N,/I2S_WS_3V3*%
X7117700Y-19675600D03*
X9179500Y-21196900D03*
%TO.N,/SD_CLK_MCU*%
X11079500Y-17019900D03*
%TO.N,/SD_MOSI_MCU*%
X7787800Y-17376700D03*
X12191100Y-17185600D03*
%TO.N,/USB_DM*%
X12097000Y-16590000D03*
%TO.N,/USB_DP*%
X13707100Y-17022200D03*
%TO.N,/SD_POWER_EN*%
X12602700Y-26026800D03*
X9859100Y-26935400D03*
X14030400Y-20476600D03*
X14795200Y-17129800D03*
%TO.N,/GPIO8_STRAP*%
X17230900Y-16770600D03*
%TO.N,/SD_CS_MCU*%
X14627800Y-20697200D03*
X19057600Y-17830700D03*
%TO.N,/SD_CARD_DETECT*%
X26555000Y-13053500D03*
X19114900Y-13053500D03*
%TO.N,/CHARGER_PGOOD_N*%
X22091300Y-15159500D03*
X5715200Y-33834800D03*
X19167900Y-14263800D03*
%TO.N,/UART_RX*%
X19174400Y-11233600D03*
X3869300Y-13001700D03*
%TO.N,/UART_TX*%
X18339100Y-13160000D03*
X5609300Y-13160000D03*
D23*
%TO.N,/VBUS_USB*%
X11721900Y-30503600D03*
X6811300Y-33043600D03*
X7310100Y-27691000D03*
X11600000Y-32626200D03*
D24*
%TO.N,/USB_CC1*%
X13626900Y-26614900D03*
X5944800Y-35373200D03*
%TO.N,/USB_DP_CONN*%
X14808400Y-30133900D03*
%TO.N,/USB_DM_CONN*%
X13912700Y-30139200D03*
%TO.N,/BQ_ILIM*%
X7690300Y-28297200D03*
X3836000Y-28406500D03*
%TO.N,/BQ_TMR*%
X1672700Y-27766700D03*
%TO.N,/BQ_ITERM*%
X3862200Y-27591100D03*
%TO.N,/BQ_ISET*%
X1039700Y-28000000D03*
%TO.N,/SD_CS_CARD*%
X13291100Y-22851000D03*
X22931600Y-25137600D03*
%TO.N,/SD_MOSI_CARD*%
X25394000Y-27140700D03*
X20630600Y-17037300D03*
X24501000Y-17108700D03*
X11046900Y-18749800D03*
X27063400Y-25420200D03*
D23*
%TO.N,/SD_3V3*%
X15676900Y-25377500D03*
X6098300Y-26535800D03*
D24*
%TO.N,/SD_CLK_CARD*%
X21994700Y-23727200D03*
X7392200Y-20293700D03*
%TO.N,/SD_MISO_CARD*%
X11315700Y-20777900D03*
X26556500Y-20885000D03*
X25184200Y-31217000D03*
%TO.N,/SD_DAT1_UNUSED*%
X24717700Y-30892000D03*
X5594300Y-22916000D03*
%TO.N,/USB_DM_ESD*%
X10070000Y-22279400D03*
X11367200Y-28862500D03*
%TO.N,/USB_DP_ESD*%
X14798400Y-25804200D03*
X14590500Y-27595700D03*
%TO.N,/SD_SLEW_CT*%
X9070200Y-22791000D03*
X4555700Y-28155100D03*
%TD*%
%TO.N,/3V3*%
D25*
X24909800Y-15356500D02*
X25544800Y-15356500D01*
X26019300Y-17197800D02*
X24302500Y-18914600D01*
X8615900Y-17849800D02*
X7652000Y-18813700D01*
X18965300Y-15209700D02*
X18175000Y-16000000D01*
X26300000Y-32325000D02*
X25810100Y-32814900D01*
X7777500Y-10517300D02*
X7777500Y-12047500D01*
X16675000Y-16000000D02*
X16675000Y-18000000D01*
X24302500Y-18914600D02*
X24302500Y-20909800D01*
X16675000Y-18776200D02*
X16778600Y-18879800D01*
X21175000Y-16175000D02*
X21175000Y-15500000D01*
X16675000Y-16000000D02*
X16675000Y-14820400D01*
X15289700Y-27523800D02*
X15289700Y-27904300D01*
X25544800Y-15356500D02*
X26019300Y-15831000D01*
X24302500Y-20909800D02*
X24957000Y-21564300D01*
X26019300Y-15831000D02*
X26019300Y-17197800D01*
X14810600Y-27044700D02*
X15289700Y-27523800D01*
X8615900Y-15609100D02*
X8615900Y-17849800D01*
X16675000Y-18000000D02*
X16675000Y-18776200D01*
X23000000Y-17266300D02*
X24909800Y-15356500D01*
X12654100Y-27141600D02*
X13845000Y-27141600D01*
X24957000Y-21564300D02*
X25181300Y-21564300D01*
X10272500Y-12047500D02*
X7777500Y-12047500D01*
X13845000Y-27141600D02*
X13941900Y-27044700D01*
X13941900Y-27044700D02*
X14810600Y-27044700D01*
X8725000Y-15500000D02*
X8615900Y-15609100D01*
X15565400Y-13710800D02*
X13514200Y-13710800D01*
X21175000Y-15209700D02*
X21175000Y-15500000D01*
X7777500Y-12047500D02*
X7000000Y-12825000D01*
X21175000Y-15209700D02*
X21175000Y-13500000D01*
X16675000Y-16000000D02*
X18175000Y-16000000D01*
X12725000Y-14500000D02*
X10272500Y-12047500D01*
X11450000Y-25937500D02*
X12654100Y-27141600D01*
X7053900Y-9793700D02*
X7777500Y-10517300D01*
X21175000Y-15209700D02*
X18965300Y-15209700D01*
X25810100Y-32814900D02*
X25426400Y-32814900D01*
X16675000Y-14820400D02*
X15565400Y-13710800D01*
X13514200Y-13710800D02*
X12725000Y-14500000D01*
X23000000Y-18000000D02*
X21175000Y-16175000D01*
X23000000Y-18000000D02*
X23000000Y-17266300D01*
%TO.N,/GND*%
X7781000Y-14703100D02*
X7302900Y-14225000D01*
X3039200Y-33214200D02*
X3094100Y-33269000D01*
X5476700Y-18513000D02*
X5476700Y-19225000D01*
X15134200Y-22583800D02*
X14941200Y-22583800D01*
X7781000Y-16215100D02*
X7018800Y-16977300D01*
X25318900Y-34786200D02*
X26300000Y-33805100D01*
X18275000Y-22340000D02*
X17373300Y-22340000D01*
X3825000Y-29500000D02*
X3955600Y-29500000D01*
X23026700Y-33150000D02*
X23026700Y-33460000D01*
X23330000Y-22340000D02*
X23330000Y-21648300D01*
X15321900Y-20750200D02*
X15321900Y-15546900D01*
X14941200Y-22583800D02*
X13500000Y-24025000D01*
X23325000Y-21643300D02*
X23330000Y-21648300D01*
X22125000Y-22340000D02*
X20129700Y-22340000D01*
X22930200Y-32861800D02*
X23026700Y-32958300D01*
X7018800Y-16977300D02*
X5611500Y-16977300D01*
X16869500Y-34151700D02*
X17070000Y-34151700D01*
X3825000Y-26104400D02*
X3825000Y-24500000D01*
X23081700Y-29220000D02*
X22930200Y-29371500D01*
X5780000Y-27300000D02*
X6115900Y-27300000D01*
X17070000Y-33150000D02*
X17070000Y-34151700D01*
X6651500Y-26764400D02*
X6651500Y-24823500D01*
X13500000Y-31137500D02*
X13500000Y-31568600D01*
X7781000Y-14703100D02*
X7781000Y-16215100D01*
X10500000Y-27651600D02*
X10500000Y-27725000D01*
X17373300Y-22346700D02*
X17070000Y-22650000D01*
X13500000Y-31568600D02*
X11568600Y-33500000D01*
X18021700Y-33150000D02*
X18021700Y-33206700D01*
X6115900Y-27300000D02*
X6651500Y-26764400D01*
X3955600Y-29500000D02*
X5780000Y-27675600D01*
X18021700Y-33206700D02*
X18275000Y-33460000D01*
X10275000Y-15500000D02*
X9478100Y-14703100D01*
X6787500Y-34737500D02*
X6257600Y-34737500D01*
X24450000Y-35655100D02*
X25318900Y-34786200D01*
X23330000Y-22650000D02*
X23330000Y-22340000D01*
X20129700Y-22340000D02*
X18275000Y-22340000D01*
X9000000Y-29225000D02*
X10275000Y-30500000D01*
X6257600Y-34737500D02*
X5437500Y-34737500D01*
X25200000Y-17265500D02*
X25200000Y-16200000D01*
X15321900Y-15546900D02*
X14275000Y-14500000D01*
X23330000Y-22340000D02*
X22125000Y-22340000D01*
X9000000Y-29225000D02*
X7314500Y-30910500D01*
X23325000Y-20800000D02*
X23325000Y-19140500D01*
X17070000Y-22650000D02*
X16118300Y-22650000D01*
X5582600Y-19330900D02*
X5582600Y-21238300D01*
X3325000Y-33500000D02*
X5000000Y-35175000D01*
X23325000Y-19140500D02*
X25200000Y-17265500D01*
X17373300Y-22340000D02*
X17373300Y-22346700D01*
X7000000Y-34950000D02*
X6787500Y-34737500D01*
X5780000Y-27675600D02*
X5780000Y-27300000D01*
X5582600Y-21238300D02*
X4771700Y-22049200D01*
X23745000Y-29220000D02*
X23081700Y-29220000D01*
X3094100Y-33269000D02*
X3325000Y-33500000D01*
X10275000Y-30500000D02*
X10275000Y-33500000D01*
X11568600Y-33500000D02*
X10275000Y-33500000D01*
X1827800Y-19105400D02*
X1827800Y-16961500D01*
X17070000Y-33150000D02*
X15081400Y-33150000D01*
X23330000Y-34880000D02*
X24450000Y-36000000D01*
X6575000Y-32000000D02*
X6257600Y-32317400D01*
X6575000Y-32000000D02*
X6575000Y-31819000D01*
X23325000Y-20800000D02*
X23325000Y-21643300D01*
X5606900Y-18382800D02*
X5476700Y-18513000D01*
X23330000Y-33150000D02*
X23330000Y-34880000D01*
X26300000Y-33805100D02*
X26300000Y-33725000D01*
X7314500Y-30910500D02*
X7314500Y-31079500D01*
X24450000Y-36000000D02*
X24450000Y-35655100D01*
X10500000Y-27651600D02*
X11000000Y-27651600D01*
X3039200Y-30285800D02*
X3039200Y-33214200D01*
X17070000Y-33150000D02*
X18021700Y-33150000D01*
X6651500Y-24823500D02*
X7500000Y-23975000D01*
X5476700Y-19225000D02*
X4800000Y-19225000D01*
X3720600Y-26104400D02*
X3825000Y-26104400D01*
X5437500Y-34737500D02*
X5000000Y-35175000D01*
X3825000Y-26104400D02*
X4584400Y-26104400D01*
X15134200Y-20937900D02*
X15321900Y-20750200D01*
X15081400Y-33150000D02*
X13500000Y-31568600D01*
X6575000Y-31819000D02*
X7314500Y-31079500D01*
X2500000Y-33863100D02*
X3094100Y-33269000D01*
X4584400Y-26104400D02*
X5780000Y-27300000D01*
X5611500Y-16977300D02*
X5606900Y-16981900D01*
X3825000Y-29500000D02*
X3039200Y-30285800D01*
X13275000Y-15500000D02*
X10275000Y-15500000D01*
X3325000Y-26500000D02*
X3720600Y-26104400D01*
X16118300Y-22650000D02*
X16052100Y-22583800D01*
X9478100Y-14703100D02*
X7781000Y-14703100D01*
X16766700Y-34254500D02*
X16869500Y-34151700D01*
X7302900Y-14225000D02*
X7000000Y-14225000D01*
X4771700Y-22049200D02*
X3825000Y-22995900D01*
X4771700Y-22049200D02*
X1827800Y-19105400D01*
X10500000Y-27651600D02*
X10500000Y-25937500D01*
X22930200Y-29371500D02*
X22930200Y-32861800D01*
X6257600Y-32317400D02*
X6257600Y-34737500D01*
X23026700Y-32958300D02*
X23026700Y-33150000D01*
X15134200Y-22583800D02*
X15134200Y-20937900D01*
X3825000Y-22995900D02*
X3825000Y-24500000D01*
X5606900Y-16981900D02*
X5606900Y-18382800D01*
X14275000Y-14500000D02*
X13275000Y-15500000D01*
X20129700Y-22340000D02*
X20129700Y-21844600D01*
X5606900Y-16981900D02*
X4800000Y-16175000D01*
X22125000Y-33460000D02*
X23026700Y-33460000D01*
X16052100Y-22583800D02*
X15134200Y-22583800D01*
X23330000Y-33150000D02*
X23026700Y-33150000D01*
X10500000Y-27725000D02*
X9000000Y-29225000D01*
X5476700Y-19225000D02*
X5582600Y-19330900D01*
%TO.N,/1V85*%
X15966400Y-20953900D02*
X15966400Y-14892000D01*
X16255200Y-21242700D02*
X15966400Y-20953900D01*
X15966400Y-14892000D02*
X15592400Y-14518000D01*
%TO.N,/SYS_RAW*%
X9698300Y-31917800D02*
X8725000Y-32891100D01*
X8725000Y-32891100D02*
X8725000Y-33500000D01*
%TO.N,/CHARGER_CHG_N*%
D26*
X21958800Y-14366200D02*
X21711200Y-14366200D01*
X22825000Y-13500000D02*
X21958800Y-14366200D01*
%TO.N,/USER_BUTTON*%
X18325000Y-18000000D02*
X17715800Y-17390800D01*
X17715800Y-17390800D02*
X17715800Y-17357300D01*
%TO.N,/I2S_BCLK_1V85*%
X6003400Y-21500900D02*
X7269700Y-22767200D01*
X6003400Y-18731000D02*
X6003400Y-21500900D01*
%TO.N,/I2S_SD_1V85*%
X21675000Y-20800000D02*
X22563000Y-19912000D01*
X22563000Y-19912000D02*
X22563000Y-19630900D01*
%TO.N,/BAT_PLUS*%
D25*
X4800000Y-14825000D02*
X4800000Y-14838100D01*
X5991900Y-16030000D02*
X5991900Y-16374100D01*
X3748100Y-30723100D02*
X5025000Y-32000000D01*
X4800000Y-14838100D02*
X5991900Y-16030000D01*
X3640000Y-30723100D02*
X3748100Y-30723100D01*
%TO.N,/I2S_SD_3V3*%
D26*
X6410500Y-17759200D02*
X6410500Y-21169700D01*
X6155300Y-17504000D02*
X6410500Y-17759200D01*
X7812900Y-22572100D02*
X7909200Y-22572100D01*
X8913300Y-23576200D02*
X8913300Y-23699100D01*
X6410500Y-21169700D02*
X7812900Y-22572100D01*
X7909200Y-22572100D02*
X8913300Y-23576200D01*
%TO.N,/I2S_BCLK_3V3*%
X9142600Y-18103500D02*
X8866100Y-18380000D01*
X8866100Y-18380000D02*
X8866100Y-20261000D01*
X9142600Y-16807200D02*
X9142600Y-18103500D01*
%TO.N,/ESP_EN*%
X6238300Y-11936700D02*
X7000000Y-11175000D01*
X7000000Y-15725300D02*
X6238300Y-14963600D01*
X6238300Y-14963600D02*
X6238300Y-12585200D01*
X6238300Y-12585200D02*
X6142000Y-12585200D01*
X25000000Y-13000000D02*
X25000000Y-11932900D01*
X7000000Y-15775000D02*
X7000000Y-15725300D01*
X6238300Y-12585200D02*
X6238300Y-11936700D01*
%TO.N,/BAT_SENSE*%
X4749500Y-13915900D02*
X4568500Y-13915900D01*
X4568500Y-13915900D02*
X4078700Y-14405700D01*
X4078700Y-17825000D02*
X4078700Y-20053700D01*
X4800000Y-13175000D02*
X4800000Y-13865400D01*
X4078700Y-20053700D02*
X4800000Y-20775000D01*
X4078700Y-14405700D02*
X4078700Y-17825000D01*
X4078700Y-17825000D02*
X4800000Y-17825000D01*
X4800000Y-13865400D02*
X4749500Y-13915900D01*
%TO.N,/SD_MISO_MCU*%
X12673900Y-18850900D02*
X12601700Y-18778700D01*
X12673900Y-20651100D02*
X12673900Y-18850900D01*
X12000000Y-21325000D02*
X12673900Y-20651100D01*
%TO.N,/SD_CLK_MCU*%
X8370200Y-21325000D02*
X9267800Y-20427400D01*
X9267800Y-18831600D02*
X11079500Y-17019900D01*
X9267800Y-20427400D02*
X9267800Y-18831600D01*
X8000000Y-21325000D02*
X8370200Y-21325000D01*
%TO.N,/SD_MOSI_MCU*%
X7787800Y-17376700D02*
X6714400Y-18450100D01*
X9368900Y-21956100D02*
X10000000Y-21325000D01*
X6714400Y-21055600D02*
X7614900Y-21956100D01*
X7614900Y-21956100D02*
X9368900Y-21956100D01*
X6714400Y-18450100D02*
X6714400Y-21055600D01*
%TO.N,/USB_DM*%
X12750000Y-16590000D02*
X12097000Y-16590000D01*
%TO.N,/USB_DP*%
X14139300Y-16590000D02*
X13707100Y-17022200D01*
X14250000Y-16590000D02*
X14139300Y-16590000D01*
%TO.N,/SD_POWER_EN*%
X14506600Y-20252500D02*
X14254500Y-20252500D01*
X9859100Y-26935400D02*
X9550000Y-26626300D01*
X14795200Y-17129800D02*
X14795200Y-19963900D01*
X9550000Y-25937500D02*
X7812500Y-25937500D01*
X9550000Y-26626300D02*
X9550000Y-25937500D01*
X14254500Y-20252500D02*
X14030400Y-20476600D01*
X7812500Y-25937500D02*
X7500000Y-25625000D01*
X14795200Y-19963900D02*
X14506600Y-20252500D01*
%TO.N,/GPIO8_STRAP*%
X19825000Y-16000000D02*
X19054400Y-16770600D01*
X19054400Y-16770600D02*
X17230900Y-16770600D01*
%TO.N,/SD_CS_MCU*%
X14627800Y-20697200D02*
X14000000Y-21325000D01*
%TO.N,/SD_CARD_DETECT*%
X25817900Y-21877700D02*
X23815600Y-23880000D01*
X23745000Y-29920000D02*
X24475500Y-29920000D01*
X25817900Y-20445700D02*
X25817900Y-21877700D01*
X24475500Y-29920000D02*
X25545000Y-29920000D01*
X23618200Y-23880000D02*
X22497800Y-25000400D01*
X26555000Y-13053500D02*
X26607500Y-13106000D01*
X22497800Y-26605400D02*
X23587400Y-27695000D01*
X22497800Y-25000400D02*
X22497800Y-26605400D01*
X26607500Y-13106000D02*
X26607500Y-19656100D01*
X23893600Y-27695000D02*
X24475500Y-28276900D01*
X23815600Y-23880000D02*
X23618200Y-23880000D01*
X23587400Y-27695000D02*
X23893600Y-27695000D01*
X26607500Y-19656100D02*
X25817900Y-20445700D01*
X25545000Y-29920000D02*
X26300000Y-30675000D01*
X24475500Y-28276900D02*
X24475500Y-29920000D01*
%TO.N,/CHARGER_PGOOD_N*%
X22825000Y-15500000D02*
X22484500Y-15159500D01*
X22484500Y-15159500D02*
X22091300Y-15159500D01*
%TO.N,/UART_RX*%
X3869300Y-14130700D02*
X3869300Y-13001700D01*
X3000000Y-15000000D02*
X3869300Y-14130700D01*
%TO.N,/UART_TX*%
X3412600Y-12587400D02*
X3000000Y-13000000D01*
X5609300Y-13160000D02*
X5609300Y-12929900D01*
X5609300Y-12929900D02*
X5266800Y-12587400D01*
X5266800Y-12587400D02*
X3412600Y-12587400D01*
%TO.N,/VBUS_USB*%
D25*
X13500000Y-28862500D02*
X13500000Y-29223700D01*
X7581100Y-33195200D02*
X7581100Y-36468900D01*
X9000000Y-30775000D02*
X9000000Y-31470700D01*
X7428300Y-33042400D02*
X7581100Y-33195200D01*
X9000000Y-31470700D02*
X7428300Y-33042400D01*
X13500000Y-29223700D02*
X12895200Y-29828500D01*
X7428300Y-33042400D02*
X6812500Y-33042400D01*
X12397000Y-29828500D02*
X11721900Y-30503600D01*
X12895200Y-29828500D02*
X12397000Y-29828500D01*
X6812500Y-33042400D02*
X6811300Y-33043600D01*
X7581100Y-36468900D02*
X7000000Y-37050000D01*
%TO.N,/USB_CC1*%
D26*
X5000000Y-36825000D02*
X5944800Y-35880200D01*
X5944800Y-35880200D02*
X5944800Y-35373200D01*
%TO.N,/USB_DP_CONN*%
X14450000Y-30492300D02*
X14808400Y-30133900D01*
X14450000Y-31137500D02*
X14450000Y-30492300D01*
%TO.N,/USB_DM_CONN*%
X13294100Y-30139200D02*
X13912700Y-30139200D01*
X12550000Y-30883300D02*
X13294100Y-30139200D01*
X12550000Y-31137500D02*
X12550000Y-30883300D01*
%TO.N,/BQ_ILIM*%
X2175000Y-29500000D02*
X3268500Y-28406500D01*
X3268500Y-28406500D02*
X3836000Y-28406500D01*
%TO.N,/BQ_TMR*%
X1672700Y-27766700D02*
X1584300Y-27855100D01*
X1584300Y-33409300D02*
X1675000Y-33500000D01*
X1584300Y-27855100D02*
X1584300Y-33409300D01*
%TO.N,/BQ_ITERM*%
X2387900Y-26654800D02*
X3324200Y-27591100D01*
X2175000Y-24500000D02*
X2387900Y-24712900D01*
X2387900Y-24712900D02*
X2387900Y-26654800D01*
X3324200Y-27591100D02*
X3862200Y-27591100D01*
%TO.N,/BQ_ISET*%
X1039700Y-27135300D02*
X1039700Y-28000000D01*
X1675000Y-26500000D02*
X1039700Y-27135300D01*
%TO.N,/SD_DAT2_UNUSED*%
X23745000Y-24720000D02*
X24396700Y-24720000D01*
X24396700Y-24720000D02*
X24396700Y-24493300D01*
X24396700Y-24493300D02*
X25200000Y-23690000D01*
%TO.N,/SD_CS_CARD*%
X23745000Y-25420000D02*
X23093300Y-25420000D01*
X23093300Y-25420000D02*
X22931600Y-25258300D01*
X13291100Y-20383900D02*
X13291100Y-22851000D01*
X26300000Y-27675000D02*
X26300000Y-27323300D01*
X14000000Y-19675000D02*
X13291100Y-20383900D01*
X26300000Y-27323300D02*
X24396700Y-25420000D01*
X23745000Y-25420000D02*
X24396700Y-25420000D01*
X22931600Y-25258300D02*
X22931600Y-25137600D01*
%TO.N,/SD_MOSI_CARD*%
X27000000Y-25356800D02*
X27063400Y-25420200D01*
X23745000Y-26120000D02*
X24396700Y-26120000D01*
X10000000Y-19675000D02*
X10925200Y-18749800D01*
X10925200Y-18749800D02*
X11046900Y-18749800D01*
X24396700Y-26143400D02*
X25394000Y-27140700D01*
X27000000Y-24675000D02*
X27000000Y-25356800D01*
X24396700Y-26120000D02*
X24396700Y-26143400D01*
%TO.N,/SD_3V3*%
D25*
X26300000Y-35722500D02*
X26300000Y-35275000D01*
X25200000Y-24710000D02*
X25615000Y-24710000D01*
X23745000Y-26820000D02*
X24521700Y-26820000D01*
X5500000Y-25325000D02*
X5500000Y-25937500D01*
X15841400Y-26750200D02*
X15422100Y-26330900D01*
X15676900Y-26076100D02*
X15676900Y-25377500D01*
X14255900Y-26330900D02*
X15422100Y-26330900D01*
X26300000Y-29325000D02*
X27083300Y-29325000D01*
X27083300Y-34491700D02*
X27083300Y-29325000D01*
X26300000Y-35275000D02*
X27083300Y-34491700D01*
X25615000Y-24710000D02*
X25615000Y-24940000D01*
X24521700Y-26820000D02*
X24521700Y-27546700D01*
X5500000Y-25937500D02*
X6098300Y-26535800D01*
X13500000Y-25575000D02*
X14255900Y-26330900D01*
X27083300Y-29325000D02*
X27083300Y-26408300D01*
X13362500Y-25575000D02*
X13500000Y-25575000D01*
X25615000Y-24710000D02*
X27000000Y-23325000D01*
X22550000Y-36000000D02*
X15841400Y-29291400D01*
X24964200Y-37058300D02*
X26300000Y-35722500D01*
X25615000Y-24940000D02*
X27000000Y-26325000D01*
X11450000Y-23662500D02*
X10500000Y-23662500D01*
X11450000Y-23662500D02*
X13362500Y-25575000D01*
X22550000Y-36000000D02*
X23608300Y-37058300D01*
X15422100Y-26330900D02*
X15676900Y-26076100D01*
X15841400Y-29291400D02*
X15841400Y-26750200D01*
X27083300Y-26408300D02*
X27000000Y-26325000D01*
X24521700Y-27546700D02*
X26300000Y-29325000D01*
X23608300Y-37058300D02*
X24964200Y-37058300D01*
%TO.N,/SD_CLK_CARD*%
D26*
X21994700Y-23727200D02*
X21994700Y-27421400D01*
X8000000Y-19675000D02*
X7392200Y-20282800D01*
X7392200Y-20282800D02*
X7392200Y-20293700D01*
X23745000Y-28520000D02*
X23093300Y-28520000D01*
X21994700Y-27421400D02*
X23093300Y-28520000D01*
%TO.N,/SD_MISO_CARD*%
X12000000Y-20093600D02*
X11315700Y-20777900D01*
X24526500Y-30490200D02*
X24950700Y-30490200D01*
X24396700Y-30620000D02*
X24526500Y-30490200D01*
X12000000Y-19675000D02*
X12000000Y-20093600D01*
X24950700Y-30490200D02*
X25184200Y-30723700D01*
X23745000Y-30620000D02*
X24396700Y-30620000D01*
X26556500Y-20885000D02*
X27000000Y-21328500D01*
X27000000Y-21328500D02*
X27000000Y-21675000D01*
X25184200Y-30723700D02*
X25184200Y-31217000D01*
%TO.N,/SD_DAT1_UNUSED*%
X24396700Y-31320000D02*
X24396700Y-31213000D01*
X24396700Y-31213000D02*
X24717700Y-30892000D01*
X5500000Y-23010300D02*
X5594300Y-22916000D01*
X23745000Y-31320000D02*
X24396700Y-31320000D01*
X5500000Y-23675000D02*
X5500000Y-23010300D01*
%TO.N,/USB_DM_ESD*%
X10070000Y-22279400D02*
X10913900Y-21435500D01*
X12750000Y-17614800D02*
X12750000Y-17610000D01*
X10913900Y-19450900D02*
X12750000Y-17614800D01*
X12550000Y-28862500D02*
X11367200Y-28862500D01*
X10913900Y-21435500D02*
X10913900Y-19450900D01*
%TO.N,/USB_DP_ESD*%
X12982900Y-21454800D02*
X12486600Y-21951100D01*
X14250000Y-17610000D02*
X14250000Y-17945100D01*
X14250000Y-17945100D02*
X12982900Y-19212200D01*
X12982900Y-19212200D02*
X12982900Y-21454800D01*
X14450000Y-27736200D02*
X14590500Y-27595700D01*
X13228700Y-24888500D02*
X13997500Y-24888500D01*
X14450000Y-28862500D02*
X14450000Y-27736200D01*
X13997500Y-24888500D02*
X14798400Y-25689400D01*
X12486600Y-21951100D02*
X12486600Y-24146400D01*
X14798400Y-25689400D02*
X14798400Y-25804200D01*
X12486600Y-24146400D02*
X13228700Y-24888500D01*
%TO.N,/SD_SLEW_CT*%
X4555700Y-27564300D02*
X4555700Y-28155100D01*
X4820000Y-27300000D02*
X4555700Y-27564300D01*
X9550000Y-23270800D02*
X9070200Y-22791000D01*
X9550000Y-23662500D02*
X9550000Y-23270800D01*
%TD*%
M02*
