%TF.GenerationSoftware,KiCad,Pcbnew,10.0.4*%
%TF.CreationDate,2026-07-17T09:03:47+02:00*%
%TF.ProjectId,neorecall-wearable-v1,6e656f72-6563-4616-9c6c-2d7765617261,rev?*%
%TF.SameCoordinates,Original*%
%TF.FileFunction,Legend,Bot*%
%TF.FilePolarity,Positive*%
%FSLAX46Y46*%
G04 Gerber Fmt 4.6, Leading zero omitted, Abs format (unit mm)*
G04 Created by KiCad (PCBNEW 10.0.4) date 2026-07-17 09:03:47*
%MOMM*%
%LPD*%
G01*
G04 APERTURE LIST*
G04 Aperture macros list*
%AMRoundRect*
0 Rectangle with rounded corners*
0 $1 Rounding radius*
0 $2 $3 $4 $5 $6 $7 $8 $9 X,Y pos of 4 corners*
0 Add a 4 corners polygon primitive as box body*
4,1,4,$2,$3,$4,$5,$6,$7,$8,$9,$2,$3,0*
0 Add four circle primitives for the rounded corners*
1,1,$1+$1,$2,$3*
1,1,$1+$1,$4,$5*
1,1,$1+$1,$6,$7*
1,1,$1+$1,$8,$9*
0 Add four rect primitives between the rounded corners*
20,1,$1+$1,$2,$3,$4,$5,0*
20,1,$1+$1,$4,$5,$6,$7,0*
20,1,$1+$1,$6,$7,$8,$9,0*
20,1,$1+$1,$8,$9,$2,$3,0*%
G04 Aperture macros list end*
%ADD10C,0.128000*%
%ADD11C,0.160000*%
%ADD12C,1.000000*%
%ADD13RoundRect,0.200000X-0.200000X-0.275000X0.200000X-0.275000X0.200000X0.275000X-0.200000X0.275000X0*%
%ADD14RoundRect,0.112500X0.112500X-0.187500X0.112500X0.187500X-0.112500X0.187500X-0.112500X-0.187500X0*%
%ADD15R,0.950000X0.450000*%
%ADD16R,1.200000X0.400000*%
%ADD17R,1.300000X1.400000*%
%ADD18RoundRect,0.225000X-0.225000X-0.250000X0.225000X-0.250000X0.225000X0.250000X-0.225000X0.250000X0*%
%ADD19RoundRect,0.150000X0.150000X-0.512500X0.150000X0.512500X-0.150000X0.512500X-0.150000X-0.512500X0*%
%ADD20RoundRect,0.200000X0.275000X-0.200000X0.275000X0.200000X-0.275000X0.200000X-0.275000X-0.200000X0*%
%ADD21RoundRect,0.140000X-0.140000X-0.170000X0.140000X-0.170000X0.140000X0.170000X-0.140000X0.170000X0*%
%ADD22RoundRect,0.225000X0.250000X-0.225000X0.250000X0.225000X-0.250000X0.225000X-0.250000X-0.225000X0*%
%ADD23RoundRect,0.135000X0.185000X-0.135000X0.185000X0.135000X-0.185000X0.135000X-0.185000X-0.135000X0*%
%ADD24RoundRect,0.250000X-0.250000X-0.475000X0.250000X-0.475000X0.250000X0.475000X-0.250000X0.475000X0*%
G04 APERTURE END LIST*
D10*
X17790476Y-10063439D02*
X17790476Y-9263439D01*
X17790476Y-9263439D02*
X17333333Y-10063439D01*
X17333333Y-10063439D02*
X17333333Y-9263439D01*
X16647619Y-10025344D02*
X16723810Y-10063439D01*
X16723810Y-10063439D02*
X16876191Y-10063439D01*
X16876191Y-10063439D02*
X16952381Y-10025344D01*
X16952381Y-10025344D02*
X16990477Y-9949153D01*
X16990477Y-9949153D02*
X16990477Y-9644391D01*
X16990477Y-9644391D02*
X16952381Y-9568201D01*
X16952381Y-9568201D02*
X16876191Y-9530105D01*
X16876191Y-9530105D02*
X16723810Y-9530105D01*
X16723810Y-9530105D02*
X16647619Y-9568201D01*
X16647619Y-9568201D02*
X16609524Y-9644391D01*
X16609524Y-9644391D02*
X16609524Y-9720582D01*
X16609524Y-9720582D02*
X16990477Y-9796772D01*
X16152382Y-10063439D02*
X16228572Y-10025344D01*
X16228572Y-10025344D02*
X16266667Y-9987248D01*
X16266667Y-9987248D02*
X16304763Y-9911058D01*
X16304763Y-9911058D02*
X16304763Y-9682486D01*
X16304763Y-9682486D02*
X16266667Y-9606296D01*
X16266667Y-9606296D02*
X16228572Y-9568201D01*
X16228572Y-9568201D02*
X16152382Y-9530105D01*
X16152382Y-9530105D02*
X16038096Y-9530105D01*
X16038096Y-9530105D02*
X15961905Y-9568201D01*
X15961905Y-9568201D02*
X15923810Y-9606296D01*
X15923810Y-9606296D02*
X15885715Y-9682486D01*
X15885715Y-9682486D02*
X15885715Y-9911058D01*
X15885715Y-9911058D02*
X15923810Y-9987248D01*
X15923810Y-9987248D02*
X15961905Y-10025344D01*
X15961905Y-10025344D02*
X16038096Y-10063439D01*
X16038096Y-10063439D02*
X16152382Y-10063439D01*
X15085714Y-10063439D02*
X15352381Y-9682486D01*
X15542857Y-10063439D02*
X15542857Y-9263439D01*
X15542857Y-9263439D02*
X15238095Y-9263439D01*
X15238095Y-9263439D02*
X15161905Y-9301534D01*
X15161905Y-9301534D02*
X15123810Y-9339629D01*
X15123810Y-9339629D02*
X15085714Y-9415820D01*
X15085714Y-9415820D02*
X15085714Y-9530105D01*
X15085714Y-9530105D02*
X15123810Y-9606296D01*
X15123810Y-9606296D02*
X15161905Y-9644391D01*
X15161905Y-9644391D02*
X15238095Y-9682486D01*
X15238095Y-9682486D02*
X15542857Y-9682486D01*
X14438095Y-10025344D02*
X14514286Y-10063439D01*
X14514286Y-10063439D02*
X14666667Y-10063439D01*
X14666667Y-10063439D02*
X14742857Y-10025344D01*
X14742857Y-10025344D02*
X14780953Y-9949153D01*
X14780953Y-9949153D02*
X14780953Y-9644391D01*
X14780953Y-9644391D02*
X14742857Y-9568201D01*
X14742857Y-9568201D02*
X14666667Y-9530105D01*
X14666667Y-9530105D02*
X14514286Y-9530105D01*
X14514286Y-9530105D02*
X14438095Y-9568201D01*
X14438095Y-9568201D02*
X14400000Y-9644391D01*
X14400000Y-9644391D02*
X14400000Y-9720582D01*
X14400000Y-9720582D02*
X14780953Y-9796772D01*
X13714286Y-10025344D02*
X13790477Y-10063439D01*
X13790477Y-10063439D02*
X13942858Y-10063439D01*
X13942858Y-10063439D02*
X14019048Y-10025344D01*
X14019048Y-10025344D02*
X14057143Y-9987248D01*
X14057143Y-9987248D02*
X14095239Y-9911058D01*
X14095239Y-9911058D02*
X14095239Y-9682486D01*
X14095239Y-9682486D02*
X14057143Y-9606296D01*
X14057143Y-9606296D02*
X14019048Y-9568201D01*
X14019048Y-9568201D02*
X13942858Y-9530105D01*
X13942858Y-9530105D02*
X13790477Y-9530105D01*
X13790477Y-9530105D02*
X13714286Y-9568201D01*
X13028572Y-10063439D02*
X13028572Y-9644391D01*
X13028572Y-9644391D02*
X13066667Y-9568201D01*
X13066667Y-9568201D02*
X13142858Y-9530105D01*
X13142858Y-9530105D02*
X13295239Y-9530105D01*
X13295239Y-9530105D02*
X13371429Y-9568201D01*
X13028572Y-10025344D02*
X13104763Y-10063439D01*
X13104763Y-10063439D02*
X13295239Y-10063439D01*
X13295239Y-10063439D02*
X13371429Y-10025344D01*
X13371429Y-10025344D02*
X13409525Y-9949153D01*
X13409525Y-9949153D02*
X13409525Y-9872963D01*
X13409525Y-9872963D02*
X13371429Y-9796772D01*
X13371429Y-9796772D02*
X13295239Y-9758677D01*
X13295239Y-9758677D02*
X13104763Y-9758677D01*
X13104763Y-9758677D02*
X13028572Y-9720582D01*
X12533334Y-10063439D02*
X12609524Y-10025344D01*
X12609524Y-10025344D02*
X12647619Y-9949153D01*
X12647619Y-9949153D02*
X12647619Y-9263439D01*
X12114286Y-10063439D02*
X12190476Y-10025344D01*
X12190476Y-10025344D02*
X12228571Y-9949153D01*
X12228571Y-9949153D02*
X12228571Y-9263439D01*
X11276190Y-9530105D02*
X11085714Y-10063439D01*
X11085714Y-10063439D02*
X10895237Y-9530105D01*
X10171428Y-10063439D02*
X10628571Y-10063439D01*
X10399999Y-10063439D02*
X10399999Y-9263439D01*
X10399999Y-9263439D02*
X10476190Y-9377724D01*
X10476190Y-9377724D02*
X10552380Y-9453915D01*
X10552380Y-9453915D02*
X10628571Y-9492010D01*
D11*
X17071428Y-8654299D02*
X17071428Y-7654299D01*
X17071428Y-7654299D02*
X16500000Y-8654299D01*
X16500000Y-8654299D02*
X16500000Y-7654299D01*
X16023809Y-8130489D02*
X15690476Y-8130489D01*
X15547619Y-8654299D02*
X16023809Y-8654299D01*
X16023809Y-8654299D02*
X16023809Y-7654299D01*
X16023809Y-7654299D02*
X15547619Y-7654299D01*
X14928571Y-7654299D02*
X14738095Y-7654299D01*
X14738095Y-7654299D02*
X14642857Y-7701918D01*
X14642857Y-7701918D02*
X14547619Y-7797156D01*
X14547619Y-7797156D02*
X14500000Y-7987632D01*
X14500000Y-7987632D02*
X14500000Y-8320965D01*
X14500000Y-8320965D02*
X14547619Y-8511441D01*
X14547619Y-8511441D02*
X14642857Y-8606680D01*
X14642857Y-8606680D02*
X14738095Y-8654299D01*
X14738095Y-8654299D02*
X14928571Y-8654299D01*
X14928571Y-8654299D02*
X15023809Y-8606680D01*
X15023809Y-8606680D02*
X15119047Y-8511441D01*
X15119047Y-8511441D02*
X15166666Y-8320965D01*
X15166666Y-8320965D02*
X15166666Y-7987632D01*
X15166666Y-7987632D02*
X15119047Y-7797156D01*
X15119047Y-7797156D02*
X15023809Y-7701918D01*
X15023809Y-7701918D02*
X14928571Y-7654299D01*
X13595238Y-8654299D02*
X14071428Y-8654299D01*
X14071428Y-8654299D02*
X14071428Y-7654299D01*
X13309523Y-8368584D02*
X12833333Y-8368584D01*
X13404761Y-8654299D02*
X13071428Y-7654299D01*
X13071428Y-7654299D02*
X12738095Y-8654299D01*
X12071428Y-8130489D02*
X11928571Y-8178108D01*
X11928571Y-8178108D02*
X11880952Y-8225727D01*
X11880952Y-8225727D02*
X11833333Y-8320965D01*
X11833333Y-8320965D02*
X11833333Y-8463822D01*
X11833333Y-8463822D02*
X11880952Y-8559060D01*
X11880952Y-8559060D02*
X11928571Y-8606680D01*
X11928571Y-8606680D02*
X12023809Y-8654299D01*
X12023809Y-8654299D02*
X12404761Y-8654299D01*
X12404761Y-8654299D02*
X12404761Y-7654299D01*
X12404761Y-7654299D02*
X12071428Y-7654299D01*
X12071428Y-7654299D02*
X11976190Y-7701918D01*
X11976190Y-7701918D02*
X11928571Y-7749537D01*
X11928571Y-7749537D02*
X11880952Y-7844775D01*
X11880952Y-7844775D02*
X11880952Y-7940013D01*
X11880952Y-7940013D02*
X11928571Y-8035251D01*
X11928571Y-8035251D02*
X11976190Y-8082870D01*
X11976190Y-8082870D02*
X12071428Y-8130489D01*
X12071428Y-8130489D02*
X12404761Y-8130489D01*
X11452380Y-8606680D02*
X11309523Y-8654299D01*
X11309523Y-8654299D02*
X11071428Y-8654299D01*
X11071428Y-8654299D02*
X10976190Y-8606680D01*
X10976190Y-8606680D02*
X10928571Y-8559060D01*
X10928571Y-8559060D02*
X10880952Y-8463822D01*
X10880952Y-8463822D02*
X10880952Y-8368584D01*
X10880952Y-8368584D02*
X10928571Y-8273346D01*
X10928571Y-8273346D02*
X10976190Y-8225727D01*
X10976190Y-8225727D02*
X11071428Y-8178108D01*
X11071428Y-8178108D02*
X11261904Y-8130489D01*
X11261904Y-8130489D02*
X11357142Y-8082870D01*
X11357142Y-8082870D02*
X11404761Y-8035251D01*
X11404761Y-8035251D02*
X11452380Y-7940013D01*
X11452380Y-7940013D02*
X11452380Y-7844775D01*
X11452380Y-7844775D02*
X11404761Y-7749537D01*
X11404761Y-7749537D02*
X11357142Y-7701918D01*
X11357142Y-7701918D02*
X11261904Y-7654299D01*
X11261904Y-7654299D02*
X11023809Y-7654299D01*
X11023809Y-7654299D02*
X10880952Y-7701918D01*
%LPC*%
D12*
%TO.C,MK2*%
X25708000Y-19000000D03*
%TD*%
%TO.C,MK1*%
X3000000Y-18292000D03*
%TD*%
D13*
%TO.C,R8*%
X2175000Y-24500000D03*
X3825000Y-24500000D03*
%TD*%
D14*
%TO.C,D1*%
X7000000Y-37050000D03*
X7000000Y-34950000D03*
%TD*%
D15*
%TO.C,J3*%
X23745000Y-24720000D03*
X23745000Y-25420000D03*
X23745000Y-26120000D03*
X23745000Y-26820000D03*
X23745000Y-28520000D03*
D16*
X18275000Y-33460000D03*
X22125000Y-33460000D03*
D17*
X17070000Y-33150000D03*
X23330000Y-33150000D03*
D15*
X23745000Y-29220000D03*
D17*
X17070000Y-22650000D03*
X23330000Y-22650000D03*
D16*
X18275000Y-22340000D03*
X22125000Y-22340000D03*
D15*
X23745000Y-30620000D03*
X23745000Y-31320000D03*
X23745000Y-29920000D03*
%TD*%
D18*
%TO.C,C3*%
X8725000Y-33500000D03*
X10275000Y-33500000D03*
%TD*%
D19*
%TO.C,U2*%
X14450000Y-31137500D03*
X13500000Y-31137500D03*
X12550000Y-31137500D03*
X12550000Y-28862500D03*
X13500000Y-28862500D03*
X14450000Y-28862500D03*
%TD*%
D12*
%TO.C,TP3*%
X25000000Y-13000000D03*
%TD*%
D20*
%TO.C,R25*%
X27000000Y-26325000D03*
X27000000Y-24675000D03*
%TD*%
%TO.C,R16*%
X4800000Y-17825000D03*
X4800000Y-16175000D03*
%TD*%
%TO.C,R22*%
X12000000Y-21325000D03*
X12000000Y-19675000D03*
%TD*%
D13*
%TO.C,R11*%
X21175000Y-15500000D03*
X22825000Y-15500000D03*
%TD*%
D21*
%TO.C,C23*%
X4820000Y-27300000D03*
X5780000Y-27300000D03*
%TD*%
D18*
%TO.C,C9*%
X8725000Y-15500000D03*
X10275000Y-15500000D03*
%TD*%
D22*
%TO.C,C22*%
X13500000Y-25575000D03*
X13500000Y-24025000D03*
%TD*%
D23*
%TO.C,R28*%
X25200000Y-24710000D03*
X25200000Y-23690000D03*
%TD*%
D13*
%TO.C,R7*%
X1675000Y-33500000D03*
X3325000Y-33500000D03*
%TD*%
D20*
%TO.C,R12*%
X7000000Y-12825000D03*
X7000000Y-11175000D03*
%TD*%
D12*
%TO.C,TP5*%
X25200000Y-16200000D03*
%TD*%
D22*
%TO.C,C8*%
X7000000Y-15775000D03*
X7000000Y-14225000D03*
%TD*%
D18*
%TO.C,C10*%
X12725000Y-14500000D03*
X14275000Y-14500000D03*
%TD*%
D13*
%TO.C,R13*%
X16675000Y-18000000D03*
X18325000Y-18000000D03*
%TD*%
D20*
%TO.C,R26*%
X27000000Y-23325000D03*
X27000000Y-21675000D03*
%TD*%
%TO.C,R23*%
X14000000Y-21325000D03*
X14000000Y-19675000D03*
%TD*%
D24*
%TO.C,C19*%
X22550000Y-36000000D03*
X24450000Y-36000000D03*
%TD*%
D20*
%TO.C,R32*%
X7500000Y-25625000D03*
X7500000Y-23975000D03*
%TD*%
D13*
%TO.C,R14*%
X18175000Y-16000000D03*
X19825000Y-16000000D03*
%TD*%
D20*
%TO.C,R29*%
X26300000Y-32325000D03*
X26300000Y-30675000D03*
%TD*%
%TO.C,R20*%
X8000000Y-21325000D03*
X8000000Y-19675000D03*
%TD*%
%TO.C,R27*%
X5500000Y-25325000D03*
X5500000Y-23675000D03*
%TD*%
D12*
%TO.C,TP4*%
X23000000Y-18000000D03*
%TD*%
D20*
%TO.C,R3*%
X5000000Y-36825000D03*
X5000000Y-35175000D03*
%TD*%
D13*
%TO.C,R6*%
X2175000Y-29500000D03*
X3825000Y-29500000D03*
%TD*%
%TO.C,R19*%
X21675000Y-20800000D03*
X23325000Y-20800000D03*
%TD*%
%TO.C,R10*%
X21175000Y-13500000D03*
X22825000Y-13500000D03*
%TD*%
D23*
%TO.C,R1*%
X14250000Y-17610000D03*
X14250000Y-16590000D03*
%TD*%
D20*
%TO.C,R21*%
X10000000Y-21325000D03*
X10000000Y-19675000D03*
%TD*%
%TO.C,R24*%
X26300000Y-29325000D03*
X26300000Y-27675000D03*
%TD*%
D22*
%TO.C,C11*%
X4800000Y-20775000D03*
X4800000Y-19225000D03*
%TD*%
D12*
%TO.C,TP1*%
X3000000Y-13000000D03*
%TD*%
D23*
%TO.C,R2*%
X12750000Y-17610000D03*
X12750000Y-16590000D03*
%TD*%
D18*
%TO.C,C2*%
X5025000Y-32000000D03*
X6575000Y-32000000D03*
%TD*%
D19*
%TO.C,U7*%
X11450000Y-25937500D03*
X10500000Y-25937500D03*
X9550000Y-25937500D03*
X9550000Y-23662500D03*
X10500000Y-23662500D03*
X11450000Y-23662500D03*
%TD*%
D22*
%TO.C,C18*%
X26300000Y-35275000D03*
X26300000Y-33725000D03*
%TD*%
D13*
%TO.C,R9*%
X1675000Y-26500000D03*
X3325000Y-26500000D03*
%TD*%
D22*
%TO.C,C1*%
X9000000Y-30775000D03*
X9000000Y-29225000D03*
%TD*%
D12*
%TO.C,TP2*%
X3000000Y-15000000D03*
%TD*%
D20*
%TO.C,R15*%
X4800000Y-14825000D03*
X4800000Y-13175000D03*
%TD*%
%LPD*%
M02*
