%TF.GenerationSoftware,KiCad,Pcbnew,10.0.4*%
%TF.CreationDate,2026-07-17T09:03:47+02:00*%
%TF.ProjectId,neorecall-wearable-v1,6e656f72-6563-4616-9c6c-2d7765617261,rev?*%
%TF.SameCoordinates,Original*%
%TF.FileFunction,Copper,L1,Top*%
%TF.FilePolarity,Positive*%
%FSLAX46Y46*%
G04 Gerber Fmt 4.6, Leading zero omitted, Abs format (unit mm)*
G04 Created by KiCad (PCBNEW 10.0.4) date 2026-07-17 09:03:47*
%MOMM*%
%LPD*%
G01*
G04 APERTURE LIST*
G04 Aperture macros list*
%AMRoundRect*
0 Rectangle with rounded corners*
0 $1 Rounding radius*
0 $2 $3 $4 $5 $6 $7 $8 $9 X,Y pos of 4 corners*
0 Add a 4 corners polygon primitive as box body*
4,1,4,$2,$3,$4,$5,$6,$7,$8,$9,$2,$3,0*
0 Add four circle primitives for the rounded corners*
1,1,$1+$1,$2,$3*
1,1,$1+$1,$4,$5*
1,1,$1+$1,$6,$7*
1,1,$1+$1,$8,$9*
0 Add four rect primitives between the rounded corners*
20,1,$1+$1,$2,$3,$4,$5,0*
20,1,$1+$1,$4,$5,$6,$7,0*
20,1,$1+$1,$6,$7,$8,$9,0*
20,1,$1+$1,$8,$9,$2,$3,0*%
G04 Aperture macros list end*
%TA.AperFunction,SMDPad,CuDef*%
%ADD10RoundRect,0.200000X-0.200000X-0.275000X0.200000X-0.275000X0.200000X0.275000X-0.200000X0.275000X0*%
%TD*%
%TA.AperFunction,SMDPad,CuDef*%
%ADD11RoundRect,0.250000X0.475000X-0.250000X0.475000X0.250000X-0.475000X0.250000X-0.475000X-0.250000X0*%
%TD*%
%TA.AperFunction,SMDPad,CuDef*%
%ADD12RoundRect,0.218750X-0.218750X-0.256250X0.218750X-0.256250X0.218750X0.256250X-0.218750X0.256250X0*%
%TD*%
%TA.AperFunction,SMDPad,CuDef*%
%ADD13RoundRect,0.078400X0.411600X1.621600X-0.411600X1.621600X-0.411600X-1.621600X0.411600X-1.621600X0*%
%TD*%
%TA.AperFunction,SMDPad,CuDef*%
%ADD14RoundRect,0.150000X0.150000X-0.512500X0.150000X0.512500X-0.150000X0.512500X-0.150000X-0.512500X0*%
%TD*%
%TA.AperFunction,SMDPad,CuDef*%
%ADD15RoundRect,0.225000X0.250000X-0.225000X0.250000X0.225000X-0.250000X0.225000X-0.250000X-0.225000X0*%
%TD*%
%TA.AperFunction,SMDPad,CuDef*%
%ADD16R,1.050000X0.650000*%
%TD*%
%TA.AperFunction,SMDPad,CuDef*%
%ADD17RoundRect,0.062640X-0.198360X-0.237360X0.198360X-0.237360X0.198360X0.237360X-0.198360X0.237360X0*%
%TD*%
%TA.AperFunction,SMDPad,CuDef*%
%ADD18RoundRect,0.060000X-0.090000X-0.090000X0.090000X-0.090000X0.090000X0.090000X-0.090000X0.090000X0*%
%TD*%
%TA.AperFunction,SMDPad,CuDef*%
%ADD19C,1.625000*%
%TD*%
%TA.AperFunction,SMDPad,CuDef*%
%ADD20RoundRect,0.150000X0.625000X-0.150000X0.625000X0.150000X-0.625000X0.150000X-0.625000X-0.150000X0*%
%TD*%
%TA.AperFunction,SMDPad,CuDef*%
%ADD21RoundRect,0.250000X0.650000X-0.350000X0.650000X0.350000X-0.650000X0.350000X-0.650000X-0.350000X0*%
%TD*%
%TA.AperFunction,SMDPad,CuDef*%
%ADD22RoundRect,0.048000X-0.352000X-0.152000X0.352000X-0.152000X0.352000X0.152000X-0.352000X0.152000X0*%
%TD*%
%TA.AperFunction,SMDPad,CuDef*%
%ADD23RoundRect,0.048000X-0.152000X-0.352000X0.152000X-0.352000X0.152000X0.352000X-0.152000X0.352000X0*%
%TD*%
%TA.AperFunction,SMDPad,CuDef*%
%ADD24RoundRect,0.116000X-0.609000X-0.609000X0.609000X-0.609000X0.609000X0.609000X-0.609000X0.609000X0*%
%TD*%
%TA.AperFunction,SMDPad,CuDef*%
%ADD25RoundRect,0.084000X-0.266000X-0.266000X0.266000X-0.266000X0.266000X0.266000X-0.266000X0.266000X0*%
%TD*%
%TA.AperFunction,SMDPad,CuDef*%
%ADD26RoundRect,0.062640X0.237360X-0.198360X0.237360X0.198360X-0.237360X0.198360X-0.237360X-0.198360X0*%
%TD*%
%TA.AperFunction,SMDPad,CuDef*%
%ADD27RoundRect,0.060000X0.090000X-0.090000X0.090000X0.090000X-0.090000X0.090000X-0.090000X-0.090000X0*%
%TD*%
%TA.AperFunction,SMDPad,CuDef*%
%ADD28RoundRect,0.100000X-0.637500X-0.100000X0.637500X-0.100000X0.637500X0.100000X-0.637500X0.100000X0*%
%TD*%
%TA.AperFunction,SMDPad,CuDef*%
%ADD29R,0.600000X1.000000*%
%TD*%
%TA.AperFunction,SMDPad,CuDef*%
%ADD30R,0.300000X1.000000*%
%TD*%
%TA.AperFunction,SMDPad,CuDef*%
%ADD31RoundRect,0.450000X-0.050000X-0.250000X0.050000X-0.250000X0.050000X0.250000X-0.050000X0.250000X0*%
%TD*%
%TA.AperFunction,SMDPad,CuDef*%
%ADD32RoundRect,0.450000X-0.050000X-0.450000X0.050000X-0.450000X0.050000X0.450000X-0.050000X0.450000X0*%
%TD*%
%TA.AperFunction,SMDPad,CuDef*%
%ADD33RoundRect,0.108000X-0.192000X-0.012000X0.192000X-0.012000X0.192000X0.012000X-0.192000X0.012000X0*%
%TD*%
%TA.AperFunction,SMDPad,CuDef*%
%ADD34R,1.580000X2.850000*%
%TD*%
%TA.AperFunction,SMDPad,CuDef*%
%ADD35RoundRect,0.062500X-0.375000X-0.062500X0.375000X-0.062500X0.375000X0.062500X-0.375000X0.062500X0*%
%TD*%
%TA.AperFunction,SMDPad,CuDef*%
%ADD36RoundRect,0.062500X-0.062500X-0.375000X0.062500X-0.375000X0.062500X0.375000X-0.062500X0.375000X0*%
%TD*%
%TA.AperFunction,HeatsinkPad*%
%ADD37R,1.450000X1.450000*%
%TD*%
%TA.AperFunction,ViaPad*%
%ADD38C,0.500000*%
%TD*%
%TA.AperFunction,ViaPad*%
%ADD39C,0.450000*%
%TD*%
%TA.AperFunction,Conductor*%
%ADD40C,0.300000*%
%TD*%
%TA.AperFunction,Conductor*%
%ADD41C,0.150000*%
%TD*%
%TA.AperFunction,Conductor*%
%ADD42C,0.250200*%
%TD*%
%TA.AperFunction,Conductor*%
%ADD43C,0.200000*%
%TD*%
%TA.AperFunction,Conductor*%
%ADD44C,0.240600*%
%TD*%
%TA.AperFunction,Conductor*%
%ADD45C,0.100000*%
%TD*%
G04 APERTURE END LIST*
D10*
%TO.P,R30,1*%
%TO.N,/3V3*%
X24675000Y-25000000D03*
%TO.P,R30,2*%
%TO.N,/BUCK_PG_N*%
X26325000Y-25000000D03*
%TD*%
D11*
%TO.P,C21,1*%
%TO.N,/3V3*%
X19000000Y-24950000D03*
%TO.P,C21,2*%
%TO.N,/GND*%
X19000000Y-23050000D03*
%TD*%
D12*
%TO.P,D2,1*%
%TO.N,/GND*%
X12212500Y-29100000D03*
%TO.P,D2,2*%
%TO.N,/RECORD_LED_A*%
X13787500Y-29100000D03*
%TD*%
D13*
%TO.P,L1,1*%
%TO.N,/BUCK_L1*%
X24185000Y-33300000D03*
%TO.P,L1,2*%
%TO.N,/BUCK_L2*%
X21815000Y-33300000D03*
%TD*%
D14*
%TO.P,U5,1*%
%TO.N,/3V3*%
X6050000Y-24137500D03*
%TO.P,U5,2*%
%TO.N,/GND*%
X7000000Y-24137500D03*
%TO.P,U5,3*%
%TO.N,/MIC_POWER_EN*%
X7950000Y-24137500D03*
%TO.P,U5,4*%
%TO.N,unconnected-(U5-NC-Pad4)*%
X7950000Y-21862500D03*
%TO.P,U5,5*%
%TO.N,/1V85*%
X6050000Y-21862500D03*
%TD*%
D15*
%TO.P,C6,1*%
%TO.N,/SYS_RAW*%
X21000000Y-25375000D03*
%TO.P,C6,2*%
%TO.N,/GND*%
X21000000Y-23825000D03*
%TD*%
D10*
%TO.P,R18,1*%
%TO.N,/3V3*%
X19175000Y-18700000D03*
%TO.P,R18,2*%
%TO.N,/CHARGE_LED_A*%
X20825000Y-18700000D03*
%TD*%
D12*
%TO.P,D3,1*%
%TO.N,/CHARGER_CHG_N*%
X19212500Y-20200000D03*
%TO.P,D3,2*%
%TO.N,/CHARGE_LED_A*%
X20787500Y-20200000D03*
%TD*%
D15*
%TO.P,C13,1*%
%TO.N,/1V85*%
X4200000Y-26275000D03*
%TO.P,C13,2*%
%TO.N,/GND*%
X4200000Y-24725000D03*
%TD*%
D16*
%TO.P,SW1,1*%
%TO.N,/USER_BUTTON*%
X11925000Y-17925000D03*
X16075000Y-17925000D03*
%TO.P,SW1,2*%
%TO.N,/GND*%
X11925000Y-20075000D03*
X16075000Y-20075000D03*
%TD*%
D15*
%TO.P,C14,1*%
%TO.N,/3V3*%
X9500000Y-19275000D03*
%TO.P,C14,2*%
%TO.N,/GND*%
X9500000Y-17725000D03*
%TD*%
%TO.P,C4,1*%
%TO.N,/SYS_RAW*%
X26500000Y-28075000D03*
%TO.P,C4,2*%
%TO.N,/GND*%
X26500000Y-26525000D03*
%TD*%
D17*
%TO.P,MK2,1*%
%TO.N,/I2S_WS_1V85*%
X23636000Y-18100000D03*
D18*
%TO.P,MK2,2*%
%TO.N,/1V85*%
X24456000Y-18100000D03*
D19*
%TO.P,MK2,3*%
%TO.N,/GND*%
X25708000Y-19000000D03*
D18*
%TO.P,MK2,4*%
X26473000Y-17950000D03*
%TO.P,MK2,5*%
%TO.N,unconnected-(MK2-THSEL-Pad5)*%
X26473000Y-20050000D03*
D17*
%TO.P,MK2,6*%
%TO.N,/I2S_BCLK_1V85*%
X24456000Y-19900000D03*
%TO.P,MK2,7*%
%TO.N,/1V85*%
X23636000Y-19900000D03*
%TO.P,MK2,8*%
%TO.N,/I2S_SD_1V85*%
X23636000Y-19000000D03*
%TD*%
D15*
%TO.P,C5,1*%
%TO.N,/SYS_RAW*%
X26500000Y-31175000D03*
%TO.P,C5,2*%
%TO.N,/GND*%
X26500000Y-29625000D03*
%TD*%
D11*
%TO.P,C20,1*%
%TO.N,/3V3*%
X16600000Y-29450000D03*
%TO.P,C20,2*%
%TO.N,/GND*%
X16600000Y-27550000D03*
%TD*%
D20*
%TO.P,J2,1*%
%TO.N,/BAT_PLUS*%
X1200000Y-36200000D03*
%TO.P,J2,2*%
%TO.N,/BQ_TS*%
X1200000Y-35200000D03*
%TO.P,J2,3*%
%TO.N,/GND*%
X1200000Y-34200000D03*
D21*
%TO.P,J2,MP*%
%TO.N,N/C*%
X5075000Y-37500000D03*
X5075000Y-32900000D03*
%TD*%
D11*
%TO.P,C7,1*%
%TO.N,/3V3*%
X19100000Y-28550000D03*
%TO.P,C7,2*%
%TO.N,/GND*%
X19100000Y-26650000D03*
%TD*%
D15*
%TO.P,C15,1*%
%TO.N,/1V85*%
X9000000Y-27575000D03*
%TO.P,C15,2*%
%TO.N,/GND*%
X9000000Y-26025000D03*
%TD*%
D22*
%TO.P,U1,1*%
%TO.N,/GND*%
X8100000Y-6900000D03*
%TO.P,U1,2*%
X8100000Y-7700000D03*
%TO.P,U1,3*%
%TO.N,/3V3*%
X8100000Y-8500000D03*
%TO.P,U1,4*%
%TO.N,unconnected-(U1-NC-Pad4)*%
X8100000Y-9300000D03*
%TO.P,U1,5*%
%TO.N,/I2S_SD_3V3*%
X8100000Y-10100000D03*
%TO.P,U1,6*%
%TO.N,/I2S_BCLK_3V3*%
X8100000Y-10900000D03*
%TO.P,U1,7*%
%TO.N,unconnected-(U1-NC-Pad7)*%
X8100000Y-11700000D03*
%TO.P,U1,8*%
%TO.N,/ESP_EN*%
X8100000Y-12500000D03*
%TO.P,U1,9*%
%TO.N,/BAT_SENSE*%
X8100000Y-13300000D03*
%TO.P,U1,10*%
%TO.N,/SD_MISO_MCU*%
X8100000Y-14100000D03*
%TO.P,U1,11*%
%TO.N,/GND*%
X8100000Y-14900000D03*
D23*
%TO.P,U1,12*%
%TO.N,/USER_BUTTON*%
X9200000Y-15800000D03*
%TO.P,U1,13*%
%TO.N,/I2S_WS_3V3*%
X10000000Y-15800000D03*
%TO.P,U1,14*%
%TO.N,/GND*%
X10800000Y-15800000D03*
%TO.P,U1,15*%
%TO.N,/SD_CLK_MCU*%
X11600000Y-15800000D03*
%TO.P,U1,16*%
%TO.N,/SD_MOSI_MCU*%
X12400000Y-15800000D03*
%TO.P,U1,17*%
%TO.N,/USB_DM*%
X13200000Y-15800000D03*
%TO.P,U1,18*%
%TO.N,/USB_DP*%
X14000000Y-15800000D03*
%TO.P,U1,19*%
%TO.N,unconnected-(U1-GPIO14-Pad19)*%
X14800000Y-15800000D03*
%TO.P,U1,20*%
%TO.N,/SD_POWER_EN*%
X15600000Y-15800000D03*
%TO.P,U1,21*%
%TO.N,unconnected-(U1-NC-Pad21)*%
X16400000Y-15800000D03*
%TO.P,U1,22*%
%TO.N,/GPIO8_STRAP*%
X17200000Y-15800000D03*
%TO.P,U1,23*%
%TO.N,/USER_BUTTON*%
X18000000Y-15800000D03*
%TO.P,U1,24*%
%TO.N,/SD_CS_MCU*%
X18800000Y-15800000D03*
D22*
%TO.P,U1,25*%
%TO.N,/SD_CARD_DETECT*%
X19900000Y-14900000D03*
%TO.P,U1,26*%
%TO.N,/CHARGER_PGOOD_N*%
X19900000Y-14100000D03*
%TO.P,U1,27*%
%TO.N,/CHARGER_CHG_N*%
X19900000Y-13300000D03*
%TO.P,U1,28*%
%TO.N,/BUCK_PG_N*%
X19900000Y-12500000D03*
%TO.P,U1,29*%
%TO.N,/MIC_POWER_EN*%
X19900000Y-11700000D03*
%TO.P,U1,30*%
%TO.N,/UART_RX*%
X19900000Y-10900000D03*
%TO.P,U1,31*%
%TO.N,/UART_TX*%
X19900000Y-10100000D03*
%TO.P,U1,32*%
%TO.N,unconnected-(U1-NC-Pad32)*%
X19900000Y-9300000D03*
%TO.P,U1,33*%
%TO.N,unconnected-(U1-NC-Pad33)*%
X19900000Y-8500000D03*
%TO.P,U1,34*%
%TO.N,unconnected-(U1-NC-Pad34)*%
X19900000Y-7700000D03*
%TO.P,U1,35*%
%TO.N,unconnected-(U1-NC-Pad35)*%
X19900000Y-6900000D03*
D23*
%TO.P,U1,36*%
%TO.N,/GND*%
X18800000Y-6000000D03*
%TO.P,U1,37*%
X18000000Y-6000000D03*
%TO.P,U1,38*%
X17200000Y-6000000D03*
%TO.P,U1,39*%
X16400000Y-6000000D03*
%TO.P,U1,40*%
X15600000Y-6000000D03*
%TO.P,U1,41*%
X14800000Y-6000000D03*
%TO.P,U1,42*%
X14000000Y-6000000D03*
%TO.P,U1,43*%
X13200000Y-6000000D03*
%TO.P,U1,44*%
X12400000Y-6000000D03*
%TO.P,U1,45*%
X11600000Y-6000000D03*
%TO.P,U1,46*%
X10800000Y-6000000D03*
%TO.P,U1,47*%
X10000000Y-6000000D03*
%TO.P,U1,48*%
X9200000Y-6000000D03*
D24*
%TO.P,U1,49*%
X12025000Y-8925000D03*
X12025000Y-10900000D03*
X12025000Y-12875000D03*
X14000000Y-8925000D03*
X14000000Y-10900000D03*
X14000000Y-12875000D03*
X15975000Y-8925000D03*
X15975000Y-10900000D03*
X15975000Y-12875000D03*
D25*
%TO.P,U1,50*%
X19950000Y-5950000D03*
%TO.P,U1,51*%
X19950000Y-15850000D03*
%TO.P,U1,52*%
X8050000Y-15850000D03*
%TO.P,U1,53*%
X8050000Y-5950000D03*
%TD*%
D10*
%TO.P,R4,1*%
%TO.N,/USB_CC2*%
X25675000Y-36500000D03*
%TO.P,R4,2*%
%TO.N,/GND*%
X27325000Y-36500000D03*
%TD*%
D26*
%TO.P,MK1,1*%
%TO.N,/I2S_WS_1V85*%
X2100000Y-20364000D03*
D27*
%TO.P,MK1,2*%
%TO.N,/GND*%
X2100000Y-19544000D03*
D19*
%TO.P,MK1,3*%
X3000000Y-18292000D03*
D27*
%TO.P,MK1,4*%
X1950000Y-17527000D03*
%TO.P,MK1,5*%
%TO.N,unconnected-(MK1-THSEL-Pad5)*%
X4050000Y-17527000D03*
D26*
%TO.P,MK1,6*%
%TO.N,/I2S_BCLK_1V85*%
X3900000Y-19544000D03*
%TO.P,MK1,7*%
%TO.N,/1V85*%
X3900000Y-20364000D03*
%TO.P,MK1,8*%
%TO.N,/I2S_SD_1V85*%
X3000000Y-20364000D03*
%TD*%
D15*
%TO.P,C17,1*%
%TO.N,/1V85*%
X23500000Y-23275000D03*
%TO.P,C17,2*%
%TO.N,/GND*%
X23500000Y-21725000D03*
%TD*%
D28*
%TO.P,U6,1*%
%TO.N,/3V3*%
X11137500Y-21850000D03*
%TO.P,U6,2*%
%TO.N,/I2S_BCLK_3V3*%
X11137500Y-22500000D03*
%TO.P,U6,3*%
%TO.N,/I2S_WS_3V3*%
X11137500Y-23150000D03*
%TO.P,U6,4*%
%TO.N,/GND*%
X11137500Y-23800000D03*
%TO.P,U6,5*%
%TO.N,/I2S_SD_3V3*%
X11137500Y-24450000D03*
%TO.P,U6,6*%
%TO.N,unconnected-(U6-NC-Pad6)*%
X11137500Y-25100000D03*
%TO.P,U6,7*%
%TO.N,/GND*%
X11137500Y-25750000D03*
%TO.P,U6,8*%
%TO.N,/MIC_POWER_EN*%
X16862500Y-25750000D03*
%TO.P,U6,9*%
%TO.N,unconnected-(U6-NC-Pad9)*%
X16862500Y-25100000D03*
%TO.P,U6,10*%
%TO.N,/I2S_SD_1V85*%
X16862500Y-24450000D03*
%TO.P,U6,11*%
%TO.N,unconnected-(U6-B3Y-Pad11)*%
X16862500Y-23800000D03*
%TO.P,U6,12*%
%TO.N,/I2S_WS_1V85*%
X16862500Y-23150000D03*
%TO.P,U6,13*%
%TO.N,/I2S_BCLK_1V85*%
X16862500Y-22500000D03*
%TO.P,U6,14*%
%TO.N,/1V85*%
X16862500Y-21850000D03*
%TD*%
D29*
%TO.P,J1,A1_B12*%
%TO.N,/GND*%
X10800000Y-31700000D03*
%TO.P,J1,A4_B9*%
%TO.N,/VBUS_USB*%
X11600000Y-31700000D03*
D30*
%TO.P,J1,A5*%
%TO.N,/USB_CC1*%
X12750000Y-31700000D03*
%TO.P,J1,A6*%
%TO.N,/USB_DP_CONN*%
X13750000Y-31700000D03*
%TO.P,J1,A7*%
%TO.N,/USB_DM_CONN*%
X14250000Y-31700000D03*
%TO.P,J1,A8*%
%TO.N,unconnected-(J1-SBU1-PadA8)*%
X15750000Y-31700000D03*
D29*
%TO.P,J1,B1_A12*%
%TO.N,/GND*%
X17200000Y-31700000D03*
%TO.P,J1,B4_A9*%
%TO.N,/VBUS_USB*%
X16400000Y-31700000D03*
D30*
%TO.P,J1,B5*%
%TO.N,/USB_CC2*%
X15250000Y-31700000D03*
%TO.P,J1,B6*%
%TO.N,/USB_DP_CONN*%
X14750000Y-31700000D03*
%TO.P,J1,B7*%
%TO.N,/USB_DM_CONN*%
X13250000Y-31700000D03*
%TO.P,J1,B8*%
%TO.N,unconnected-(J1-SBU2-PadB8)*%
X12250000Y-31700000D03*
D31*
%TO.P,J1,S1*%
%TO.N,/GND*%
X9400000Y-33100000D03*
%TO.P,J1,S2*%
X18600000Y-33100000D03*
D32*
%TO.P,J1,S3*%
X9400000Y-37100000D03*
%TO.P,J1,S4*%
X18600000Y-37100000D03*
%TD*%
D33*
%TO.P,U4,1*%
%TO.N,/SYS_RAW*%
X21350000Y-27200000D03*
%TO.P,U4,2*%
%TO.N,/GND*%
X21350000Y-27700000D03*
%TO.P,U4,3*%
%TO.N,/3V3*%
X21350000Y-28200000D03*
%TO.P,U4,4*%
X21350000Y-28700000D03*
%TO.P,U4,5*%
X21350000Y-29200000D03*
%TO.P,U4,6*%
%TO.N,/BUCK_L2*%
X21350000Y-29700000D03*
%TO.P,U4,7*%
X21350000Y-30200000D03*
%TO.P,U4,8*%
%TO.N,/BUCK_L1*%
X24650000Y-30200000D03*
%TO.P,U4,9*%
X24650000Y-29700000D03*
%TO.P,U4,10*%
%TO.N,/SYS_RAW*%
X24650000Y-29200000D03*
%TO.P,U4,11*%
X24650000Y-28700000D03*
%TO.P,U4,12*%
X24650000Y-28200000D03*
%TO.P,U4,13*%
%TO.N,/GND*%
X24650000Y-27700000D03*
%TO.P,U4,14*%
%TO.N,/BUCK_PG_N*%
X24650000Y-27200000D03*
D34*
%TO.P,U4,15*%
%TO.N,/GND*%
X23000000Y-28700000D03*
%TD*%
D35*
%TO.P,U3,1*%
%TO.N,/BQ_TS*%
X4562500Y-28750000D03*
%TO.P,U3,2*%
%TO.N,/BAT_PLUS*%
X4562500Y-29250000D03*
%TO.P,U3,3*%
X4562500Y-29750000D03*
%TO.P,U3,4*%
%TO.N,/GND*%
X4562500Y-30250000D03*
D36*
%TO.P,U3,5*%
X5250000Y-30937500D03*
%TO.P,U3,6*%
%TO.N,/VBUS_USB*%
X5750000Y-30937500D03*
%TO.P,U3,7*%
%TO.N,/CHARGER_PGOOD_N*%
X6250000Y-30937500D03*
%TO.P,U3,8*%
%TO.N,/GND*%
X6750000Y-30937500D03*
D35*
%TO.P,U3,9*%
%TO.N,/CHARGER_CHG_N*%
X7437500Y-30250000D03*
%TO.P,U3,10*%
%TO.N,/SYS_RAW*%
X7437500Y-29750000D03*
%TO.P,U3,11*%
X7437500Y-29250000D03*
%TO.P,U3,12*%
%TO.N,/BQ_ILIM*%
X7437500Y-28750000D03*
D36*
%TO.P,U3,13*%
%TO.N,/VBUS_USB*%
X6750000Y-28062500D03*
%TO.P,U3,14*%
%TO.N,/BQ_TMR*%
X6250000Y-28062500D03*
%TO.P,U3,15*%
%TO.N,/BQ_ITERM*%
X5750000Y-28062500D03*
%TO.P,U3,16*%
%TO.N,/BQ_ISET*%
X5250000Y-28062500D03*
D37*
%TO.P,U3,17*%
%TO.N,/GND*%
X6000000Y-29500000D03*
%TD*%
D10*
%TO.P,R31,1*%
%TO.N,/MIC_POWER_EN*%
X22675000Y-14500000D03*
%TO.P,R31,2*%
%TO.N,/GND*%
X24325000Y-14500000D03*
%TD*%
%TO.P,R17,1*%
%TO.N,/MIC_POWER_EN*%
X12175000Y-27500000D03*
%TO.P,R17,2*%
%TO.N,/RECORD_LED_A*%
X13825000Y-27500000D03*
%TD*%
D15*
%TO.P,C16,1*%
%TO.N,/1V85*%
X2500000Y-23275000D03*
%TO.P,C16,2*%
%TO.N,/GND*%
X2500000Y-21725000D03*
%TD*%
%TO.P,C12,1*%
%TO.N,/3V3*%
X4200000Y-23275000D03*
%TO.P,C12,2*%
%TO.N,/GND*%
X4200000Y-21725000D03*
%TD*%
D38*
%TO.N,/3V3*%
X7652000Y-18813700D03*
X7053900Y-9793700D03*
X16778600Y-18879800D03*
X20407600Y-32814900D03*
X15289700Y-27904300D03*
X25181300Y-21564300D03*
X25426400Y-32814900D03*
D39*
%TO.N,/BUCK_PG_N*%
X19167900Y-12500100D03*
X26960800Y-12500100D03*
D38*
%TO.N,/GND*%
X16766700Y-34254500D03*
X2500000Y-33863100D03*
X20129700Y-21844600D03*
X1827800Y-16961500D03*
X25318900Y-34786200D03*
X7314500Y-31079500D03*
X11000000Y-27651600D03*
D39*
%TO.N,/MIC_POWER_EN*%
X12888300Y-22117400D03*
X7819900Y-23134300D03*
X14549500Y-24077400D03*
X23408000Y-14853800D03*
D38*
%TO.N,/1V85*%
X5750900Y-14048100D03*
X21039100Y-21566600D03*
X15592400Y-14518000D03*
X16255200Y-21242700D03*
%TO.N,/SYS_RAW*%
X25414700Y-33910200D03*
X21350000Y-26346800D03*
X9698300Y-31917800D03*
D39*
%TO.N,/CHARGER_CHG_N*%
X7839500Y-31884100D03*
X21711200Y-14366200D03*
X17888400Y-19083800D03*
%TO.N,/USER_BUTTON*%
X17715800Y-17357300D03*
%TO.N,/I2S_WS_1V85*%
X17089300Y-21020300D03*
X22574700Y-18823100D03*
X614000Y-16752500D03*
%TO.N,/I2S_BCLK_1V85*%
X24829300Y-20608800D03*
X7269700Y-22767200D03*
X15726100Y-23798300D03*
X15738500Y-21984900D03*
X6003400Y-18731000D03*
%TO.N,/I2S_SD_1V85*%
X1293000Y-14825300D03*
X14003300Y-22421000D03*
X22563000Y-19630900D03*
D38*
%TO.N,/BAT_PLUS*%
X5991900Y-16374100D03*
X3640000Y-30723100D03*
D39*
%TO.N,/I2S_SD_3V3*%
X8913300Y-23699100D03*
X6155300Y-17504000D03*
%TO.N,/I2S_BCLK_3V3*%
X9142600Y-16807200D03*
X8866100Y-20261000D03*
X6185300Y-15478700D03*
%TO.N,/ESP_EN*%
X6142000Y-12585200D03*
X25000000Y-11932900D03*
%TO.N,/BAT_SENSE*%
X4749500Y-13915900D03*
X7053900Y-12000000D03*
%TO.N,/SD_MISO_MCU*%
X12601700Y-18778700D03*
%TO.N,/I2S_WS_3V3*%
X7117700Y-19675600D03*
X9179500Y-21196900D03*
%TO.N,/SD_CLK_MCU*%
X11079500Y-17019900D03*
%TO.N,/SD_MOSI_MCU*%
X7787800Y-17376700D03*
X12191100Y-17185600D03*
%TO.N,/USB_DM*%
X12097000Y-16590000D03*
%TO.N,/USB_DP*%
X13707100Y-17022200D03*
%TO.N,/SD_POWER_EN*%
X12602700Y-26026800D03*
X9859100Y-26935400D03*
X14030400Y-20476600D03*
X14795200Y-17129800D03*
%TO.N,/GPIO8_STRAP*%
X17230900Y-16770600D03*
%TO.N,/SD_CS_MCU*%
X14627800Y-20697200D03*
X19057600Y-17830700D03*
%TO.N,/SD_CARD_DETECT*%
X26555000Y-13053500D03*
X19114900Y-13053500D03*
%TO.N,/CHARGER_PGOOD_N*%
X22091300Y-15159500D03*
X5715200Y-33834800D03*
X19167900Y-14263800D03*
%TO.N,/UART_RX*%
X19174400Y-11233600D03*
X3869300Y-13001700D03*
%TO.N,/UART_TX*%
X18339100Y-13160000D03*
X5609300Y-13160000D03*
D38*
%TO.N,/VBUS_USB*%
X11721900Y-30503600D03*
X6811300Y-33043600D03*
X7310100Y-27691000D03*
X11600000Y-32626200D03*
D39*
%TO.N,/USB_CC1*%
X13626900Y-26614900D03*
X5944800Y-35373200D03*
%TO.N,/USB_DP_CONN*%
X14808400Y-30133900D03*
%TO.N,/USB_DM_CONN*%
X13912700Y-30139200D03*
%TO.N,/BQ_ILIM*%
X7690300Y-28297200D03*
X3836000Y-28406500D03*
%TO.N,/BQ_TMR*%
X1672700Y-27766700D03*
%TO.N,/BQ_ITERM*%
X3862200Y-27591100D03*
%TO.N,/BQ_ISET*%
X1039700Y-28000000D03*
%TO.N,/SD_CS_CARD*%
X13291100Y-22851000D03*
X22931600Y-25137600D03*
%TO.N,/SD_MOSI_CARD*%
X25394000Y-27140700D03*
X20630600Y-17037300D03*
X24501000Y-17108700D03*
X11046900Y-18749800D03*
X27063400Y-25420200D03*
D38*
%TO.N,/SD_3V3*%
X15676900Y-25377500D03*
X6098300Y-26535800D03*
D39*
%TO.N,/SD_CLK_CARD*%
X21994700Y-23727200D03*
X7392200Y-20293700D03*
%TO.N,/SD_MISO_CARD*%
X11315700Y-20777900D03*
X26556500Y-20885000D03*
X25184200Y-31217000D03*
%TO.N,/SD_DAT1_UNUSED*%
X24717700Y-30892000D03*
X5594300Y-22916000D03*
%TO.N,/USB_DM_ESD*%
X10070000Y-22279400D03*
X11367200Y-28862500D03*
%TO.N,/USB_DP_ESD*%
X14798400Y-25804200D03*
X14590500Y-27595700D03*
%TO.N,/SD_SLEW_CT*%
X9070200Y-22791000D03*
X4555700Y-28155100D03*
%TD*%
%TO.N,/3V3*%
D40*
X17101300Y-18557100D02*
X16778600Y-18879800D01*
X9500000Y-19467100D02*
X9500000Y-19275000D01*
X25181300Y-21564300D02*
X25181300Y-23693700D01*
X5187500Y-23275000D02*
X4200000Y-23275000D01*
X16600000Y-29450000D02*
X16600000Y-29214600D01*
X16600000Y-29214600D02*
X15289700Y-27904300D01*
X8219900Y-19467100D02*
X7652000Y-18899200D01*
X25181300Y-23693700D02*
X24275000Y-24600000D01*
X6840800Y-21591600D02*
X8142000Y-20290400D01*
X20441900Y-24600000D02*
X24275000Y-24600000D01*
X20407600Y-28550000D02*
X20144000Y-28550000D01*
X18200000Y-29450000D02*
X16600000Y-29450000D01*
X5586000Y-23673400D02*
X6793400Y-22466000D01*
X24275000Y-24600000D02*
X24675000Y-25000000D01*
X20407600Y-32814900D02*
X20407600Y-28550000D01*
X19603000Y-25438900D02*
X19488900Y-25438900D01*
X19100000Y-28550000D02*
X18200000Y-29450000D01*
X7053900Y-9283500D02*
X7053900Y-9793700D01*
X8142000Y-20073000D02*
X8219900Y-19995100D01*
X6793400Y-22466000D02*
X6793400Y-22145400D01*
X7837400Y-8500000D02*
X7053900Y-9283500D01*
X20144000Y-28550000D02*
X19100000Y-28550000D01*
X8142000Y-20290400D02*
X8142000Y-20073000D01*
X8100000Y-8500000D02*
X7837400Y-8500000D01*
X19603000Y-25438900D02*
X20441900Y-24600000D01*
X6840800Y-22098000D02*
X6840800Y-21591600D01*
X19175000Y-18700000D02*
X19032100Y-18557100D01*
X21350000Y-28550000D02*
X20407600Y-28550000D01*
X21350000Y-28550000D02*
X21350000Y-28200000D01*
X6050000Y-24137500D02*
X5586000Y-23673400D01*
X9500000Y-19467100D02*
X8219900Y-19467100D01*
X20144000Y-28550000D02*
X20144000Y-25979900D01*
X19488900Y-25438900D02*
X19000000Y-24950000D01*
X21350000Y-29200000D02*
X21350000Y-28700000D01*
X20144000Y-25979900D02*
X19603000Y-25438900D01*
X9500000Y-20212500D02*
X9500000Y-19467100D01*
X5586000Y-23673400D02*
X5187500Y-23275000D01*
X21350000Y-28700000D02*
X21350000Y-28550000D01*
X19032100Y-18557100D02*
X17101300Y-18557100D01*
X7652000Y-18899200D02*
X7652000Y-18813700D01*
X6793400Y-22145400D02*
X6840800Y-22098000D01*
X8219900Y-19995100D02*
X8219900Y-19467100D01*
X11137500Y-21850000D02*
X9500000Y-20212500D01*
%TO.N,/BUCK_PG_N*%
D41*
X26960800Y-24364200D02*
X26960800Y-12500100D01*
X19900000Y-12500000D02*
X19167900Y-12500000D01*
X26325000Y-25000000D02*
X26960800Y-24364200D01*
X24650000Y-27200000D02*
X26325000Y-25525000D01*
X19167900Y-12500000D02*
X19167900Y-12500100D01*
X26325000Y-25525000D02*
X26325000Y-25000000D01*
%TO.N,/GND*%
D40*
X11137500Y-25750000D02*
X11000000Y-25887500D01*
X27325000Y-34786200D02*
X25318900Y-34786200D01*
X16075000Y-20075000D02*
X15248300Y-20075000D01*
X8050000Y-15850000D02*
X8100000Y-15800000D01*
X8050000Y-6850000D02*
X8100000Y-6900000D01*
X19000000Y-22173300D02*
X19000000Y-23050000D01*
X26500000Y-26525000D02*
X27298900Y-27323900D01*
X8100000Y-15589100D02*
X8100000Y-14900000D01*
X12400000Y-6000000D02*
X13200000Y-6000000D01*
X9400000Y-37100000D02*
X9400000Y-33100000D01*
X6000000Y-29500000D02*
X6000000Y-29700100D01*
X9000000Y-26025000D02*
X8526300Y-26025000D01*
X11137500Y-23800000D02*
X11853100Y-23800000D01*
X12212500Y-28864100D02*
X11000000Y-27651600D01*
X5250000Y-30175400D02*
X5250000Y-30250000D01*
X12025000Y-10900000D02*
X12025000Y-12875000D01*
X19100000Y-26650000D02*
X17945600Y-26650000D01*
X12025000Y-10900000D02*
X12025000Y-8925000D01*
X20000000Y-22968800D02*
X20856200Y-23825000D01*
X18000000Y-6000000D02*
X18800000Y-6000000D01*
X2100000Y-19544000D02*
X1880900Y-19324900D01*
X5737400Y-29700100D02*
X5262100Y-30175400D01*
X17200000Y-6000000D02*
X18000000Y-6000000D01*
X10800000Y-14100000D02*
X10800000Y-15800000D01*
X18850000Y-5950000D02*
X18800000Y-6000000D01*
D42*
X6720800Y-30420900D02*
X6720800Y-30675400D01*
D40*
X19950000Y-5950000D02*
X18850000Y-5950000D01*
X8100000Y-15589100D02*
X8100000Y-16509300D01*
X23000000Y-28700000D02*
X23920600Y-27779400D01*
X27325000Y-34786200D02*
X27325000Y-30450000D01*
X10800000Y-32501700D02*
X9998300Y-32501700D01*
X7314500Y-31079500D02*
X6892000Y-31079500D01*
X15123200Y-19949900D02*
X12876800Y-19949900D01*
X17200000Y-31700000D02*
X17200000Y-32100800D01*
X17200000Y-33100000D02*
X17200000Y-33821200D01*
X9200000Y-6000000D02*
X9000000Y-6000000D01*
X17200000Y-32100800D02*
X17200000Y-33100000D01*
X13200000Y-6000000D02*
X14000000Y-6000000D01*
X9315700Y-17725000D02*
X9500000Y-17725000D01*
X4608000Y-25133000D02*
X4200000Y-24725000D01*
X1950000Y-17527000D02*
X1950000Y-17083700D01*
X19850000Y-15850000D02*
X19950000Y-15850000D01*
X12400000Y-8550000D02*
X12400000Y-6000000D01*
X25579500Y-27700000D02*
X26500000Y-26779500D01*
X24650000Y-27700000D02*
X25579500Y-27700000D01*
X20129700Y-21844600D02*
X20000000Y-21844600D01*
D43*
X26473000Y-17950000D02*
X25708000Y-19000000D01*
D40*
X6000000Y-29700100D02*
X6573100Y-30273200D01*
X12025000Y-12875000D02*
X10800000Y-14100000D01*
X11853100Y-23800000D02*
X12226000Y-24172900D01*
X15975000Y-8925000D02*
X15975000Y-6425000D01*
X18600000Y-33100000D02*
X17200000Y-33100000D01*
X26473000Y-17950000D02*
X24325000Y-15802000D01*
D44*
X24189100Y-27700000D02*
X24109700Y-27779400D01*
D40*
X14000000Y-12875000D02*
X14000000Y-10900000D01*
X9000000Y-6000000D02*
X8100000Y-6900000D01*
X16431400Y-20075000D02*
X16075000Y-20075000D01*
X27298900Y-27323900D02*
X27298900Y-28826100D01*
X11511700Y-19959300D02*
X11511700Y-20075000D01*
X8100000Y-16509300D02*
X9315700Y-17725000D01*
X15975000Y-12875000D02*
X15975000Y-10900000D01*
X19918800Y-23050000D02*
X19000000Y-23050000D01*
X15248300Y-20075000D02*
X15123200Y-19949900D01*
X6750000Y-30704600D02*
X6750000Y-30937500D01*
X20000000Y-15900000D02*
X24227000Y-15900000D01*
X6892000Y-31079500D02*
X6750000Y-30937500D01*
D43*
X1950000Y-17527000D02*
X3000000Y-18292000D01*
D40*
X26500000Y-26779500D02*
X26500000Y-26525000D01*
X27325000Y-36500000D02*
X27325000Y-34786200D01*
X4200000Y-24725000D02*
X3403100Y-23928100D01*
X11000000Y-26025000D02*
X9000000Y-26025000D01*
X14000000Y-10900000D02*
X14000000Y-8925000D01*
D44*
X21890300Y-27779400D02*
X21810900Y-27700000D01*
D40*
X23920600Y-27779400D02*
X24109700Y-27779400D01*
X9500000Y-17947600D02*
X11511700Y-19959300D01*
X14000000Y-6000000D02*
X14800000Y-6000000D01*
X5250000Y-30250000D02*
X5250000Y-30937500D01*
X16901700Y-20075000D02*
X19000000Y-22173300D01*
X11000000Y-25887500D02*
X11000000Y-26025000D01*
X10800000Y-31989300D02*
X10800000Y-32501700D01*
X10800000Y-6000000D02*
X11600000Y-6000000D01*
X11925000Y-20075000D02*
X12751700Y-20075000D01*
X9998300Y-32501700D02*
X9400000Y-33100000D01*
X12226000Y-25339300D02*
X11815300Y-25750000D01*
X17945600Y-26650000D02*
X17945600Y-24104400D01*
X27298900Y-28826100D02*
X26500000Y-29625000D01*
X10000000Y-6000000D02*
X10800000Y-6000000D01*
X16875000Y-12875000D02*
X19850000Y-15850000D01*
X8050000Y-5950000D02*
X8050000Y-6850000D01*
X22079400Y-27779400D02*
X21890300Y-27779400D01*
X11925000Y-20075000D02*
X11511700Y-20075000D01*
X11000000Y-27651600D02*
X11000000Y-26025000D01*
X14800000Y-6000000D02*
X15600000Y-6000000D01*
D42*
X5250000Y-30250000D02*
X4562500Y-30250000D01*
D40*
X15600000Y-6000000D02*
X16000000Y-6400000D01*
X10800000Y-31700000D02*
X10800000Y-30512500D01*
X16600000Y-27550000D02*
X17045600Y-27550000D01*
X8100000Y-7700000D02*
X8100000Y-6900000D01*
X15975000Y-12875000D02*
X16875000Y-12875000D01*
X10800000Y-30512500D02*
X12212500Y-29100000D01*
X16000000Y-6400000D02*
X16400000Y-6000000D01*
X20000000Y-21844600D02*
X20000000Y-22968800D01*
X23000000Y-28700000D02*
X22079400Y-27779400D01*
X11600000Y-6000000D02*
X12400000Y-6000000D01*
X10800000Y-31989300D02*
X10800000Y-31700000D01*
X23100000Y-21725000D02*
X23500000Y-21725000D01*
X12212500Y-29100000D02*
X12212500Y-28864100D01*
X21000000Y-23825000D02*
X23100000Y-21725000D01*
D44*
X24650000Y-27700000D02*
X24189100Y-27700000D01*
D40*
X1950000Y-17083700D02*
X1827800Y-16961500D01*
X6000000Y-29700100D02*
X5737400Y-29700100D01*
X6720800Y-30675400D02*
X6750000Y-30704600D01*
X2163100Y-34200000D02*
X2500000Y-33863100D01*
X6365700Y-25133000D02*
X4608000Y-25133000D01*
X7000000Y-24498700D02*
X6365700Y-25133000D01*
X12226000Y-24172900D02*
X12226000Y-25339300D01*
X1880900Y-17596100D02*
X1950000Y-17527000D01*
X8526300Y-26025000D02*
X7000000Y-24498700D01*
X15975000Y-10900000D02*
X15975000Y-8925000D01*
X3403100Y-23928100D02*
X3403100Y-21725000D01*
X11815300Y-25750000D02*
X11137500Y-25750000D01*
X17045600Y-27550000D02*
X17945600Y-26650000D01*
X19950000Y-15850000D02*
X20000000Y-15900000D01*
X15975000Y-6425000D02*
X16000000Y-6400000D01*
X20000000Y-15900000D02*
X20000000Y-21844600D01*
D44*
X21810900Y-27700000D02*
X21350000Y-27700000D01*
D40*
X1200000Y-34200000D02*
X2163100Y-34200000D01*
X24325000Y-15802000D02*
X24325000Y-14500000D01*
X17945600Y-24104400D02*
X19000000Y-23050000D01*
D42*
X5262100Y-30175400D02*
X5250000Y-30175400D01*
X6573100Y-30273200D02*
X6720800Y-30420900D01*
D40*
X3403100Y-21725000D02*
X4200000Y-21725000D01*
X16400000Y-6000000D02*
X17200000Y-6000000D01*
X12876800Y-19949900D02*
X12751700Y-20075000D01*
X2500000Y-21725000D02*
X3403100Y-21725000D01*
X9500000Y-17725000D02*
X9500000Y-17947600D01*
X8100000Y-15800000D02*
X8100000Y-15589100D01*
X12025000Y-8925000D02*
X12400000Y-8550000D01*
X7000000Y-24498700D02*
X7000000Y-24137500D01*
X18600000Y-37100000D02*
X18600000Y-33100000D01*
X17200000Y-33821200D02*
X16766700Y-34254500D01*
X14000000Y-8925000D02*
X14000000Y-6000000D01*
X20000000Y-22968800D02*
X19918800Y-23050000D01*
X20856200Y-23825000D02*
X21000000Y-23825000D01*
X10000000Y-6000000D02*
X9200000Y-6000000D01*
X1880900Y-19324900D02*
X1880900Y-17596100D01*
X24227000Y-15900000D02*
X24325000Y-15802000D01*
X27325000Y-30450000D02*
X26500000Y-29625000D01*
X16431400Y-20075000D02*
X16901700Y-20075000D01*
%TO.N,/RECORD_LED_A*%
D41*
X13825000Y-29062500D02*
X13825000Y-27500000D01*
X13787500Y-29100000D02*
X13825000Y-29062500D01*
%TO.N,/BUCK_L1*%
D40*
X24185000Y-30665000D02*
X24185000Y-33300000D01*
X24650000Y-29700000D02*
X24650000Y-30200000D01*
X24650000Y-30200000D02*
X24185000Y-30665000D01*
%TO.N,/BUCK_L2*%
X21350000Y-32835000D02*
X21815000Y-33300000D01*
X21350000Y-30200000D02*
X21350000Y-29700000D01*
X21350000Y-30200000D02*
X21350000Y-32835000D01*
%TO.N,/MIC_POWER_EN*%
D41*
X14549500Y-23541300D02*
X13125600Y-22117400D01*
X7819900Y-24007400D02*
X7819900Y-23134300D01*
X14549500Y-25172900D02*
X14798200Y-25172900D01*
X14549500Y-25172900D02*
X14500900Y-25172900D01*
X22675000Y-14393100D02*
X19981900Y-11700000D01*
X7950000Y-24137500D02*
X7819900Y-24007400D01*
X14549500Y-24077400D02*
X14549500Y-23541300D01*
X12175000Y-27498800D02*
X12175000Y-27500000D01*
X14798200Y-25172900D02*
X15479500Y-25854200D01*
X14500900Y-25172900D02*
X12175000Y-27498800D01*
X22675000Y-14500000D02*
X22675000Y-14393100D01*
X15479500Y-25854200D02*
X16758300Y-25854200D01*
X19981900Y-11700000D02*
X19900000Y-11700000D01*
X14549500Y-25172900D02*
X14549500Y-24077400D01*
X22675000Y-14500000D02*
X23028800Y-14853800D01*
X16758300Y-25854200D02*
X16862500Y-25750000D01*
X23028800Y-14853800D02*
X23408000Y-14853800D01*
X13125600Y-22117400D02*
X12888300Y-22117400D01*
%TO.N,/1V85*%
D40*
X23378400Y-20157600D02*
X23636000Y-19900000D01*
X6530100Y-18825300D02*
X6530800Y-18824600D01*
X2500000Y-24575000D02*
X2500000Y-23275000D01*
X23762500Y-20206500D02*
X24298900Y-20742900D01*
X1992500Y-20949700D02*
X3365600Y-20949700D01*
X6712000Y-15260600D02*
X6586200Y-15134800D01*
X3900000Y-20415300D02*
X3900000Y-20364000D01*
X1676400Y-21265800D02*
X1992500Y-20949700D01*
X22036300Y-18589600D02*
X23130200Y-17495700D01*
X4833400Y-20645800D02*
X4551500Y-20364000D01*
X23762400Y-20026400D02*
X23762500Y-20026400D01*
X6586200Y-15134800D02*
X6586200Y-14883400D01*
X3365600Y-20949700D02*
X3900000Y-20415300D01*
X7409100Y-25984100D02*
X4490900Y-25984100D01*
X24456000Y-17935500D02*
X24456000Y-18100000D01*
X4833400Y-20645800D02*
X6530100Y-18949100D01*
X22049500Y-20157600D02*
X23378400Y-20157600D01*
X24298900Y-22476100D02*
X23500000Y-23275000D01*
X6530800Y-18824600D02*
X6530800Y-17873300D01*
X21039100Y-21566600D02*
X22049500Y-20556200D01*
X1676400Y-22451400D02*
X1676400Y-21265800D01*
X22036300Y-20144400D02*
X22036300Y-18589600D01*
X6682000Y-17722100D02*
X6682000Y-15726800D01*
X6586200Y-14883400D02*
X5750900Y-14048100D01*
X9000000Y-27575000D02*
X7409100Y-25984100D01*
X6682000Y-15726800D02*
X6712000Y-15696800D01*
X6050000Y-21862500D02*
X4833400Y-20645800D01*
X22049500Y-20556200D02*
X22049500Y-20157600D01*
X4551500Y-20364000D02*
X3900000Y-20364000D01*
X6530100Y-18949100D02*
X6530100Y-18825300D01*
X16862500Y-21850000D02*
X16255200Y-21242700D01*
X2500000Y-23275000D02*
X1676400Y-22451400D01*
X22049500Y-20157600D02*
X22036300Y-20144400D01*
X4200000Y-26275000D02*
X2500000Y-24575000D01*
X6712000Y-15696800D02*
X6712000Y-15260600D01*
X6530800Y-17873300D02*
X6682000Y-17722100D01*
X4490900Y-25984100D02*
X4200000Y-26275000D01*
X23636000Y-19900000D02*
X23762400Y-20026400D01*
X24016200Y-17495700D02*
X24456000Y-17935500D01*
X23130200Y-17495700D02*
X24016200Y-17495700D01*
X23762500Y-20026400D02*
X23762500Y-20206500D01*
X24298900Y-20742900D02*
X24298900Y-22476100D01*
%TO.N,/SYS_RAW*%
X24650000Y-28700000D02*
X24650000Y-29200000D01*
X7953200Y-29750000D02*
X9698300Y-31495100D01*
X24650000Y-28200000D02*
X24650000Y-28700000D01*
X26375000Y-28200000D02*
X26500000Y-28075000D01*
X24650000Y-28200000D02*
X25702900Y-28200000D01*
X25702900Y-30377900D02*
X26500000Y-31175000D01*
X21000000Y-25375000D02*
X21350000Y-25725000D01*
X21350000Y-25725000D02*
X21350000Y-26346800D01*
X7437500Y-29250000D02*
X7437500Y-29750000D01*
X25414700Y-33910200D02*
X26500000Y-32824900D01*
X25702900Y-28200000D02*
X25702900Y-30377900D01*
X21350000Y-27200000D02*
X21350000Y-26346800D01*
X7437500Y-29750000D02*
X7953200Y-29750000D01*
X26500000Y-32824900D02*
X26500000Y-31175000D01*
X25702900Y-28200000D02*
X26375000Y-28200000D01*
X9698300Y-31495100D02*
X9698300Y-31917800D01*
%TO.N,/CHARGE_LED_A*%
D41*
X20825000Y-20162500D02*
X20825000Y-18700000D01*
X20787500Y-20200000D02*
X20825000Y-20162500D01*
%TO.N,/CHARGER_CHG_N*%
X7839500Y-30652000D02*
X7839500Y-31884100D01*
X19004600Y-20200000D02*
X17888400Y-19083800D01*
X20645000Y-13300000D02*
X21711200Y-14366200D01*
X7437500Y-30250000D02*
X7839500Y-30652000D01*
X19900000Y-13300000D02*
X20645000Y-13300000D01*
X19212500Y-20200000D02*
X19004600Y-20200000D01*
%TO.N,/USER_BUTTON*%
X16075000Y-17925000D02*
X15373300Y-17925000D01*
X11223300Y-17925000D02*
X9200000Y-15901700D01*
X11947700Y-17925000D02*
X11925000Y-17925000D01*
X11925000Y-17925000D02*
X11223300Y-17925000D01*
X17715800Y-17357300D02*
X17148100Y-17925000D01*
X9200000Y-15901700D02*
X9200000Y-15800000D01*
X12626700Y-17925000D02*
X15373300Y-17925000D01*
X18000000Y-15800000D02*
X18000000Y-17073100D01*
X17148100Y-17925000D02*
X16075000Y-17925000D01*
X18000000Y-17073100D02*
X17715800Y-17357300D01*
X11947700Y-17925000D02*
X12626700Y-17925000D01*
%TO.N,/I2S_WS_1V85*%
X16862500Y-23150000D02*
X17393700Y-23150000D01*
X23297800Y-18100000D02*
X22574700Y-18823100D01*
X17393700Y-23150000D02*
X17830100Y-22713600D01*
X1924400Y-20364000D02*
X614000Y-19053600D01*
X23636000Y-18100000D02*
X23297800Y-18100000D01*
X2100000Y-20364000D02*
X1924400Y-20364000D01*
X614000Y-19053600D02*
X614000Y-16752500D01*
X17830100Y-22713600D02*
X17830100Y-21617500D01*
X17830100Y-21617500D02*
X17232900Y-21020300D01*
X17232900Y-21020300D02*
X17089300Y-21020300D01*
%TO.N,/I2S_BCLK_1V85*%
X3900000Y-19544000D02*
X5190400Y-19544000D01*
X24456000Y-20235500D02*
X24829300Y-20608800D01*
X5190400Y-19544000D02*
X6003400Y-18731000D01*
X15726100Y-23798300D02*
X15726100Y-23027500D01*
X16862500Y-22500000D02*
X16253600Y-22500000D01*
X24456000Y-19900000D02*
X24456000Y-20235500D01*
X15726100Y-23027500D02*
X16253600Y-22500000D01*
X16253600Y-22500000D02*
X15738500Y-21984900D01*
%TO.N,/I2S_SD_1V85*%
X2562100Y-19926100D02*
X1862700Y-19926100D01*
X15753600Y-24450000D02*
X15324400Y-24020800D01*
X1293000Y-19356400D02*
X1293000Y-14825300D01*
X16862500Y-24450000D02*
X15753600Y-24450000D01*
X22563000Y-19630900D02*
X23193900Y-19000000D01*
X1862700Y-19926100D02*
X1293000Y-19356400D01*
X15324400Y-23742100D02*
X14003300Y-22421000D01*
X15324400Y-24020800D02*
X15324400Y-23742100D01*
X23193900Y-19000000D02*
X23636000Y-19000000D01*
X3000000Y-20364000D02*
X2562100Y-19926100D01*
%TO.N,/BAT_PLUS*%
D40*
X1200000Y-36200000D02*
X1737900Y-36200000D01*
X1737900Y-36200000D02*
X3640000Y-34297900D01*
X3640000Y-34297900D02*
X3640000Y-30723100D01*
X4562500Y-29750000D02*
X4079400Y-29750000D01*
X3640000Y-30189400D02*
X3640000Y-30723100D01*
X4079400Y-29750000D02*
X3640000Y-30189400D01*
X4562500Y-29750000D02*
X4562500Y-29250000D01*
%TO.N,/BQ_TS*%
D45*
X799800Y-35200000D02*
X1200000Y-35200000D01*
X262500Y-32750100D02*
X262500Y-34700000D01*
X4192300Y-28750000D02*
X262500Y-32750100D01*
X4562500Y-28750000D02*
X4192300Y-28750000D01*
X262500Y-34700000D02*
X799800Y-35200000D01*
%TO.N,/I2S_SD_3V3*%
D41*
X9664200Y-24450000D02*
X11137500Y-24450000D01*
X8100000Y-10100000D02*
X7685800Y-10100000D01*
X7685800Y-10100000D02*
X4323100Y-13462700D01*
X8913300Y-23699100D02*
X9664200Y-24450000D01*
X4323100Y-15671800D02*
X6155300Y-17504000D01*
X4323100Y-13462700D02*
X4323100Y-15671800D01*
%TO.N,/I2S_BCLK_3V3*%
X5204800Y-14498200D02*
X5204800Y-12954000D01*
X7258700Y-10900100D02*
X8100000Y-10900100D01*
X9654800Y-21049700D02*
X8866100Y-20261000D01*
X9654800Y-22450000D02*
X9654800Y-21049700D01*
X9943800Y-22739000D02*
X9654800Y-22450000D01*
X11137500Y-22500000D02*
X10898500Y-22739000D01*
X5204800Y-12954000D02*
X7258700Y-10900100D01*
X8100000Y-10900100D02*
X8100000Y-10900000D01*
X10898500Y-22739000D02*
X9943800Y-22739000D01*
X6185300Y-15478700D02*
X5204800Y-14498200D01*
%TO.N,/ESP_EN*%
X6227200Y-12500000D02*
X6142000Y-12585200D01*
X8100000Y-12500000D02*
X6227200Y-12500000D01*
%TO.N,/BAT_SENSE*%
X7170700Y-12116800D02*
X7053900Y-12000000D01*
X8100000Y-13300000D02*
X8177600Y-13300000D01*
X8719700Y-12757900D02*
X8719700Y-12276000D01*
X8719700Y-12276000D02*
X8560500Y-12116800D01*
X8560500Y-12116800D02*
X7170700Y-12116800D01*
X8177600Y-13300000D02*
X8719700Y-12757900D01*
%TO.N,/SD_MISO_MCU*%
X9544300Y-16640800D02*
X9309000Y-16405500D01*
X11678900Y-18778700D02*
X9544300Y-16644100D01*
X12601700Y-18778700D02*
X11678900Y-18778700D01*
X8265200Y-14100000D02*
X8100000Y-14100000D01*
X9309000Y-16405500D02*
X8963000Y-16405500D01*
X8756100Y-14590900D02*
X8265200Y-14100000D01*
X9544300Y-16644100D02*
X9544300Y-16640800D01*
X8756100Y-16198600D02*
X8756100Y-14590900D01*
X8963000Y-16405500D02*
X8756100Y-16198600D01*
%TO.N,/I2S_WS_3V3*%
X9179500Y-22330700D02*
X9179500Y-21196900D01*
X7674100Y-13700100D02*
X7117700Y-14256500D01*
X10000000Y-15800000D02*
X10000000Y-15161900D01*
X8538200Y-13700100D02*
X7674100Y-13700100D01*
X11137500Y-23150000D02*
X9998800Y-23150000D01*
X9998800Y-23150000D02*
X9179500Y-22330700D01*
X10000000Y-15161900D02*
X8538200Y-13700100D01*
X7117700Y-14256500D02*
X7117700Y-19675600D01*
%TO.N,/SD_CLK_MCU*%
X11600000Y-16499400D02*
X11079500Y-17019900D01*
X11600000Y-15800000D02*
X11600000Y-16499400D01*
%TO.N,/SD_MOSI_MCU*%
X12400000Y-15774400D02*
X12951300Y-15223100D01*
X12400000Y-15800000D02*
X12400000Y-15774400D01*
X12951300Y-15223100D02*
X14296100Y-15223100D01*
X14376900Y-15303900D02*
X14376900Y-16933700D01*
X13885800Y-17424800D02*
X13306900Y-17424800D01*
X13067700Y-17185600D02*
X12191100Y-17185600D01*
X13306900Y-17424800D02*
X13067700Y-17185600D01*
X14296100Y-15223100D02*
X14376900Y-15303900D01*
X14376900Y-16933700D02*
X13885800Y-17424800D01*
%TO.N,/USB_DM*%
X13200000Y-15864800D02*
X12474800Y-16590000D01*
X12474800Y-16590000D02*
X12097000Y-16590000D01*
X13200000Y-15800000D02*
X13200000Y-15864800D01*
%TO.N,/USB_DP*%
X13707100Y-16092900D02*
X13707100Y-17022200D01*
X14000000Y-15800000D02*
X13707100Y-16092900D01*
%TO.N,/SD_POWER_EN*%
X13922600Y-20476600D02*
X12429300Y-21969900D01*
X15600000Y-15800000D02*
X15600000Y-16325000D01*
X12429300Y-21969900D02*
X12429300Y-23077800D01*
X12429300Y-23077800D02*
X12602700Y-23251200D01*
X15600000Y-16325000D02*
X14795200Y-17129800D01*
X12602700Y-23251200D02*
X12602700Y-26026800D01*
X14030400Y-20476600D02*
X13922600Y-20476600D01*
%TO.N,/GPIO8_STRAP*%
X17200000Y-16739700D02*
X17230900Y-16770600D01*
X17200000Y-15800000D02*
X17200000Y-16739700D01*
%TO.N,/SD_CS_MCU*%
X18800000Y-17573100D02*
X19057600Y-17830700D01*
X18800000Y-15800000D02*
X18800000Y-17573100D01*
%TO.N,/SD_CARD_DETECT*%
X19981600Y-14900000D02*
X19900000Y-14900000D01*
X20489800Y-13845100D02*
X20489800Y-14391800D01*
X19474400Y-13700000D02*
X20344700Y-13700000D01*
X20489800Y-14391800D02*
X19981600Y-14900000D01*
X20344700Y-13700000D02*
X20489800Y-13845100D01*
X19114900Y-13340500D02*
X19474400Y-13700000D01*
X19114900Y-13053500D02*
X19114900Y-13340500D01*
%TO.N,/CHARGER_PGOOD_N*%
X6250000Y-30937500D02*
X6250000Y-31325600D01*
X7300300Y-32375900D02*
X7300300Y-33229000D01*
X19167900Y-14263800D02*
X19736200Y-14263800D01*
X6694500Y-33834800D02*
X5715200Y-33834800D01*
X6250000Y-31325600D02*
X7300300Y-32375900D01*
X19736200Y-14263800D02*
X19900000Y-14100000D01*
X7300300Y-33229000D02*
X6694500Y-33834800D01*
%TO.N,/UART_RX*%
X19508000Y-10900000D02*
X19174400Y-11233600D01*
X19900000Y-10900000D02*
X19508000Y-10900000D01*
%TO.N,/UART_TX*%
X19738400Y-10100000D02*
X18339100Y-11499300D01*
X19900000Y-10100000D02*
X19738400Y-10100000D01*
X18339100Y-11499300D02*
X18339100Y-13160000D01*
%TO.N,/USB_CC2*%
X15250000Y-31700000D02*
X15250000Y-31023300D01*
X19496500Y-32684800D02*
X17740000Y-30928300D01*
X25675000Y-36500000D02*
X22534400Y-36500000D01*
X17740000Y-30928300D02*
X15345000Y-30928300D01*
X15345000Y-30928300D02*
X15250000Y-31023300D01*
X22534400Y-36500000D02*
X19496500Y-33462100D01*
X19496500Y-33462100D02*
X19496500Y-32684800D01*
%TO.N,/VBUS_USB*%
D40*
X11600000Y-31700000D02*
X11600000Y-30625500D01*
X6811200Y-32807200D02*
X6811200Y-33043600D01*
X16400000Y-32501700D02*
X16124400Y-32777300D01*
X6750000Y-28062500D02*
X7121500Y-27691000D01*
X7121500Y-27691000D02*
X7310100Y-27691000D01*
X11600000Y-32100800D02*
X11600000Y-32501700D01*
X5750000Y-30937500D02*
X5750000Y-31746000D01*
X16124400Y-32777300D02*
X11875600Y-32777300D01*
X11875600Y-32777300D02*
X11600000Y-32501700D01*
X5750000Y-31746000D02*
X6811200Y-32807200D01*
X11600000Y-30625500D02*
X11721900Y-30503600D01*
X11600000Y-32501700D02*
X11600000Y-32626200D01*
X16400000Y-31700000D02*
X16400000Y-32501700D01*
X6811200Y-33043600D02*
X6811300Y-33043600D01*
X11600000Y-32100800D02*
X11600000Y-31700000D01*
%TO.N,/USB_CC1*%
D41*
X12924800Y-27317000D02*
X12924800Y-29801000D01*
X13626900Y-26614900D02*
X12924800Y-27317000D01*
X12750000Y-29975800D02*
X12750000Y-31700000D01*
X12924800Y-29801000D02*
X12750000Y-29975800D01*
%TO.N,/USB_DP_CONN*%
X14750000Y-32038300D02*
X14750000Y-31700000D01*
X14750000Y-30192300D02*
X14808400Y-30133900D01*
X13750000Y-31700000D02*
X13750000Y-32376700D01*
X14750000Y-32038300D02*
X14750000Y-32376700D01*
X14750000Y-32376700D02*
X13750000Y-32376700D01*
X14750000Y-31700000D02*
X14750000Y-30192300D01*
%TO.N,/USB_DM_CONN*%
X13912700Y-30139200D02*
X13912700Y-31023300D01*
X13250000Y-31700000D02*
X13250000Y-31023300D01*
X13912700Y-31023300D02*
X14250000Y-31023300D01*
X13250000Y-31023300D02*
X13912700Y-31023300D01*
X14250000Y-31700000D02*
X14250000Y-31023300D01*
%TO.N,/BQ_ILIM*%
X7690300Y-28297200D02*
X7437500Y-28550000D01*
X7437500Y-28550000D02*
X7437500Y-28750000D01*
%TO.N,/BQ_TMR*%
X6250000Y-27712200D02*
X5693300Y-27155500D01*
X2283900Y-27155500D02*
X1672700Y-27766700D01*
X5693300Y-27155500D02*
X2283900Y-27155500D01*
X6250000Y-28062500D02*
X6250000Y-27712200D01*
%TO.N,/BQ_ITERM*%
X5750000Y-27765500D02*
X5425400Y-27440900D01*
X4012400Y-27440900D02*
X3862200Y-27591100D01*
X5750000Y-28062500D02*
X5750000Y-27765500D01*
X5425400Y-27440900D02*
X4012400Y-27440900D01*
%TO.N,/BQ_ISET*%
X1208100Y-28168400D02*
X1039700Y-28000000D01*
X3385500Y-28168400D02*
X1208100Y-28168400D01*
X4388300Y-27753400D02*
X4148800Y-27992900D01*
X5250000Y-28062500D02*
X4940900Y-27753400D01*
X3561000Y-27992900D02*
X3385500Y-28168400D01*
X4940900Y-27753400D02*
X4388300Y-27753400D01*
X4148800Y-27992900D02*
X3561000Y-27992900D01*
%TO.N,/SD_MOSI_CARD*%
X24429600Y-17037300D02*
X24501000Y-17108700D01*
X20630600Y-17037300D02*
X24429600Y-17037300D01*
%TO.N,/USB_DP_ESD*%
X14590500Y-27595700D02*
X14798400Y-27387800D01*
X14798400Y-27387800D02*
X14798400Y-25804200D01*
%TD*%
M02*
