%TF.GenerationSoftware,KiCad,Pcbnew,10.0.4*%
%TF.CreationDate,2026-07-17T09:54:57+02:00*%
%TF.ProjectId,neorecall-wearable-v1,6e656f72-6563-4616-9c6c-2d7765617261,rev?*%
%TF.SameCoordinates,Original*%
%TF.FileFunction,Copper,L1,Top*%
%TF.FilePolarity,Positive*%
%FSLAX46Y46*%
G04 Gerber Fmt 4.6, Leading zero omitted, Abs format (unit mm)*
G04 Created by KiCad (PCBNEW 10.0.4) date 2026-07-17 09:54:57*
%MOMM*%
%LPD*%
G01*
G04 APERTURE LIST*
G04 Aperture macros list*
%AMRoundRect*
0 Rectangle with rounded corners*
0 $1 Rounding radius*
0 $2 $3 $4 $5 $6 $7 $8 $9 X,Y pos of 4 corners*
0 Add a 4 corners polygon primitive as box body*
4,1,4,$2,$3,$4,$5,$6,$7,$8,$9,$2,$3,0*
0 Add four circle primitives for the rounded corners*
1,1,$1+$1,$2,$3*
1,1,$1+$1,$4,$5*
1,1,$1+$1,$6,$7*
1,1,$1+$1,$8,$9*
0 Add four rect primitives between the rounded corners*
20,1,$1+$1,$2,$3,$4,$5,0*
20,1,$1+$1,$4,$5,$6,$7,0*
20,1,$1+$1,$6,$7,$8,$9,0*
20,1,$1+$1,$8,$9,$2,$3,0*%
G04 Aperture macros list end*
%TA.AperFunction,SMDPad,CuDef*%
%ADD10RoundRect,0.200000X-0.200000X-0.275000X0.200000X-0.275000X0.200000X0.275000X-0.200000X0.275000X0*%
%TD*%
%TA.AperFunction,SMDPad,CuDef*%
%ADD11RoundRect,0.250000X0.475000X-0.250000X0.475000X0.250000X-0.475000X0.250000X-0.475000X-0.250000X0*%
%TD*%
%TA.AperFunction,SMDPad,CuDef*%
%ADD12RoundRect,0.218750X-0.218750X-0.256250X0.218750X-0.256250X0.218750X0.256250X-0.218750X0.256250X0*%
%TD*%
%TA.AperFunction,SMDPad,CuDef*%
%ADD13RoundRect,0.078400X0.411600X1.621600X-0.411600X1.621600X-0.411600X-1.621600X0.411600X-1.621600X0*%
%TD*%
%TA.AperFunction,SMDPad,CuDef*%
%ADD14RoundRect,0.150000X0.150000X-0.512500X0.150000X0.512500X-0.150000X0.512500X-0.150000X-0.512500X0*%
%TD*%
%TA.AperFunction,SMDPad,CuDef*%
%ADD15RoundRect,0.225000X0.250000X-0.225000X0.250000X0.225000X-0.250000X0.225000X-0.250000X-0.225000X0*%
%TD*%
%TA.AperFunction,SMDPad,CuDef*%
%ADD16R,1.050000X0.650000*%
%TD*%
%TA.AperFunction,SMDPad,CuDef*%
%ADD17RoundRect,0.062640X-0.198360X-0.237360X0.198360X-0.237360X0.198360X0.237360X-0.198360X0.237360X0*%
%TD*%
%TA.AperFunction,SMDPad,CuDef*%
%ADD18RoundRect,0.060000X-0.090000X-0.090000X0.090000X-0.090000X0.090000X0.090000X-0.090000X0.090000X0*%
%TD*%
%TA.AperFunction,SMDPad,CuDef*%
%ADD19C,1.625000*%
%TD*%
%TA.AperFunction,SMDPad,CuDef*%
%ADD20RoundRect,0.150000X0.625000X-0.150000X0.625000X0.150000X-0.625000X0.150000X-0.625000X-0.150000X0*%
%TD*%
%TA.AperFunction,SMDPad,CuDef*%
%ADD21RoundRect,0.250000X0.650000X-0.350000X0.650000X0.350000X-0.650000X0.350000X-0.650000X-0.350000X0*%
%TD*%
%TA.AperFunction,SMDPad,CuDef*%
%ADD22RoundRect,0.048000X-0.352000X-0.152000X0.352000X-0.152000X0.352000X0.152000X-0.352000X0.152000X0*%
%TD*%
%TA.AperFunction,SMDPad,CuDef*%
%ADD23RoundRect,0.048000X-0.152000X-0.352000X0.152000X-0.352000X0.152000X0.352000X-0.152000X0.352000X0*%
%TD*%
%TA.AperFunction,SMDPad,CuDef*%
%ADD24RoundRect,0.116000X-0.609000X-0.609000X0.609000X-0.609000X0.609000X0.609000X-0.609000X0.609000X0*%
%TD*%
%TA.AperFunction,SMDPad,CuDef*%
%ADD25RoundRect,0.084000X-0.266000X-0.266000X0.266000X-0.266000X0.266000X0.266000X-0.266000X0.266000X0*%
%TD*%
%TA.AperFunction,SMDPad,CuDef*%
%ADD26RoundRect,0.062640X0.237360X-0.198360X0.237360X0.198360X-0.237360X0.198360X-0.237360X-0.198360X0*%
%TD*%
%TA.AperFunction,SMDPad,CuDef*%
%ADD27RoundRect,0.060000X0.090000X-0.090000X0.090000X0.090000X-0.090000X0.090000X-0.090000X-0.090000X0*%
%TD*%
%TA.AperFunction,SMDPad,CuDef*%
%ADD28RoundRect,0.100000X-0.637500X-0.100000X0.637500X-0.100000X0.637500X0.100000X-0.637500X0.100000X0*%
%TD*%
%TA.AperFunction,SMDPad,CuDef*%
%ADD29R,0.600000X1.000000*%
%TD*%
%TA.AperFunction,SMDPad,CuDef*%
%ADD30R,0.300000X1.000000*%
%TD*%
%TA.AperFunction,SMDPad,CuDef*%
%ADD31RoundRect,0.450000X-0.050000X-0.250000X0.050000X-0.250000X0.050000X0.250000X-0.050000X0.250000X0*%
%TD*%
%TA.AperFunction,SMDPad,CuDef*%
%ADD32RoundRect,0.450000X-0.050000X-0.450000X0.050000X-0.450000X0.050000X0.450000X-0.050000X0.450000X0*%
%TD*%
%TA.AperFunction,SMDPad,CuDef*%
%ADD33RoundRect,0.108000X-0.192000X-0.012000X0.192000X-0.012000X0.192000X0.012000X-0.192000X0.012000X0*%
%TD*%
%TA.AperFunction,SMDPad,CuDef*%
%ADD34R,1.580000X2.850000*%
%TD*%
%TA.AperFunction,SMDPad,CuDef*%
%ADD35RoundRect,0.062500X-0.375000X-0.062500X0.375000X-0.062500X0.375000X0.062500X-0.375000X0.062500X0*%
%TD*%
%TA.AperFunction,SMDPad,CuDef*%
%ADD36RoundRect,0.062500X-0.062500X-0.375000X0.062500X-0.375000X0.062500X0.375000X-0.062500X0.375000X0*%
%TD*%
%TA.AperFunction,HeatsinkPad*%
%ADD37R,1.450000X1.450000*%
%TD*%
%TA.AperFunction,ViaPad*%
%ADD38C,0.500000*%
%TD*%
%TA.AperFunction,ViaPad*%
%ADD39C,0.450000*%
%TD*%
%TA.AperFunction,Conductor*%
%ADD40C,0.300000*%
%TD*%
%TA.AperFunction,Conductor*%
%ADD41C,0.150000*%
%TD*%
%TA.AperFunction,Conductor*%
%ADD42C,0.250200*%
%TD*%
%TA.AperFunction,Conductor*%
%ADD43C,0.200000*%
%TD*%
%TA.AperFunction,Conductor*%
%ADD44C,0.240600*%
%TD*%
%TA.AperFunction,Conductor*%
%ADD45C,0.100000*%
%TD*%
G04 APERTURE END LIST*
D10*
%TO.P,R30,1*%
%TO.N,/3V3*%
X124675000Y-125000000D03*
%TO.P,R30,2*%
%TO.N,/BUCK_PG_N*%
X126325000Y-125000000D03*
%TD*%
D11*
%TO.P,C21,1*%
%TO.N,/3V3*%
X119000000Y-124950000D03*
%TO.P,C21,2*%
%TO.N,/GND*%
X119000000Y-123050000D03*
%TD*%
D12*
%TO.P,D2,1*%
%TO.N,/GND*%
X112212500Y-129100000D03*
%TO.P,D2,2*%
%TO.N,/RECORD_LED_A*%
X113787500Y-129100000D03*
%TD*%
D13*
%TO.P,L1,1*%
%TO.N,/BUCK_L1*%
X124185000Y-133300000D03*
%TO.P,L1,2*%
%TO.N,/BUCK_L2*%
X121815000Y-133300000D03*
%TD*%
D14*
%TO.P,U5,1*%
%TO.N,/3V3*%
X106050000Y-124137500D03*
%TO.P,U5,2*%
%TO.N,/GND*%
X107000000Y-124137500D03*
%TO.P,U5,3*%
%TO.N,/MIC_POWER_EN*%
X107950000Y-124137500D03*
%TO.P,U5,4*%
%TO.N,unconnected-(U5-NC-Pad4)*%
X107950000Y-121862500D03*
%TO.P,U5,5*%
%TO.N,/1V85*%
X106050000Y-121862500D03*
%TD*%
D15*
%TO.P,C6,1*%
%TO.N,/SYS_RAW*%
X121000000Y-125375000D03*
%TO.P,C6,2*%
%TO.N,/GND*%
X121000000Y-123825000D03*
%TD*%
D10*
%TO.P,R18,1*%
%TO.N,/3V3*%
X119175000Y-118700000D03*
%TO.P,R18,2*%
%TO.N,/CHARGE_LED_A*%
X120825000Y-118700000D03*
%TD*%
D12*
%TO.P,D3,1*%
%TO.N,/CHARGER_CHG_N*%
X119212500Y-120200000D03*
%TO.P,D3,2*%
%TO.N,/CHARGE_LED_A*%
X120787500Y-120200000D03*
%TD*%
D15*
%TO.P,C13,1*%
%TO.N,/1V85*%
X104200000Y-126275000D03*
%TO.P,C13,2*%
%TO.N,/GND*%
X104200000Y-124725000D03*
%TD*%
D16*
%TO.P,SW1,1*%
%TO.N,/USER_BUTTON*%
X111925000Y-117925000D03*
X116075000Y-117925000D03*
%TO.P,SW1,2*%
%TO.N,/GND*%
X111925000Y-120075000D03*
X116075000Y-120075000D03*
%TD*%
D15*
%TO.P,C14,1*%
%TO.N,/3V3*%
X109500000Y-119275000D03*
%TO.P,C14,2*%
%TO.N,/GND*%
X109500000Y-117725000D03*
%TD*%
%TO.P,C4,1*%
%TO.N,/SYS_RAW*%
X126500000Y-128075000D03*
%TO.P,C4,2*%
%TO.N,/GND*%
X126500000Y-126525000D03*
%TD*%
D17*
%TO.P,MK2,1*%
%TO.N,/I2S_WS_1V85*%
X123636000Y-118100000D03*
D18*
%TO.P,MK2,2*%
%TO.N,/1V85*%
X124456000Y-118100000D03*
D19*
%TO.P,MK2,3*%
%TO.N,/GND*%
X125708000Y-119000000D03*
D18*
%TO.P,MK2,4*%
X126473000Y-117950000D03*
%TO.P,MK2,5*%
%TO.N,unconnected-(MK2-THSEL-Pad5)*%
X126473000Y-120050000D03*
D17*
%TO.P,MK2,6*%
%TO.N,/I2S_BCLK_1V85*%
X124456000Y-119900000D03*
%TO.P,MK2,7*%
%TO.N,/1V85*%
X123636000Y-119900000D03*
%TO.P,MK2,8*%
%TO.N,/I2S_SD_1V85*%
X123636000Y-119000000D03*
%TD*%
D15*
%TO.P,C5,1*%
%TO.N,/SYS_RAW*%
X126500000Y-131175000D03*
%TO.P,C5,2*%
%TO.N,/GND*%
X126500000Y-129625000D03*
%TD*%
D11*
%TO.P,C20,1*%
%TO.N,/3V3*%
X116600000Y-129450000D03*
%TO.P,C20,2*%
%TO.N,/GND*%
X116600000Y-127550000D03*
%TD*%
D20*
%TO.P,J2,1*%
%TO.N,/BAT_PLUS*%
X101200000Y-136200000D03*
%TO.P,J2,2*%
%TO.N,/BQ_TS*%
X101200000Y-135200000D03*
%TO.P,J2,3*%
%TO.N,/GND*%
X101200000Y-134200000D03*
D21*
%TO.P,J2,MP*%
%TO.N,N/C*%
X105075000Y-137500000D03*
X105075000Y-132900000D03*
%TD*%
D11*
%TO.P,C7,1*%
%TO.N,/3V3*%
X119100000Y-128550000D03*
%TO.P,C7,2*%
%TO.N,/GND*%
X119100000Y-126650000D03*
%TD*%
D15*
%TO.P,C15,1*%
%TO.N,/1V85*%
X109000000Y-127575000D03*
%TO.P,C15,2*%
%TO.N,/GND*%
X109000000Y-126025000D03*
%TD*%
D22*
%TO.P,U1,1*%
%TO.N,/GND*%
X108100000Y-106900000D03*
%TO.P,U1,2*%
X108100000Y-107700000D03*
%TO.P,U1,3*%
%TO.N,/3V3*%
X108100000Y-108500000D03*
%TO.P,U1,4*%
%TO.N,unconnected-(U1-NC-Pad4)*%
X108100000Y-109300000D03*
%TO.P,U1,5*%
%TO.N,/I2S_SD_3V3*%
X108100000Y-110100000D03*
%TO.P,U1,6*%
%TO.N,/I2S_BCLK_3V3*%
X108100000Y-110900000D03*
%TO.P,U1,7*%
%TO.N,unconnected-(U1-NC-Pad7)*%
X108100000Y-111700000D03*
%TO.P,U1,8*%
%TO.N,/ESP_EN*%
X108100000Y-112500000D03*
%TO.P,U1,9*%
%TO.N,/BAT_SENSE*%
X108100000Y-113300000D03*
%TO.P,U1,10*%
%TO.N,/SD_MISO_MCU*%
X108100000Y-114100000D03*
%TO.P,U1,11*%
%TO.N,/GND*%
X108100000Y-114900000D03*
D23*
%TO.P,U1,12*%
%TO.N,/USER_BUTTON*%
X109200000Y-115800000D03*
%TO.P,U1,13*%
%TO.N,/I2S_WS_3V3*%
X110000000Y-115800000D03*
%TO.P,U1,14*%
%TO.N,/GND*%
X110800000Y-115800000D03*
%TO.P,U1,15*%
%TO.N,/SD_CLK_MCU*%
X111600000Y-115800000D03*
%TO.P,U1,16*%
%TO.N,/SD_MOSI_MCU*%
X112400000Y-115800000D03*
%TO.P,U1,17*%
%TO.N,/USB_DM*%
X113200000Y-115800000D03*
%TO.P,U1,18*%
%TO.N,/USB_DP*%
X114000000Y-115800000D03*
%TO.P,U1,19*%
%TO.N,unconnected-(U1-GPIO14-Pad19)*%
X114800000Y-115800000D03*
%TO.P,U1,20*%
%TO.N,/SD_POWER_EN*%
X115600000Y-115800000D03*
%TO.P,U1,21*%
%TO.N,unconnected-(U1-NC-Pad21)*%
X116400000Y-115800000D03*
%TO.P,U1,22*%
%TO.N,/GPIO8_STRAP*%
X117200000Y-115800000D03*
%TO.P,U1,23*%
%TO.N,/USER_BUTTON*%
X118000000Y-115800000D03*
%TO.P,U1,24*%
%TO.N,/SD_CS_MCU*%
X118800000Y-115800000D03*
D22*
%TO.P,U1,25*%
%TO.N,/SD_CARD_DETECT*%
X119900000Y-114900000D03*
%TO.P,U1,26*%
%TO.N,/CHARGER_PGOOD_N*%
X119900000Y-114100000D03*
%TO.P,U1,27*%
%TO.N,/CHARGER_CHG_N*%
X119900000Y-113300000D03*
%TO.P,U1,28*%
%TO.N,/BUCK_PG_N*%
X119900000Y-112500000D03*
%TO.P,U1,29*%
%TO.N,/MIC_POWER_EN*%
X119900000Y-111700000D03*
%TO.P,U1,30*%
%TO.N,/UART_RX*%
X119900000Y-110900000D03*
%TO.P,U1,31*%
%TO.N,/UART_TX*%
X119900000Y-110100000D03*
%TO.P,U1,32*%
%TO.N,unconnected-(U1-NC-Pad32)*%
X119900000Y-109300000D03*
%TO.P,U1,33*%
%TO.N,unconnected-(U1-NC-Pad33)*%
X119900000Y-108500000D03*
%TO.P,U1,34*%
%TO.N,unconnected-(U1-NC-Pad34)*%
X119900000Y-107700000D03*
%TO.P,U1,35*%
%TO.N,unconnected-(U1-NC-Pad35)*%
X119900000Y-106900000D03*
D23*
%TO.P,U1,36*%
%TO.N,/GND*%
X118800000Y-106000000D03*
%TO.P,U1,37*%
X118000000Y-106000000D03*
%TO.P,U1,38*%
X117200000Y-106000000D03*
%TO.P,U1,39*%
X116400000Y-106000000D03*
%TO.P,U1,40*%
X115600000Y-106000000D03*
%TO.P,U1,41*%
X114800000Y-106000000D03*
%TO.P,U1,42*%
X114000000Y-106000000D03*
%TO.P,U1,43*%
X113200000Y-106000000D03*
%TO.P,U1,44*%
X112400000Y-106000000D03*
%TO.P,U1,45*%
X111600000Y-106000000D03*
%TO.P,U1,46*%
X110800000Y-106000000D03*
%TO.P,U1,47*%
X110000000Y-106000000D03*
%TO.P,U1,48*%
X109200000Y-106000000D03*
D24*
%TO.P,U1,49*%
X112025000Y-108925000D03*
X112025000Y-110900000D03*
X112025000Y-112875000D03*
X114000000Y-108925000D03*
X114000000Y-110900000D03*
X114000000Y-112875000D03*
X115975000Y-108925000D03*
X115975000Y-110900000D03*
X115975000Y-112875000D03*
D25*
%TO.P,U1,50*%
X119950000Y-105950000D03*
%TO.P,U1,51*%
X119950000Y-115850000D03*
%TO.P,U1,52*%
X108050000Y-115850000D03*
%TO.P,U1,53*%
X108050000Y-105950000D03*
%TD*%
D10*
%TO.P,R4,1*%
%TO.N,/USB_CC2*%
X125675000Y-136500000D03*
%TO.P,R4,2*%
%TO.N,/GND*%
X127325000Y-136500000D03*
%TD*%
D26*
%TO.P,MK1,1*%
%TO.N,/I2S_WS_1V85*%
X102100000Y-120364000D03*
D27*
%TO.P,MK1,2*%
%TO.N,/GND*%
X102100000Y-119544000D03*
D19*
%TO.P,MK1,3*%
X103000000Y-118292000D03*
D27*
%TO.P,MK1,4*%
X101950000Y-117527000D03*
%TO.P,MK1,5*%
%TO.N,unconnected-(MK1-THSEL-Pad5)*%
X104050000Y-117527000D03*
D26*
%TO.P,MK1,6*%
%TO.N,/I2S_BCLK_1V85*%
X103900000Y-119544000D03*
%TO.P,MK1,7*%
%TO.N,/1V85*%
X103900000Y-120364000D03*
%TO.P,MK1,8*%
%TO.N,/I2S_SD_1V85*%
X103000000Y-120364000D03*
%TD*%
D15*
%TO.P,C17,1*%
%TO.N,/1V85*%
X123500000Y-123275000D03*
%TO.P,C17,2*%
%TO.N,/GND*%
X123500000Y-121725000D03*
%TD*%
D28*
%TO.P,U6,1*%
%TO.N,/3V3*%
X111137500Y-121850000D03*
%TO.P,U6,2*%
%TO.N,/I2S_BCLK_3V3*%
X111137500Y-122500000D03*
%TO.P,U6,3*%
%TO.N,/I2S_WS_3V3*%
X111137500Y-123150000D03*
%TO.P,U6,4*%
%TO.N,/GND*%
X111137500Y-123800000D03*
%TO.P,U6,5*%
%TO.N,/I2S_SD_3V3*%
X111137500Y-124450000D03*
%TO.P,U6,6*%
%TO.N,unconnected-(U6-NC-Pad6)*%
X111137500Y-125100000D03*
%TO.P,U6,7*%
%TO.N,/GND*%
X111137500Y-125750000D03*
%TO.P,U6,8*%
%TO.N,/MIC_POWER_EN*%
X116862500Y-125750000D03*
%TO.P,U6,9*%
%TO.N,unconnected-(U6-NC-Pad9)*%
X116862500Y-125100000D03*
%TO.P,U6,10*%
%TO.N,/I2S_SD_1V85*%
X116862500Y-124450000D03*
%TO.P,U6,11*%
%TO.N,unconnected-(U6-B3Y-Pad11)*%
X116862500Y-123800000D03*
%TO.P,U6,12*%
%TO.N,/I2S_WS_1V85*%
X116862500Y-123150000D03*
%TO.P,U6,13*%
%TO.N,/I2S_BCLK_1V85*%
X116862500Y-122500000D03*
%TO.P,U6,14*%
%TO.N,/1V85*%
X116862500Y-121850000D03*
%TD*%
D29*
%TO.P,J1,A1_B12*%
%TO.N,/GND*%
X110800000Y-131700000D03*
%TO.P,J1,A4_B9*%
%TO.N,/VBUS_USB*%
X111600000Y-131700000D03*
D30*
%TO.P,J1,A5*%
%TO.N,/USB_CC1*%
X112750000Y-131700000D03*
%TO.P,J1,A6*%
%TO.N,/USB_DP_CONN*%
X113750000Y-131700000D03*
%TO.P,J1,A7*%
%TO.N,/USB_DM_CONN*%
X114250000Y-131700000D03*
%TO.P,J1,A8*%
%TO.N,unconnected-(J1-SBU1-PadA8)*%
X115750000Y-131700000D03*
D29*
%TO.P,J1,B1_A12*%
%TO.N,/GND*%
X117200000Y-131700000D03*
%TO.P,J1,B4_A9*%
%TO.N,/VBUS_USB*%
X116400000Y-131700000D03*
D30*
%TO.P,J1,B5*%
%TO.N,/USB_CC2*%
X115250000Y-131700000D03*
%TO.P,J1,B6*%
%TO.N,/USB_DP_CONN*%
X114750000Y-131700000D03*
%TO.P,J1,B7*%
%TO.N,/USB_DM_CONN*%
X113250000Y-131700000D03*
%TO.P,J1,B8*%
%TO.N,unconnected-(J1-SBU2-PadB8)*%
X112250000Y-131700000D03*
D31*
%TO.P,J1,S1*%
%TO.N,/GND*%
X109400000Y-133100000D03*
%TO.P,J1,S2*%
X118600000Y-133100000D03*
D32*
%TO.P,J1,S3*%
X109400000Y-137100000D03*
%TO.P,J1,S4*%
X118600000Y-137100000D03*
%TD*%
D33*
%TO.P,U4,1*%
%TO.N,/SYS_RAW*%
X121350000Y-127200000D03*
%TO.P,U4,2*%
%TO.N,/GND*%
X121350000Y-127700000D03*
%TO.P,U4,3*%
%TO.N,/3V3*%
X121350000Y-128200000D03*
%TO.P,U4,4*%
X121350000Y-128700000D03*
%TO.P,U4,5*%
X121350000Y-129200000D03*
%TO.P,U4,6*%
%TO.N,/BUCK_L2*%
X121350000Y-129700000D03*
%TO.P,U4,7*%
X121350000Y-130200000D03*
%TO.P,U4,8*%
%TO.N,/BUCK_L1*%
X124650000Y-130200000D03*
%TO.P,U4,9*%
X124650000Y-129700000D03*
%TO.P,U4,10*%
%TO.N,/SYS_RAW*%
X124650000Y-129200000D03*
%TO.P,U4,11*%
X124650000Y-128700000D03*
%TO.P,U4,12*%
X124650000Y-128200000D03*
%TO.P,U4,13*%
%TO.N,/GND*%
X124650000Y-127700000D03*
%TO.P,U4,14*%
%TO.N,/BUCK_PG_N*%
X124650000Y-127200000D03*
D34*
%TO.P,U4,15*%
%TO.N,/GND*%
X123000000Y-128700000D03*
%TD*%
D35*
%TO.P,U3,1*%
%TO.N,/BQ_TS*%
X104562500Y-128750000D03*
%TO.P,U3,2*%
%TO.N,/BAT_PLUS*%
X104562500Y-129250000D03*
%TO.P,U3,3*%
X104562500Y-129750000D03*
%TO.P,U3,4*%
%TO.N,/GND*%
X104562500Y-130250000D03*
D36*
%TO.P,U3,5*%
X105250000Y-130937500D03*
%TO.P,U3,6*%
%TO.N,/VBUS_USB*%
X105750000Y-130937500D03*
%TO.P,U3,7*%
%TO.N,/CHARGER_PGOOD_N*%
X106250000Y-130937500D03*
%TO.P,U3,8*%
%TO.N,/GND*%
X106750000Y-130937500D03*
D35*
%TO.P,U3,9*%
%TO.N,/CHARGER_CHG_N*%
X107437500Y-130250000D03*
%TO.P,U3,10*%
%TO.N,/SYS_RAW*%
X107437500Y-129750000D03*
%TO.P,U3,11*%
X107437500Y-129250000D03*
%TO.P,U3,12*%
%TO.N,/BQ_ILIM*%
X107437500Y-128750000D03*
D36*
%TO.P,U3,13*%
%TO.N,/VBUS_USB*%
X106750000Y-128062500D03*
%TO.P,U3,14*%
%TO.N,/BQ_TMR*%
X106250000Y-128062500D03*
%TO.P,U3,15*%
%TO.N,/BQ_ITERM*%
X105750000Y-128062500D03*
%TO.P,U3,16*%
%TO.N,/BQ_ISET*%
X105250000Y-128062500D03*
D37*
%TO.P,U3,17*%
%TO.N,/GND*%
X106000000Y-129500000D03*
%TD*%
D10*
%TO.P,R31,1*%
%TO.N,/MIC_POWER_EN*%
X122675000Y-114500000D03*
%TO.P,R31,2*%
%TO.N,/GND*%
X124325000Y-114500000D03*
%TD*%
%TO.P,R17,1*%
%TO.N,/MIC_POWER_EN*%
X112175000Y-127500000D03*
%TO.P,R17,2*%
%TO.N,/RECORD_LED_A*%
X113825000Y-127500000D03*
%TD*%
D15*
%TO.P,C16,1*%
%TO.N,/1V85*%
X102500000Y-123275000D03*
%TO.P,C16,2*%
%TO.N,/GND*%
X102500000Y-121725000D03*
%TD*%
%TO.P,C12,1*%
%TO.N,/3V3*%
X104200000Y-123275000D03*
%TO.P,C12,2*%
%TO.N,/GND*%
X104200000Y-121725000D03*
%TD*%
D38*
%TO.N,/3V3*%
X107652000Y-118813700D03*
X107053900Y-109793700D03*
X116778600Y-118879800D03*
X120407600Y-132814900D03*
X115289700Y-127904300D03*
X125181300Y-121564300D03*
X125426400Y-132814900D03*
D39*
%TO.N,/BUCK_PG_N*%
X119167900Y-112500100D03*
X126960800Y-112500100D03*
D38*
%TO.N,/GND*%
X116766700Y-134254500D03*
X102500000Y-133863100D03*
X120129700Y-121844600D03*
X101827800Y-116961500D03*
X125318900Y-134786200D03*
X107314500Y-131079500D03*
X111000000Y-127651600D03*
D39*
%TO.N,/MIC_POWER_EN*%
X112888300Y-122117400D03*
X107819900Y-123134300D03*
X114549500Y-124077400D03*
X123408000Y-114853800D03*
D38*
%TO.N,/1V85*%
X105750900Y-114048100D03*
X121039100Y-121566600D03*
X115592400Y-114518000D03*
X116255200Y-121242700D03*
%TO.N,/SYS_RAW*%
X125414700Y-133910200D03*
X121350000Y-126346800D03*
X109698300Y-131917800D03*
D39*
%TO.N,/CHARGER_CHG_N*%
X107839500Y-131884100D03*
X121711200Y-114366200D03*
X117888400Y-119083800D03*
%TO.N,/USER_BUTTON*%
X117715800Y-117357300D03*
%TO.N,/I2S_WS_1V85*%
X117089300Y-121020300D03*
X122574700Y-118823100D03*
X100614000Y-116752500D03*
%TO.N,/I2S_BCLK_1V85*%
X124829300Y-120608800D03*
X107269700Y-122767200D03*
X115726100Y-123798300D03*
X115738500Y-121984900D03*
X106003400Y-118731000D03*
%TO.N,/I2S_SD_1V85*%
X101293000Y-114825300D03*
X114003300Y-122421000D03*
X122563000Y-119630900D03*
D38*
%TO.N,/BAT_PLUS*%
X105991900Y-116374100D03*
X103640000Y-130723100D03*
D39*
%TO.N,/I2S_SD_3V3*%
X108913300Y-123699100D03*
X106155300Y-117504000D03*
%TO.N,/I2S_BCLK_3V3*%
X109142600Y-116807200D03*
X108866100Y-120261000D03*
X106185300Y-115478700D03*
%TO.N,/ESP_EN*%
X106142000Y-112585200D03*
X125000000Y-111932900D03*
%TO.N,/BAT_SENSE*%
X104749500Y-113915900D03*
X107053900Y-112000000D03*
%TO.N,/SD_MISO_MCU*%
X112601700Y-118778700D03*
%TO.N,/I2S_WS_3V3*%
X107117700Y-119675600D03*
X109179500Y-121196900D03*
%TO.N,/SD_CLK_MCU*%
X111079500Y-117019900D03*
%TO.N,/SD_MOSI_MCU*%
X107787800Y-117376700D03*
X112191100Y-117185600D03*
%TO.N,/USB_DM*%
X112097000Y-116590000D03*
%TO.N,/USB_DP*%
X113707100Y-117022200D03*
%TO.N,/SD_POWER_EN*%
X112602700Y-126026800D03*
X109859100Y-126935400D03*
X114030400Y-120476600D03*
X114795200Y-117129800D03*
%TO.N,/GPIO8_STRAP*%
X117230900Y-116770600D03*
%TO.N,/SD_CS_MCU*%
X114627800Y-120697200D03*
X119057600Y-117830700D03*
%TO.N,/SD_CARD_DETECT*%
X126555000Y-113053500D03*
X119114900Y-113053500D03*
%TO.N,/CHARGER_PGOOD_N*%
X122091300Y-115159500D03*
X105715200Y-133834800D03*
X119167900Y-114263800D03*
%TO.N,/UART_RX*%
X119174400Y-111233600D03*
X103869300Y-113001700D03*
%TO.N,/UART_TX*%
X118339100Y-113160000D03*
X105609300Y-113160000D03*
D38*
%TO.N,/VBUS_USB*%
X111721900Y-130503600D03*
X106811300Y-133043600D03*
X107310100Y-127691000D03*
X111600000Y-132626200D03*
D39*
%TO.N,/USB_CC1*%
X113626900Y-126614900D03*
X105944800Y-135373200D03*
%TO.N,/USB_DP_CONN*%
X114808400Y-130133900D03*
%TO.N,/USB_DM_CONN*%
X113912700Y-130139200D03*
%TO.N,/BQ_ILIM*%
X107690300Y-128297200D03*
X103836000Y-128406500D03*
%TO.N,/BQ_TMR*%
X101672700Y-127766700D03*
%TO.N,/BQ_ITERM*%
X103862200Y-127591100D03*
%TO.N,/BQ_ISET*%
X101039700Y-128000000D03*
%TO.N,/SD_CS_CARD*%
X113291100Y-122851000D03*
X122931600Y-125137600D03*
%TO.N,/SD_MOSI_CARD*%
X125394000Y-127140700D03*
X120630600Y-117037300D03*
X124501000Y-117108700D03*
X111046900Y-118749800D03*
X127063400Y-125420200D03*
D38*
%TO.N,/SD_3V3*%
X115676900Y-125377500D03*
X106098300Y-126535800D03*
D39*
%TO.N,/SD_CLK_CARD*%
X121994700Y-123727200D03*
X107392200Y-120293700D03*
%TO.N,/SD_MISO_CARD*%
X111315700Y-120777900D03*
X126556500Y-120885000D03*
X125184200Y-131217000D03*
%TO.N,/SD_DAT1_UNUSED*%
X124717700Y-130892000D03*
X105594300Y-122916000D03*
%TO.N,/USB_DM_ESD*%
X110070000Y-122279400D03*
X111367200Y-128862500D03*
%TO.N,/USB_DP_ESD*%
X114798400Y-125804200D03*
X114590500Y-127595700D03*
%TO.N,/SD_SLEW_CT*%
X109070200Y-122791000D03*
X104555700Y-128155100D03*
%TD*%
%TO.N,/3V3*%
D40*
X117101300Y-118557100D02*
X116778600Y-118879800D01*
X109500000Y-119467100D02*
X109500000Y-119275000D01*
X125181300Y-121564300D02*
X125181300Y-123693700D01*
X105187500Y-123275000D02*
X104200000Y-123275000D01*
X116600000Y-129450000D02*
X116600000Y-129214600D01*
X116600000Y-129214600D02*
X115289700Y-127904300D01*
X108219900Y-119467100D02*
X107652000Y-118899200D01*
X125181300Y-123693700D02*
X124275000Y-124600000D01*
X106840800Y-121591600D02*
X108142000Y-120290400D01*
X120441900Y-124600000D02*
X124275000Y-124600000D01*
X120407600Y-128550000D02*
X120144000Y-128550000D01*
X118200000Y-129450000D02*
X116600000Y-129450000D01*
X105586000Y-123673400D02*
X106793400Y-122466000D01*
X124275000Y-124600000D02*
X124675000Y-125000000D01*
X120407600Y-132814900D02*
X120407600Y-128550000D01*
X119603000Y-125438900D02*
X119488900Y-125438900D01*
X119100000Y-128550000D02*
X118200000Y-129450000D01*
X107053900Y-109283500D02*
X107053900Y-109793700D01*
X108142000Y-120073000D02*
X108219900Y-119995100D01*
X106793400Y-122466000D02*
X106793400Y-122145400D01*
X107837400Y-108500000D02*
X107053900Y-109283500D01*
X120144000Y-128550000D02*
X119100000Y-128550000D01*
X108142000Y-120290400D02*
X108142000Y-120073000D01*
X108100000Y-108500000D02*
X107837400Y-108500000D01*
X119603000Y-125438900D02*
X120441900Y-124600000D01*
X106840800Y-122098000D02*
X106840800Y-121591600D01*
X119175000Y-118700000D02*
X119032100Y-118557100D01*
X121350000Y-128550000D02*
X120407600Y-128550000D01*
X121350000Y-128550000D02*
X121350000Y-128200000D01*
X106050000Y-124137500D02*
X105586000Y-123673400D01*
X109500000Y-119467100D02*
X108219900Y-119467100D01*
X120144000Y-128550000D02*
X120144000Y-125979900D01*
X119488900Y-125438900D02*
X119000000Y-124950000D01*
X121350000Y-129200000D02*
X121350000Y-128700000D01*
X120144000Y-125979900D02*
X119603000Y-125438900D01*
X109500000Y-120212500D02*
X109500000Y-119467100D01*
X105586000Y-123673400D02*
X105187500Y-123275000D01*
X121350000Y-128700000D02*
X121350000Y-128550000D01*
X119032100Y-118557100D02*
X117101300Y-118557100D01*
X107652000Y-118899200D02*
X107652000Y-118813700D01*
X106793400Y-122145400D02*
X106840800Y-122098000D01*
X108219900Y-119995100D02*
X108219900Y-119467100D01*
X111137500Y-121850000D02*
X109500000Y-120212500D01*
%TO.N,/BUCK_PG_N*%
D41*
X126960800Y-124364200D02*
X126960800Y-112500100D01*
X119900000Y-112500000D02*
X119167900Y-112500000D01*
X126325000Y-125000000D02*
X126960800Y-124364200D01*
X124650000Y-127200000D02*
X126325000Y-125525000D01*
X119167900Y-112500000D02*
X119167900Y-112500100D01*
X126325000Y-125525000D02*
X126325000Y-125000000D01*
%TO.N,/GND*%
D40*
X111137500Y-125750000D02*
X111000000Y-125887500D01*
X127325000Y-134786200D02*
X125318900Y-134786200D01*
X116075000Y-120075000D02*
X115248300Y-120075000D01*
X108050000Y-115850000D02*
X108100000Y-115800000D01*
X108050000Y-106850000D02*
X108100000Y-106900000D01*
X119000000Y-122173300D02*
X119000000Y-123050000D01*
X126500000Y-126525000D02*
X127298900Y-127323900D01*
X108100000Y-115589100D02*
X108100000Y-114900000D01*
X112400000Y-106000000D02*
X113200000Y-106000000D01*
X109400000Y-137100000D02*
X109400000Y-133100000D01*
X106000000Y-129500000D02*
X106000000Y-129700100D01*
X109000000Y-126025000D02*
X108526300Y-126025000D01*
X111137500Y-123800000D02*
X111853100Y-123800000D01*
X112212500Y-128864100D02*
X111000000Y-127651600D01*
X105250000Y-130175400D02*
X105250000Y-130250000D01*
X112025000Y-110900000D02*
X112025000Y-112875000D01*
X119100000Y-126650000D02*
X117945600Y-126650000D01*
X112025000Y-110900000D02*
X112025000Y-108925000D01*
X120000000Y-122968800D02*
X120856200Y-123825000D01*
X118000000Y-106000000D02*
X118800000Y-106000000D01*
X102100000Y-119544000D02*
X101880900Y-119324900D01*
X105737400Y-129700100D02*
X105262100Y-130175400D01*
X117200000Y-106000000D02*
X118000000Y-106000000D01*
X110800000Y-114100000D02*
X110800000Y-115800000D01*
X118850000Y-105950000D02*
X118800000Y-106000000D01*
D42*
X106720800Y-130420900D02*
X106720800Y-130675400D01*
D40*
X119950000Y-105950000D02*
X118850000Y-105950000D01*
X108100000Y-115589100D02*
X108100000Y-116509300D01*
X123000000Y-128700000D02*
X123920600Y-127779400D01*
X127325000Y-134786200D02*
X127325000Y-130450000D01*
X110800000Y-132501700D02*
X109998300Y-132501700D01*
X107314500Y-131079500D02*
X106892000Y-131079500D01*
X115123200Y-119949900D02*
X112876800Y-119949900D01*
X117200000Y-131700000D02*
X117200000Y-132100800D01*
X117200000Y-133100000D02*
X117200000Y-133821200D01*
X109200000Y-106000000D02*
X109000000Y-106000000D01*
X117200000Y-132100800D02*
X117200000Y-133100000D01*
X113200000Y-106000000D02*
X114000000Y-106000000D01*
X109315700Y-117725000D02*
X109500000Y-117725000D01*
X104608000Y-125133000D02*
X104200000Y-124725000D01*
X101950000Y-117527000D02*
X101950000Y-117083700D01*
X119850000Y-115850000D02*
X119950000Y-115850000D01*
X112400000Y-108550000D02*
X112400000Y-106000000D01*
X125579500Y-127700000D02*
X126500000Y-126779500D01*
X124650000Y-127700000D02*
X125579500Y-127700000D01*
X120129700Y-121844600D02*
X120000000Y-121844600D01*
D43*
X126473000Y-117950000D02*
X125708000Y-119000000D01*
D40*
X106000000Y-129700100D02*
X106573100Y-130273200D01*
X112025000Y-112875000D02*
X110800000Y-114100000D01*
X111853100Y-123800000D02*
X112226000Y-124172900D01*
X115975000Y-108925000D02*
X115975000Y-106425000D01*
X118600000Y-133100000D02*
X117200000Y-133100000D01*
X126473000Y-117950000D02*
X124325000Y-115802000D01*
D44*
X124189100Y-127700000D02*
X124109700Y-127779400D01*
D40*
X114000000Y-112875000D02*
X114000000Y-110900000D01*
X109000000Y-106000000D02*
X108100000Y-106900000D01*
X116431400Y-120075000D02*
X116075000Y-120075000D01*
X127298900Y-127323900D02*
X127298900Y-128826100D01*
X111511700Y-119959300D02*
X111511700Y-120075000D01*
X108100000Y-116509300D02*
X109315700Y-117725000D01*
X115975000Y-112875000D02*
X115975000Y-110900000D01*
X119918800Y-123050000D02*
X119000000Y-123050000D01*
X115248300Y-120075000D02*
X115123200Y-119949900D01*
X106750000Y-130704600D02*
X106750000Y-130937500D01*
X120000000Y-115900000D02*
X124227000Y-115900000D01*
X106892000Y-131079500D02*
X106750000Y-130937500D01*
D43*
X101950000Y-117527000D02*
X103000000Y-118292000D01*
D40*
X126500000Y-126779500D02*
X126500000Y-126525000D01*
X127325000Y-136500000D02*
X127325000Y-134786200D01*
X104200000Y-124725000D02*
X103403100Y-123928100D01*
X111000000Y-126025000D02*
X109000000Y-126025000D01*
X114000000Y-110900000D02*
X114000000Y-108925000D01*
D44*
X121890300Y-127779400D02*
X121810900Y-127700000D01*
D40*
X123920600Y-127779400D02*
X124109700Y-127779400D01*
X109500000Y-117947600D02*
X111511700Y-119959300D01*
X114000000Y-106000000D02*
X114800000Y-106000000D01*
X105250000Y-130250000D02*
X105250000Y-130937500D01*
X116901700Y-120075000D02*
X119000000Y-122173300D01*
X111000000Y-125887500D02*
X111000000Y-126025000D01*
X110800000Y-131989300D02*
X110800000Y-132501700D01*
X110800000Y-106000000D02*
X111600000Y-106000000D01*
X111925000Y-120075000D02*
X112751700Y-120075000D01*
X109998300Y-132501700D02*
X109400000Y-133100000D01*
X112226000Y-125339300D02*
X111815300Y-125750000D01*
X117945600Y-126650000D02*
X117945600Y-124104400D01*
X127298900Y-128826100D02*
X126500000Y-129625000D01*
X110000000Y-106000000D02*
X110800000Y-106000000D01*
X116875000Y-112875000D02*
X119850000Y-115850000D01*
X108050000Y-105950000D02*
X108050000Y-106850000D01*
X122079400Y-127779400D02*
X121890300Y-127779400D01*
X111925000Y-120075000D02*
X111511700Y-120075000D01*
X111000000Y-127651600D02*
X111000000Y-126025000D01*
X114800000Y-106000000D02*
X115600000Y-106000000D01*
D42*
X105250000Y-130250000D02*
X104562500Y-130250000D01*
D40*
X115600000Y-106000000D02*
X116000000Y-106400000D01*
X110800000Y-131700000D02*
X110800000Y-130512500D01*
X116600000Y-127550000D02*
X117045600Y-127550000D01*
X108100000Y-107700000D02*
X108100000Y-106900000D01*
X115975000Y-112875000D02*
X116875000Y-112875000D01*
X110800000Y-130512500D02*
X112212500Y-129100000D01*
X116000000Y-106400000D02*
X116400000Y-106000000D01*
X120000000Y-121844600D02*
X120000000Y-122968800D01*
X123000000Y-128700000D02*
X122079400Y-127779400D01*
X111600000Y-106000000D02*
X112400000Y-106000000D01*
X110800000Y-131989300D02*
X110800000Y-131700000D01*
X123100000Y-121725000D02*
X123500000Y-121725000D01*
X112212500Y-129100000D02*
X112212500Y-128864100D01*
X121000000Y-123825000D02*
X123100000Y-121725000D01*
D44*
X124650000Y-127700000D02*
X124189100Y-127700000D01*
D40*
X101950000Y-117083700D02*
X101827800Y-116961500D01*
X106000000Y-129700100D02*
X105737400Y-129700100D01*
X106720800Y-130675400D02*
X106750000Y-130704600D01*
X102163100Y-134200000D02*
X102500000Y-133863100D01*
X106365700Y-125133000D02*
X104608000Y-125133000D01*
X107000000Y-124498700D02*
X106365700Y-125133000D01*
X112226000Y-124172900D02*
X112226000Y-125339300D01*
X101880900Y-117596100D02*
X101950000Y-117527000D01*
X108526300Y-126025000D02*
X107000000Y-124498700D01*
X115975000Y-110900000D02*
X115975000Y-108925000D01*
X103403100Y-123928100D02*
X103403100Y-121725000D01*
X111815300Y-125750000D02*
X111137500Y-125750000D01*
X117045600Y-127550000D02*
X117945600Y-126650000D01*
X119950000Y-115850000D02*
X120000000Y-115900000D01*
X115975000Y-106425000D02*
X116000000Y-106400000D01*
X120000000Y-115900000D02*
X120000000Y-121844600D01*
D44*
X121810900Y-127700000D02*
X121350000Y-127700000D01*
D40*
X101200000Y-134200000D02*
X102163100Y-134200000D01*
X124325000Y-115802000D02*
X124325000Y-114500000D01*
X117945600Y-124104400D02*
X119000000Y-123050000D01*
D42*
X105262100Y-130175400D02*
X105250000Y-130175400D01*
X106573100Y-130273200D02*
X106720800Y-130420900D01*
D40*
X103403100Y-121725000D02*
X104200000Y-121725000D01*
X116400000Y-106000000D02*
X117200000Y-106000000D01*
X112876800Y-119949900D02*
X112751700Y-120075000D01*
X102500000Y-121725000D02*
X103403100Y-121725000D01*
X109500000Y-117725000D02*
X109500000Y-117947600D01*
X108100000Y-115800000D02*
X108100000Y-115589100D01*
X112025000Y-108925000D02*
X112400000Y-108550000D01*
X107000000Y-124498700D02*
X107000000Y-124137500D01*
X118600000Y-137100000D02*
X118600000Y-133100000D01*
X117200000Y-133821200D02*
X116766700Y-134254500D01*
X114000000Y-108925000D02*
X114000000Y-106000000D01*
X120000000Y-122968800D02*
X119918800Y-123050000D01*
X120856200Y-123825000D02*
X121000000Y-123825000D01*
X110000000Y-106000000D02*
X109200000Y-106000000D01*
X101880900Y-119324900D02*
X101880900Y-117596100D01*
X124227000Y-115900000D02*
X124325000Y-115802000D01*
X127325000Y-130450000D02*
X126500000Y-129625000D01*
X116431400Y-120075000D02*
X116901700Y-120075000D01*
%TO.N,/RECORD_LED_A*%
D41*
X113825000Y-129062500D02*
X113825000Y-127500000D01*
X113787500Y-129100000D02*
X113825000Y-129062500D01*
%TO.N,/BUCK_L1*%
D40*
X124185000Y-130665000D02*
X124185000Y-133300000D01*
X124650000Y-129700000D02*
X124650000Y-130200000D01*
X124650000Y-130200000D02*
X124185000Y-130665000D01*
%TO.N,/BUCK_L2*%
X121350000Y-132835000D02*
X121815000Y-133300000D01*
X121350000Y-130200000D02*
X121350000Y-129700000D01*
X121350000Y-130200000D02*
X121350000Y-132835000D01*
%TO.N,/MIC_POWER_EN*%
D41*
X114549500Y-123541300D02*
X113125600Y-122117400D01*
X107819900Y-124007400D02*
X107819900Y-123134300D01*
X114549500Y-125172900D02*
X114798200Y-125172900D01*
X114549500Y-125172900D02*
X114500900Y-125172900D01*
X122675000Y-114393100D02*
X119981900Y-111700000D01*
X107950000Y-124137500D02*
X107819900Y-124007400D01*
X114549500Y-124077400D02*
X114549500Y-123541300D01*
X112175000Y-127498800D02*
X112175000Y-127500000D01*
X114798200Y-125172900D02*
X115479500Y-125854200D01*
X114500900Y-125172900D02*
X112175000Y-127498800D01*
X122675000Y-114500000D02*
X122675000Y-114393100D01*
X115479500Y-125854200D02*
X116758300Y-125854200D01*
X119981900Y-111700000D02*
X119900000Y-111700000D01*
X114549500Y-125172900D02*
X114549500Y-124077400D01*
X122675000Y-114500000D02*
X123028800Y-114853800D01*
X116758300Y-125854200D02*
X116862500Y-125750000D01*
X123028800Y-114853800D02*
X123408000Y-114853800D01*
X113125600Y-122117400D02*
X112888300Y-122117400D01*
%TO.N,/1V85*%
D40*
X123378400Y-120157600D02*
X123636000Y-119900000D01*
X106530100Y-118825300D02*
X106530800Y-118824600D01*
X102500000Y-124575000D02*
X102500000Y-123275000D01*
X123762500Y-120206500D02*
X124298900Y-120742900D01*
X101992500Y-120949700D02*
X103365600Y-120949700D01*
X106712000Y-115260600D02*
X106586200Y-115134800D01*
X103900000Y-120415300D02*
X103900000Y-120364000D01*
X101676400Y-121265800D02*
X101992500Y-120949700D01*
X122036300Y-118589600D02*
X123130200Y-117495700D01*
X104833400Y-120645800D02*
X104551500Y-120364000D01*
X123762400Y-120026400D02*
X123762500Y-120026400D01*
X106586200Y-115134800D02*
X106586200Y-114883400D01*
X103365600Y-120949700D02*
X103900000Y-120415300D01*
X107409100Y-125984100D02*
X104490900Y-125984100D01*
X124456000Y-117935500D02*
X124456000Y-118100000D01*
X104833400Y-120645800D02*
X106530100Y-118949100D01*
X122049500Y-120157600D02*
X123378400Y-120157600D01*
X124298900Y-122476100D02*
X123500000Y-123275000D01*
X106530800Y-118824600D02*
X106530800Y-117873300D01*
X121039100Y-121566600D02*
X122049500Y-120556200D01*
X101676400Y-122451400D02*
X101676400Y-121265800D01*
X122036300Y-120144400D02*
X122036300Y-118589600D01*
X106682000Y-117722100D02*
X106682000Y-115726800D01*
X106586200Y-114883400D02*
X105750900Y-114048100D01*
X109000000Y-127575000D02*
X107409100Y-125984100D01*
X106682000Y-115726800D02*
X106712000Y-115696800D01*
X106050000Y-121862500D02*
X104833400Y-120645800D01*
X122049500Y-120556200D02*
X122049500Y-120157600D01*
X104551500Y-120364000D02*
X103900000Y-120364000D01*
X106530100Y-118949100D02*
X106530100Y-118825300D01*
X116862500Y-121850000D02*
X116255200Y-121242700D01*
X102500000Y-123275000D02*
X101676400Y-122451400D01*
X122049500Y-120157600D02*
X122036300Y-120144400D01*
X104200000Y-126275000D02*
X102500000Y-124575000D01*
X106712000Y-115696800D02*
X106712000Y-115260600D01*
X106530800Y-117873300D02*
X106682000Y-117722100D01*
X104490900Y-125984100D02*
X104200000Y-126275000D01*
X123636000Y-119900000D02*
X123762400Y-120026400D01*
X124016200Y-117495700D02*
X124456000Y-117935500D01*
X123130200Y-117495700D02*
X124016200Y-117495700D01*
X123762500Y-120026400D02*
X123762500Y-120206500D01*
X124298900Y-120742900D02*
X124298900Y-122476100D01*
%TO.N,/SYS_RAW*%
X124650000Y-128700000D02*
X124650000Y-129200000D01*
X107953200Y-129750000D02*
X109698300Y-131495100D01*
X124650000Y-128200000D02*
X124650000Y-128700000D01*
X126375000Y-128200000D02*
X126500000Y-128075000D01*
X124650000Y-128200000D02*
X125702900Y-128200000D01*
X125702900Y-130377900D02*
X126500000Y-131175000D01*
X121000000Y-125375000D02*
X121350000Y-125725000D01*
X121350000Y-125725000D02*
X121350000Y-126346800D01*
X107437500Y-129250000D02*
X107437500Y-129750000D01*
X125414700Y-133910200D02*
X126500000Y-132824900D01*
X125702900Y-128200000D02*
X125702900Y-130377900D01*
X121350000Y-127200000D02*
X121350000Y-126346800D01*
X107437500Y-129750000D02*
X107953200Y-129750000D01*
X126500000Y-132824900D02*
X126500000Y-131175000D01*
X125702900Y-128200000D02*
X126375000Y-128200000D01*
X109698300Y-131495100D02*
X109698300Y-131917800D01*
%TO.N,/CHARGE_LED_A*%
D41*
X120825000Y-120162500D02*
X120825000Y-118700000D01*
X120787500Y-120200000D02*
X120825000Y-120162500D01*
%TO.N,/CHARGER_CHG_N*%
X107839500Y-130652000D02*
X107839500Y-131884100D01*
X119004600Y-120200000D02*
X117888400Y-119083800D01*
X120645000Y-113300000D02*
X121711200Y-114366200D01*
X107437500Y-130250000D02*
X107839500Y-130652000D01*
X119900000Y-113300000D02*
X120645000Y-113300000D01*
X119212500Y-120200000D02*
X119004600Y-120200000D01*
%TO.N,/USER_BUTTON*%
X116075000Y-117925000D02*
X115373300Y-117925000D01*
X111223300Y-117925000D02*
X109200000Y-115901700D01*
X111947700Y-117925000D02*
X111925000Y-117925000D01*
X111925000Y-117925000D02*
X111223300Y-117925000D01*
X117715800Y-117357300D02*
X117148100Y-117925000D01*
X109200000Y-115901700D02*
X109200000Y-115800000D01*
X112626700Y-117925000D02*
X115373300Y-117925000D01*
X118000000Y-115800000D02*
X118000000Y-117073100D01*
X117148100Y-117925000D02*
X116075000Y-117925000D01*
X118000000Y-117073100D02*
X117715800Y-117357300D01*
X111947700Y-117925000D02*
X112626700Y-117925000D01*
%TO.N,/I2S_WS_1V85*%
X116862500Y-123150000D02*
X117393700Y-123150000D01*
X123297800Y-118100000D02*
X122574700Y-118823100D01*
X117393700Y-123150000D02*
X117830100Y-122713600D01*
X101924400Y-120364000D02*
X100614000Y-119053600D01*
X123636000Y-118100000D02*
X123297800Y-118100000D01*
X102100000Y-120364000D02*
X101924400Y-120364000D01*
X100614000Y-119053600D02*
X100614000Y-116752500D01*
X117830100Y-122713600D02*
X117830100Y-121617500D01*
X117830100Y-121617500D02*
X117232900Y-121020300D01*
X117232900Y-121020300D02*
X117089300Y-121020300D01*
%TO.N,/I2S_BCLK_1V85*%
X103900000Y-119544000D02*
X105190400Y-119544000D01*
X124456000Y-120235500D02*
X124829300Y-120608800D01*
X105190400Y-119544000D02*
X106003400Y-118731000D01*
X115726100Y-123798300D02*
X115726100Y-123027500D01*
X116862500Y-122500000D02*
X116253600Y-122500000D01*
X124456000Y-119900000D02*
X124456000Y-120235500D01*
X115726100Y-123027500D02*
X116253600Y-122500000D01*
X116253600Y-122500000D02*
X115738500Y-121984900D01*
%TO.N,/I2S_SD_1V85*%
X102562100Y-119926100D02*
X101862700Y-119926100D01*
X115753600Y-124450000D02*
X115324400Y-124020800D01*
X101293000Y-119356400D02*
X101293000Y-114825300D01*
X116862500Y-124450000D02*
X115753600Y-124450000D01*
X122563000Y-119630900D02*
X123193900Y-119000000D01*
X101862700Y-119926100D02*
X101293000Y-119356400D01*
X115324400Y-123742100D02*
X114003300Y-122421000D01*
X115324400Y-124020800D02*
X115324400Y-123742100D01*
X123193900Y-119000000D02*
X123636000Y-119000000D01*
X103000000Y-120364000D02*
X102562100Y-119926100D01*
%TO.N,/BAT_PLUS*%
D40*
X101200000Y-136200000D02*
X101737900Y-136200000D01*
X101737900Y-136200000D02*
X103640000Y-134297900D01*
X103640000Y-134297900D02*
X103640000Y-130723100D01*
X104562500Y-129750000D02*
X104079400Y-129750000D01*
X103640000Y-130189400D02*
X103640000Y-130723100D01*
X104079400Y-129750000D02*
X103640000Y-130189400D01*
X104562500Y-129750000D02*
X104562500Y-129250000D01*
%TO.N,/BQ_TS*%
D45*
X100799800Y-135200000D02*
X101200000Y-135200000D01*
X100262500Y-132750100D02*
X100262500Y-134700000D01*
X104192300Y-128750000D02*
X100262500Y-132750100D01*
X104562500Y-128750000D02*
X104192300Y-128750000D01*
X100262500Y-134700000D02*
X100799800Y-135200000D01*
%TO.N,/I2S_SD_3V3*%
D41*
X109664200Y-124450000D02*
X111137500Y-124450000D01*
X108100000Y-110100000D02*
X107685800Y-110100000D01*
X107685800Y-110100000D02*
X104323100Y-113462700D01*
X108913300Y-123699100D02*
X109664200Y-124450000D01*
X104323100Y-115671800D02*
X106155300Y-117504000D01*
X104323100Y-113462700D02*
X104323100Y-115671800D01*
%TO.N,/I2S_BCLK_3V3*%
X105204800Y-114498200D02*
X105204800Y-112954000D01*
X107258700Y-110900100D02*
X108100000Y-110900100D01*
X109654800Y-121049700D02*
X108866100Y-120261000D01*
X109654800Y-122450000D02*
X109654800Y-121049700D01*
X109943800Y-122739000D02*
X109654800Y-122450000D01*
X111137500Y-122500000D02*
X110898500Y-122739000D01*
X105204800Y-112954000D02*
X107258700Y-110900100D01*
X108100000Y-110900100D02*
X108100000Y-110900000D01*
X110898500Y-122739000D02*
X109943800Y-122739000D01*
X106185300Y-115478700D02*
X105204800Y-114498200D01*
%TO.N,/ESP_EN*%
X106227200Y-112500000D02*
X106142000Y-112585200D01*
X108100000Y-112500000D02*
X106227200Y-112500000D01*
%TO.N,/BAT_SENSE*%
X107170700Y-112116800D02*
X107053900Y-112000000D01*
X108100000Y-113300000D02*
X108177600Y-113300000D01*
X108719700Y-112757900D02*
X108719700Y-112276000D01*
X108719700Y-112276000D02*
X108560500Y-112116800D01*
X108560500Y-112116800D02*
X107170700Y-112116800D01*
X108177600Y-113300000D02*
X108719700Y-112757900D01*
%TO.N,/SD_MISO_MCU*%
X109544300Y-116640800D02*
X109309000Y-116405500D01*
X111678900Y-118778700D02*
X109544300Y-116644100D01*
X112601700Y-118778700D02*
X111678900Y-118778700D01*
X108265200Y-114100000D02*
X108100000Y-114100000D01*
X109309000Y-116405500D02*
X108963000Y-116405500D01*
X108756100Y-114590900D02*
X108265200Y-114100000D01*
X109544300Y-116644100D02*
X109544300Y-116640800D01*
X108756100Y-116198600D02*
X108756100Y-114590900D01*
X108963000Y-116405500D02*
X108756100Y-116198600D01*
%TO.N,/I2S_WS_3V3*%
X109179500Y-122330700D02*
X109179500Y-121196900D01*
X107674100Y-113700100D02*
X107117700Y-114256500D01*
X110000000Y-115800000D02*
X110000000Y-115161900D01*
X108538200Y-113700100D02*
X107674100Y-113700100D01*
X111137500Y-123150000D02*
X109998800Y-123150000D01*
X109998800Y-123150000D02*
X109179500Y-122330700D01*
X110000000Y-115161900D02*
X108538200Y-113700100D01*
X107117700Y-114256500D02*
X107117700Y-119675600D01*
%TO.N,/SD_CLK_MCU*%
X111600000Y-116499400D02*
X111079500Y-117019900D01*
X111600000Y-115800000D02*
X111600000Y-116499400D01*
%TO.N,/SD_MOSI_MCU*%
X112400000Y-115774400D02*
X112951300Y-115223100D01*
X112400000Y-115800000D02*
X112400000Y-115774400D01*
X112951300Y-115223100D02*
X114296100Y-115223100D01*
X114376900Y-115303900D02*
X114376900Y-116933700D01*
X113885800Y-117424800D02*
X113306900Y-117424800D01*
X113067700Y-117185600D02*
X112191100Y-117185600D01*
X113306900Y-117424800D02*
X113067700Y-117185600D01*
X114296100Y-115223100D02*
X114376900Y-115303900D01*
X114376900Y-116933700D02*
X113885800Y-117424800D01*
%TO.N,/USB_DM*%
X113200000Y-115864800D02*
X112474800Y-116590000D01*
X112474800Y-116590000D02*
X112097000Y-116590000D01*
X113200000Y-115800000D02*
X113200000Y-115864800D01*
%TO.N,/USB_DP*%
X113707100Y-116092900D02*
X113707100Y-117022200D01*
X114000000Y-115800000D02*
X113707100Y-116092900D01*
%TO.N,/SD_POWER_EN*%
X113922600Y-120476600D02*
X112429300Y-121969900D01*
X115600000Y-115800000D02*
X115600000Y-116325000D01*
X112429300Y-121969900D02*
X112429300Y-123077800D01*
X112429300Y-123077800D02*
X112602700Y-123251200D01*
X115600000Y-116325000D02*
X114795200Y-117129800D01*
X112602700Y-123251200D02*
X112602700Y-126026800D01*
X114030400Y-120476600D02*
X113922600Y-120476600D01*
%TO.N,/GPIO8_STRAP*%
X117200000Y-116739700D02*
X117230900Y-116770600D01*
X117200000Y-115800000D02*
X117200000Y-116739700D01*
%TO.N,/SD_CS_MCU*%
X118800000Y-117573100D02*
X119057600Y-117830700D01*
X118800000Y-115800000D02*
X118800000Y-117573100D01*
%TO.N,/SD_CARD_DETECT*%
X119981600Y-114900000D02*
X119900000Y-114900000D01*
X120489800Y-113845100D02*
X120489800Y-114391800D01*
X119474400Y-113700000D02*
X120344700Y-113700000D01*
X120489800Y-114391800D02*
X119981600Y-114900000D01*
X120344700Y-113700000D02*
X120489800Y-113845100D01*
X119114900Y-113340500D02*
X119474400Y-113700000D01*
X119114900Y-113053500D02*
X119114900Y-113340500D01*
%TO.N,/CHARGER_PGOOD_N*%
X106250000Y-130937500D02*
X106250000Y-131325600D01*
X107300300Y-132375900D02*
X107300300Y-133229000D01*
X119167900Y-114263800D02*
X119736200Y-114263800D01*
X106694500Y-133834800D02*
X105715200Y-133834800D01*
X106250000Y-131325600D02*
X107300300Y-132375900D01*
X119736200Y-114263800D02*
X119900000Y-114100000D01*
X107300300Y-133229000D02*
X106694500Y-133834800D01*
%TO.N,/UART_RX*%
X119508000Y-110900000D02*
X119174400Y-111233600D01*
X119900000Y-110900000D02*
X119508000Y-110900000D01*
%TO.N,/UART_TX*%
X119738400Y-110100000D02*
X118339100Y-111499300D01*
X119900000Y-110100000D02*
X119738400Y-110100000D01*
X118339100Y-111499300D02*
X118339100Y-113160000D01*
%TO.N,/USB_CC2*%
X115250000Y-131700000D02*
X115250000Y-131023300D01*
X119496500Y-132684800D02*
X117740000Y-130928300D01*
X125675000Y-136500000D02*
X122534400Y-136500000D01*
X117740000Y-130928300D02*
X115345000Y-130928300D01*
X115345000Y-130928300D02*
X115250000Y-131023300D01*
X122534400Y-136500000D02*
X119496500Y-133462100D01*
X119496500Y-133462100D02*
X119496500Y-132684800D01*
%TO.N,/VBUS_USB*%
D40*
X111600000Y-131700000D02*
X111600000Y-130625500D01*
X106811200Y-132807200D02*
X106811200Y-133043600D01*
X116400000Y-132501700D02*
X116124400Y-132777300D01*
X106750000Y-128062500D02*
X107121500Y-127691000D01*
X107121500Y-127691000D02*
X107310100Y-127691000D01*
X111600000Y-132100800D02*
X111600000Y-132501700D01*
X105750000Y-130937500D02*
X105750000Y-131746000D01*
X116124400Y-132777300D02*
X111875600Y-132777300D01*
X111875600Y-132777300D02*
X111600000Y-132501700D01*
X105750000Y-131746000D02*
X106811200Y-132807200D01*
X111600000Y-130625500D02*
X111721900Y-130503600D01*
X111600000Y-132501700D02*
X111600000Y-132626200D01*
X116400000Y-131700000D02*
X116400000Y-132501700D01*
X106811200Y-133043600D02*
X106811300Y-133043600D01*
X111600000Y-132100800D02*
X111600000Y-131700000D01*
%TO.N,/USB_CC1*%
D41*
X112924800Y-127317000D02*
X112924800Y-129801000D01*
X113626900Y-126614900D02*
X112924800Y-127317000D01*
X112750000Y-129975800D02*
X112750000Y-131700000D01*
X112924800Y-129801000D02*
X112750000Y-129975800D01*
%TO.N,/USB_DP_CONN*%
X114750000Y-132038300D02*
X114750000Y-131700000D01*
X114750000Y-130192300D02*
X114808400Y-130133900D01*
X113750000Y-131700000D02*
X113750000Y-132376700D01*
X114750000Y-132038300D02*
X114750000Y-132376700D01*
X114750000Y-132376700D02*
X113750000Y-132376700D01*
X114750000Y-131700000D02*
X114750000Y-130192300D01*
%TO.N,/USB_DM_CONN*%
X113912700Y-130139200D02*
X113912700Y-131023300D01*
X113250000Y-131700000D02*
X113250000Y-131023300D01*
X113912700Y-131023300D02*
X114250000Y-131023300D01*
X113250000Y-131023300D02*
X113912700Y-131023300D01*
X114250000Y-131700000D02*
X114250000Y-131023300D01*
%TO.N,/BQ_ILIM*%
X107690300Y-128297200D02*
X107437500Y-128550000D01*
X107437500Y-128550000D02*
X107437500Y-128750000D01*
%TO.N,/BQ_TMR*%
X106250000Y-127712200D02*
X105693300Y-127155500D01*
X102283900Y-127155500D02*
X101672700Y-127766700D01*
X105693300Y-127155500D02*
X102283900Y-127155500D01*
X106250000Y-128062500D02*
X106250000Y-127712200D01*
%TO.N,/BQ_ITERM*%
X105750000Y-127765500D02*
X105425400Y-127440900D01*
X104012400Y-127440900D02*
X103862200Y-127591100D01*
X105750000Y-128062500D02*
X105750000Y-127765500D01*
X105425400Y-127440900D02*
X104012400Y-127440900D01*
%TO.N,/BQ_ISET*%
X101208100Y-128168400D02*
X101039700Y-128000000D01*
X103385500Y-128168400D02*
X101208100Y-128168400D01*
X104388300Y-127753400D02*
X104148800Y-127992900D01*
X105250000Y-128062500D02*
X104940900Y-127753400D01*
X103561000Y-127992900D02*
X103385500Y-128168400D01*
X104940900Y-127753400D02*
X104388300Y-127753400D01*
X104148800Y-127992900D02*
X103561000Y-127992900D01*
%TO.N,/SD_MOSI_CARD*%
X124429600Y-117037300D02*
X124501000Y-117108700D01*
X120630600Y-117037300D02*
X124429600Y-117037300D01*
%TO.N,/USB_DP_ESD*%
X114590500Y-127595700D02*
X114798400Y-127387800D01*
X114798400Y-127387800D02*
X114798400Y-125804200D01*
%TD*%
M02*
