%TF.GenerationSoftware,KiCad,Pcbnew,10.0.4*%
%TF.CreationDate,2026-07-17T09:54:58+02:00*%
%TF.ProjectId,neorecall-wearable-v1,6e656f72-6563-4616-9c6c-2d7765617261,rev?*%
%TF.SameCoordinates,Original*%
%TF.FileFunction,Drillmap*%
%TF.FilePolarity,Positive*%
%FSLAX45Y45*%
G04 Gerber Fmt 4.5, Leading zero omitted, Abs format (unit mm)*
G04 Created by KiCad (PCBNEW 10.0.4) date 2026-07-17 09:54:58*
%MOMM*%
%LPD*%
G01*
G04 APERTURE LIST*
%ADD10C,0.050000*%
%ADD11C,0.200000*%
%ADD12C,0.100000*%
G04 APERTURE END LIST*
D10*
X10000000Y-10000000D02*
X12800000Y-10000000D01*
X10000000Y-13800000D02*
X10000000Y-10000000D01*
X12800000Y-10000000D02*
X12800000Y-13800000D01*
X12800000Y-13800000D02*
X10000000Y-13800000D01*
D11*
D12*
X10250000Y-11779200D02*
X10350000Y-11879200D01*
X10350000Y-11779200D02*
X10250000Y-11879200D01*
X12520800Y-11850000D02*
X12620800Y-11950000D01*
X12620800Y-11850000D02*
X12520800Y-11950000D01*
D11*
X10258277Y-14113984D02*
X10258277Y-13913984D01*
X10258277Y-13913984D02*
X10305896Y-13913984D01*
X10305896Y-13913984D02*
X10334467Y-13923508D01*
X10334467Y-13923508D02*
X10353515Y-13942555D01*
X10353515Y-13942555D02*
X10363039Y-13961603D01*
X10363039Y-13961603D02*
X10372563Y-13999698D01*
X10372563Y-13999698D02*
X10372563Y-14028269D01*
X10372563Y-14028269D02*
X10363039Y-14066365D01*
X10363039Y-14066365D02*
X10353515Y-14085412D01*
X10353515Y-14085412D02*
X10334467Y-14104460D01*
X10334467Y-14104460D02*
X10305896Y-14113984D01*
X10305896Y-14113984D02*
X10258277Y-14113984D01*
X10458277Y-14113984D02*
X10458277Y-13980650D01*
X10458277Y-14018746D02*
X10467801Y-13999698D01*
X10467801Y-13999698D02*
X10477324Y-13990174D01*
X10477324Y-13990174D02*
X10496372Y-13980650D01*
X10496372Y-13980650D02*
X10515420Y-13980650D01*
X10582086Y-14113984D02*
X10582086Y-13980650D01*
X10582086Y-13913984D02*
X10572563Y-13923508D01*
X10572563Y-13923508D02*
X10582086Y-13933031D01*
X10582086Y-13933031D02*
X10591610Y-13923508D01*
X10591610Y-13923508D02*
X10582086Y-13913984D01*
X10582086Y-13913984D02*
X10582086Y-13933031D01*
X10705896Y-14113984D02*
X10686848Y-14104460D01*
X10686848Y-14104460D02*
X10677324Y-14085412D01*
X10677324Y-14085412D02*
X10677324Y-13913984D01*
X10810658Y-14113984D02*
X10791610Y-14104460D01*
X10791610Y-14104460D02*
X10782086Y-14085412D01*
X10782086Y-14085412D02*
X10782086Y-13913984D01*
X11039229Y-14113984D02*
X11039229Y-13913984D01*
X11039229Y-13913984D02*
X11105896Y-14056841D01*
X11105896Y-14056841D02*
X11172563Y-13913984D01*
X11172563Y-13913984D02*
X11172563Y-14113984D01*
X11353515Y-14113984D02*
X11353515Y-14009222D01*
X11353515Y-14009222D02*
X11343991Y-13990174D01*
X11343991Y-13990174D02*
X11324943Y-13980650D01*
X11324943Y-13980650D02*
X11286848Y-13980650D01*
X11286848Y-13980650D02*
X11267801Y-13990174D01*
X11353515Y-14104460D02*
X11334467Y-14113984D01*
X11334467Y-14113984D02*
X11286848Y-14113984D01*
X11286848Y-14113984D02*
X11267801Y-14104460D01*
X11267801Y-14104460D02*
X11258277Y-14085412D01*
X11258277Y-14085412D02*
X11258277Y-14066365D01*
X11258277Y-14066365D02*
X11267801Y-14047317D01*
X11267801Y-14047317D02*
X11286848Y-14037793D01*
X11286848Y-14037793D02*
X11334467Y-14037793D01*
X11334467Y-14037793D02*
X11353515Y-14028269D01*
X11448753Y-13980650D02*
X11448753Y-14180650D01*
X11448753Y-13990174D02*
X11467801Y-13980650D01*
X11467801Y-13980650D02*
X11505896Y-13980650D01*
X11505896Y-13980650D02*
X11524943Y-13990174D01*
X11524943Y-13990174D02*
X11534467Y-13999698D01*
X11534467Y-13999698D02*
X11543991Y-14018746D01*
X11543991Y-14018746D02*
X11543991Y-14075888D01*
X11543991Y-14075888D02*
X11534467Y-14094936D01*
X11534467Y-14094936D02*
X11524943Y-14104460D01*
X11524943Y-14104460D02*
X11505896Y-14113984D01*
X11505896Y-14113984D02*
X11467801Y-14113984D01*
X11467801Y-14113984D02*
X11448753Y-14104460D01*
X11629705Y-14094936D02*
X11639229Y-14104460D01*
X11639229Y-14104460D02*
X11629705Y-14113984D01*
X11629705Y-14113984D02*
X11620182Y-14104460D01*
X11620182Y-14104460D02*
X11629705Y-14094936D01*
X11629705Y-14094936D02*
X11629705Y-14113984D01*
X11629705Y-13990174D02*
X11639229Y-13999698D01*
X11639229Y-13999698D02*
X11629705Y-14009222D01*
X11629705Y-14009222D02*
X11620182Y-13999698D01*
X11620182Y-13999698D02*
X11629705Y-13990174D01*
X11629705Y-13990174D02*
X11629705Y-14009222D01*
D12*
X9897500Y-14392500D02*
X9997500Y-14492500D01*
X9997500Y-14392500D02*
X9897500Y-14492500D01*
D11*
X10363039Y-14533984D02*
X10248753Y-14533984D01*
X10305896Y-14533984D02*
X10305896Y-14333984D01*
X10305896Y-14333984D02*
X10286848Y-14362555D01*
X10286848Y-14362555D02*
X10267801Y-14381603D01*
X10267801Y-14381603D02*
X10248753Y-14391127D01*
X10448753Y-14514936D02*
X10458277Y-14524460D01*
X10458277Y-14524460D02*
X10448753Y-14533984D01*
X10448753Y-14533984D02*
X10439229Y-14524460D01*
X10439229Y-14524460D02*
X10448753Y-14514936D01*
X10448753Y-14514936D02*
X10448753Y-14533984D01*
X10582086Y-14333984D02*
X10601134Y-14333984D01*
X10601134Y-14333984D02*
X10620182Y-14343508D01*
X10620182Y-14343508D02*
X10629705Y-14353031D01*
X10629705Y-14353031D02*
X10639229Y-14372079D01*
X10639229Y-14372079D02*
X10648753Y-14410174D01*
X10648753Y-14410174D02*
X10648753Y-14457793D01*
X10648753Y-14457793D02*
X10639229Y-14495888D01*
X10639229Y-14495888D02*
X10629705Y-14514936D01*
X10629705Y-14514936D02*
X10620182Y-14524460D01*
X10620182Y-14524460D02*
X10601134Y-14533984D01*
X10601134Y-14533984D02*
X10582086Y-14533984D01*
X10582086Y-14533984D02*
X10563039Y-14524460D01*
X10563039Y-14524460D02*
X10553515Y-14514936D01*
X10553515Y-14514936D02*
X10543991Y-14495888D01*
X10543991Y-14495888D02*
X10534467Y-14457793D01*
X10534467Y-14457793D02*
X10534467Y-14410174D01*
X10534467Y-14410174D02*
X10543991Y-14372079D01*
X10543991Y-14372079D02*
X10553515Y-14353031D01*
X10553515Y-14353031D02*
X10563039Y-14343508D01*
X10563039Y-14343508D02*
X10582086Y-14333984D01*
X10772563Y-14333984D02*
X10791610Y-14333984D01*
X10791610Y-14333984D02*
X10810658Y-14343508D01*
X10810658Y-14343508D02*
X10820182Y-14353031D01*
X10820182Y-14353031D02*
X10829705Y-14372079D01*
X10829705Y-14372079D02*
X10839229Y-14410174D01*
X10839229Y-14410174D02*
X10839229Y-14457793D01*
X10839229Y-14457793D02*
X10829705Y-14495888D01*
X10829705Y-14495888D02*
X10820182Y-14514936D01*
X10820182Y-14514936D02*
X10810658Y-14524460D01*
X10810658Y-14524460D02*
X10791610Y-14533984D01*
X10791610Y-14533984D02*
X10772563Y-14533984D01*
X10772563Y-14533984D02*
X10753515Y-14524460D01*
X10753515Y-14524460D02*
X10743991Y-14514936D01*
X10743991Y-14514936D02*
X10734467Y-14495888D01*
X10734467Y-14495888D02*
X10724944Y-14457793D01*
X10724944Y-14457793D02*
X10724944Y-14410174D01*
X10724944Y-14410174D02*
X10734467Y-14372079D01*
X10734467Y-14372079D02*
X10743991Y-14353031D01*
X10743991Y-14353031D02*
X10753515Y-14343508D01*
X10753515Y-14343508D02*
X10772563Y-14333984D01*
X10963039Y-14333984D02*
X10982086Y-14333984D01*
X10982086Y-14333984D02*
X11001134Y-14343508D01*
X11001134Y-14343508D02*
X11010658Y-14353031D01*
X11010658Y-14353031D02*
X11020182Y-14372079D01*
X11020182Y-14372079D02*
X11029705Y-14410174D01*
X11029705Y-14410174D02*
X11029705Y-14457793D01*
X11029705Y-14457793D02*
X11020182Y-14495888D01*
X11020182Y-14495888D02*
X11010658Y-14514936D01*
X11010658Y-14514936D02*
X11001134Y-14524460D01*
X11001134Y-14524460D02*
X10982086Y-14533984D01*
X10982086Y-14533984D02*
X10963039Y-14533984D01*
X10963039Y-14533984D02*
X10943991Y-14524460D01*
X10943991Y-14524460D02*
X10934467Y-14514936D01*
X10934467Y-14514936D02*
X10924944Y-14495888D01*
X10924944Y-14495888D02*
X10915420Y-14457793D01*
X10915420Y-14457793D02*
X10915420Y-14410174D01*
X10915420Y-14410174D02*
X10924944Y-14372079D01*
X10924944Y-14372079D02*
X10934467Y-14353031D01*
X10934467Y-14353031D02*
X10943991Y-14343508D01*
X10943991Y-14343508D02*
X10963039Y-14333984D01*
X11115420Y-14533984D02*
X11115420Y-14400650D01*
X11115420Y-14419698D02*
X11124944Y-14410174D01*
X11124944Y-14410174D02*
X11143991Y-14400650D01*
X11143991Y-14400650D02*
X11172563Y-14400650D01*
X11172563Y-14400650D02*
X11191610Y-14410174D01*
X11191610Y-14410174D02*
X11201134Y-14429222D01*
X11201134Y-14429222D02*
X11201134Y-14533984D01*
X11201134Y-14429222D02*
X11210658Y-14410174D01*
X11210658Y-14410174D02*
X11229705Y-14400650D01*
X11229705Y-14400650D02*
X11258277Y-14400650D01*
X11258277Y-14400650D02*
X11277324Y-14410174D01*
X11277324Y-14410174D02*
X11286848Y-14429222D01*
X11286848Y-14429222D02*
X11286848Y-14533984D01*
X11382086Y-14533984D02*
X11382086Y-14400650D01*
X11382086Y-14419698D02*
X11391610Y-14410174D01*
X11391610Y-14410174D02*
X11410658Y-14400650D01*
X11410658Y-14400650D02*
X11439229Y-14400650D01*
X11439229Y-14400650D02*
X11458277Y-14410174D01*
X11458277Y-14410174D02*
X11467801Y-14429222D01*
X11467801Y-14429222D02*
X11467801Y-14533984D01*
X11467801Y-14429222D02*
X11477324Y-14410174D01*
X11477324Y-14410174D02*
X11496372Y-14400650D01*
X11496372Y-14400650D02*
X11524943Y-14400650D01*
X11524943Y-14400650D02*
X11543991Y-14410174D01*
X11543991Y-14410174D02*
X11553515Y-14429222D01*
X11553515Y-14429222D02*
X11553515Y-14533984D01*
X11943991Y-14324460D02*
X11772563Y-14581603D01*
X12201134Y-14333984D02*
X12220182Y-14333984D01*
X12220182Y-14333984D02*
X12239229Y-14343508D01*
X12239229Y-14343508D02*
X12248753Y-14353031D01*
X12248753Y-14353031D02*
X12258277Y-14372079D01*
X12258277Y-14372079D02*
X12267801Y-14410174D01*
X12267801Y-14410174D02*
X12267801Y-14457793D01*
X12267801Y-14457793D02*
X12258277Y-14495888D01*
X12258277Y-14495888D02*
X12248753Y-14514936D01*
X12248753Y-14514936D02*
X12239229Y-14524460D01*
X12239229Y-14524460D02*
X12220182Y-14533984D01*
X12220182Y-14533984D02*
X12201134Y-14533984D01*
X12201134Y-14533984D02*
X12182086Y-14524460D01*
X12182086Y-14524460D02*
X12172563Y-14514936D01*
X12172563Y-14514936D02*
X12163039Y-14495888D01*
X12163039Y-14495888D02*
X12153515Y-14457793D01*
X12153515Y-14457793D02*
X12153515Y-14410174D01*
X12153515Y-14410174D02*
X12163039Y-14372079D01*
X12163039Y-14372079D02*
X12172563Y-14353031D01*
X12172563Y-14353031D02*
X12182086Y-14343508D01*
X12182086Y-14343508D02*
X12201134Y-14333984D01*
X12353515Y-14514936D02*
X12363039Y-14524460D01*
X12363039Y-14524460D02*
X12353515Y-14533984D01*
X12353515Y-14533984D02*
X12343991Y-14524460D01*
X12343991Y-14524460D02*
X12353515Y-14514936D01*
X12353515Y-14514936D02*
X12353515Y-14533984D01*
X12486848Y-14333984D02*
X12505896Y-14333984D01*
X12505896Y-14333984D02*
X12524944Y-14343508D01*
X12524944Y-14343508D02*
X12534467Y-14353031D01*
X12534467Y-14353031D02*
X12543991Y-14372079D01*
X12543991Y-14372079D02*
X12553515Y-14410174D01*
X12553515Y-14410174D02*
X12553515Y-14457793D01*
X12553515Y-14457793D02*
X12543991Y-14495888D01*
X12543991Y-14495888D02*
X12534467Y-14514936D01*
X12534467Y-14514936D02*
X12524944Y-14524460D01*
X12524944Y-14524460D02*
X12505896Y-14533984D01*
X12505896Y-14533984D02*
X12486848Y-14533984D01*
X12486848Y-14533984D02*
X12467801Y-14524460D01*
X12467801Y-14524460D02*
X12458277Y-14514936D01*
X12458277Y-14514936D02*
X12448753Y-14495888D01*
X12448753Y-14495888D02*
X12439229Y-14457793D01*
X12439229Y-14457793D02*
X12439229Y-14410174D01*
X12439229Y-14410174D02*
X12448753Y-14372079D01*
X12448753Y-14372079D02*
X12458277Y-14353031D01*
X12458277Y-14353031D02*
X12467801Y-14343508D01*
X12467801Y-14343508D02*
X12486848Y-14333984D01*
X12620182Y-14333984D02*
X12743991Y-14333984D01*
X12743991Y-14333984D02*
X12677325Y-14410174D01*
X12677325Y-14410174D02*
X12705896Y-14410174D01*
X12705896Y-14410174D02*
X12724944Y-14419698D01*
X12724944Y-14419698D02*
X12734467Y-14429222D01*
X12734467Y-14429222D02*
X12743991Y-14448269D01*
X12743991Y-14448269D02*
X12743991Y-14495888D01*
X12743991Y-14495888D02*
X12734467Y-14514936D01*
X12734467Y-14514936D02*
X12724944Y-14524460D01*
X12724944Y-14524460D02*
X12705896Y-14533984D01*
X12705896Y-14533984D02*
X12648753Y-14533984D01*
X12648753Y-14533984D02*
X12629706Y-14524460D01*
X12629706Y-14524460D02*
X12620182Y-14514936D01*
X12839229Y-14533984D02*
X12877325Y-14533984D01*
X12877325Y-14533984D02*
X12896372Y-14524460D01*
X12896372Y-14524460D02*
X12905896Y-14514936D01*
X12905896Y-14514936D02*
X12924944Y-14486365D01*
X12924944Y-14486365D02*
X12934467Y-14448269D01*
X12934467Y-14448269D02*
X12934467Y-14372079D01*
X12934467Y-14372079D02*
X12924944Y-14353031D01*
X12924944Y-14353031D02*
X12915420Y-14343508D01*
X12915420Y-14343508D02*
X12896372Y-14333984D01*
X12896372Y-14333984D02*
X12858277Y-14333984D01*
X12858277Y-14333984D02*
X12839229Y-14343508D01*
X12839229Y-14343508D02*
X12829706Y-14353031D01*
X12829706Y-14353031D02*
X12820182Y-14372079D01*
X12820182Y-14372079D02*
X12820182Y-14419698D01*
X12820182Y-14419698D02*
X12829706Y-14438746D01*
X12829706Y-14438746D02*
X12839229Y-14448269D01*
X12839229Y-14448269D02*
X12858277Y-14457793D01*
X12858277Y-14457793D02*
X12896372Y-14457793D01*
X12896372Y-14457793D02*
X12915420Y-14448269D01*
X12915420Y-14448269D02*
X12924944Y-14438746D01*
X12924944Y-14438746D02*
X12934467Y-14419698D01*
X13105896Y-14400650D02*
X13105896Y-14533984D01*
X13058277Y-14324460D02*
X13010658Y-14467317D01*
X13010658Y-14467317D02*
X13134467Y-14467317D01*
X13201134Y-14333984D02*
X13201134Y-14372079D01*
X13277325Y-14333984D02*
X13277325Y-14372079D01*
X13572563Y-14610174D02*
X13563039Y-14600650D01*
X13563039Y-14600650D02*
X13543991Y-14572079D01*
X13543991Y-14572079D02*
X13534468Y-14553031D01*
X13534468Y-14553031D02*
X13524944Y-14524460D01*
X13524944Y-14524460D02*
X13515420Y-14476841D01*
X13515420Y-14476841D02*
X13515420Y-14438746D01*
X13515420Y-14438746D02*
X13524944Y-14391127D01*
X13524944Y-14391127D02*
X13534468Y-14362555D01*
X13534468Y-14362555D02*
X13543991Y-14343508D01*
X13543991Y-14343508D02*
X13563039Y-14314936D01*
X13563039Y-14314936D02*
X13572563Y-14305412D01*
X13639229Y-14353031D02*
X13648753Y-14343508D01*
X13648753Y-14343508D02*
X13667801Y-14333984D01*
X13667801Y-14333984D02*
X13715420Y-14333984D01*
X13715420Y-14333984D02*
X13734468Y-14343508D01*
X13734468Y-14343508D02*
X13743991Y-14353031D01*
X13743991Y-14353031D02*
X13753515Y-14372079D01*
X13753515Y-14372079D02*
X13753515Y-14391127D01*
X13753515Y-14391127D02*
X13743991Y-14419698D01*
X13743991Y-14419698D02*
X13629706Y-14533984D01*
X13629706Y-14533984D02*
X13753515Y-14533984D01*
X13991610Y-14533984D02*
X13991610Y-14333984D01*
X14077325Y-14533984D02*
X14077325Y-14429222D01*
X14077325Y-14429222D02*
X14067801Y-14410174D01*
X14067801Y-14410174D02*
X14048753Y-14400650D01*
X14048753Y-14400650D02*
X14020182Y-14400650D01*
X14020182Y-14400650D02*
X14001134Y-14410174D01*
X14001134Y-14410174D02*
X13991610Y-14419698D01*
X14201134Y-14533984D02*
X14182087Y-14524460D01*
X14182087Y-14524460D02*
X14172563Y-14514936D01*
X14172563Y-14514936D02*
X14163039Y-14495888D01*
X14163039Y-14495888D02*
X14163039Y-14438746D01*
X14163039Y-14438746D02*
X14172563Y-14419698D01*
X14172563Y-14419698D02*
X14182087Y-14410174D01*
X14182087Y-14410174D02*
X14201134Y-14400650D01*
X14201134Y-14400650D02*
X14229706Y-14400650D01*
X14229706Y-14400650D02*
X14248753Y-14410174D01*
X14248753Y-14410174D02*
X14258277Y-14419698D01*
X14258277Y-14419698D02*
X14267801Y-14438746D01*
X14267801Y-14438746D02*
X14267801Y-14495888D01*
X14267801Y-14495888D02*
X14258277Y-14514936D01*
X14258277Y-14514936D02*
X14248753Y-14524460D01*
X14248753Y-14524460D02*
X14229706Y-14533984D01*
X14229706Y-14533984D02*
X14201134Y-14533984D01*
X14382087Y-14533984D02*
X14363039Y-14524460D01*
X14363039Y-14524460D02*
X14353515Y-14505412D01*
X14353515Y-14505412D02*
X14353515Y-14333984D01*
X14534468Y-14524460D02*
X14515420Y-14533984D01*
X14515420Y-14533984D02*
X14477325Y-14533984D01*
X14477325Y-14533984D02*
X14458277Y-14524460D01*
X14458277Y-14524460D02*
X14448753Y-14505412D01*
X14448753Y-14505412D02*
X14448753Y-14429222D01*
X14448753Y-14429222D02*
X14458277Y-14410174D01*
X14458277Y-14410174D02*
X14477325Y-14400650D01*
X14477325Y-14400650D02*
X14515420Y-14400650D01*
X14515420Y-14400650D02*
X14534468Y-14410174D01*
X14534468Y-14410174D02*
X14543991Y-14429222D01*
X14543991Y-14429222D02*
X14543991Y-14448269D01*
X14543991Y-14448269D02*
X14448753Y-14467317D01*
X14620182Y-14524460D02*
X14639230Y-14533984D01*
X14639230Y-14533984D02*
X14677325Y-14533984D01*
X14677325Y-14533984D02*
X14696372Y-14524460D01*
X14696372Y-14524460D02*
X14705896Y-14505412D01*
X14705896Y-14505412D02*
X14705896Y-14495888D01*
X14705896Y-14495888D02*
X14696372Y-14476841D01*
X14696372Y-14476841D02*
X14677325Y-14467317D01*
X14677325Y-14467317D02*
X14648753Y-14467317D01*
X14648753Y-14467317D02*
X14629706Y-14457793D01*
X14629706Y-14457793D02*
X14620182Y-14438746D01*
X14620182Y-14438746D02*
X14620182Y-14429222D01*
X14620182Y-14429222D02*
X14629706Y-14410174D01*
X14629706Y-14410174D02*
X14648753Y-14400650D01*
X14648753Y-14400650D02*
X14677325Y-14400650D01*
X14677325Y-14400650D02*
X14696372Y-14410174D01*
X14772563Y-14610174D02*
X14782087Y-14600650D01*
X14782087Y-14600650D02*
X14801134Y-14572079D01*
X14801134Y-14572079D02*
X14810658Y-14553031D01*
X14810658Y-14553031D02*
X14820182Y-14524460D01*
X14820182Y-14524460D02*
X14829706Y-14476841D01*
X14829706Y-14476841D02*
X14829706Y-14438746D01*
X14829706Y-14438746D02*
X14820182Y-14391127D01*
X14820182Y-14391127D02*
X14810658Y-14362555D01*
X14810658Y-14362555D02*
X14801134Y-14343508D01*
X14801134Y-14343508D02*
X14782087Y-14314936D01*
X14782087Y-14314936D02*
X14772563Y-14305412D01*
X15134468Y-14610174D02*
X15124944Y-14600650D01*
X15124944Y-14600650D02*
X15105896Y-14572079D01*
X15105896Y-14572079D02*
X15096372Y-14553031D01*
X15096372Y-14553031D02*
X15086849Y-14524460D01*
X15086849Y-14524460D02*
X15077325Y-14476841D01*
X15077325Y-14476841D02*
X15077325Y-14438746D01*
X15077325Y-14438746D02*
X15086849Y-14391127D01*
X15086849Y-14391127D02*
X15096372Y-14362555D01*
X15096372Y-14362555D02*
X15105896Y-14343508D01*
X15105896Y-14343508D02*
X15124944Y-14314936D01*
X15124944Y-14314936D02*
X15134468Y-14305412D01*
X15210658Y-14400650D02*
X15210658Y-14533984D01*
X15210658Y-14419698D02*
X15220182Y-14410174D01*
X15220182Y-14410174D02*
X15239230Y-14400650D01*
X15239230Y-14400650D02*
X15267801Y-14400650D01*
X15267801Y-14400650D02*
X15286849Y-14410174D01*
X15286849Y-14410174D02*
X15296372Y-14429222D01*
X15296372Y-14429222D02*
X15296372Y-14533984D01*
X15420182Y-14533984D02*
X15401134Y-14524460D01*
X15401134Y-14524460D02*
X15391611Y-14514936D01*
X15391611Y-14514936D02*
X15382087Y-14495888D01*
X15382087Y-14495888D02*
X15382087Y-14438746D01*
X15382087Y-14438746D02*
X15391611Y-14419698D01*
X15391611Y-14419698D02*
X15401134Y-14410174D01*
X15401134Y-14410174D02*
X15420182Y-14400650D01*
X15420182Y-14400650D02*
X15448753Y-14400650D01*
X15448753Y-14400650D02*
X15467801Y-14410174D01*
X15467801Y-14410174D02*
X15477325Y-14419698D01*
X15477325Y-14419698D02*
X15486849Y-14438746D01*
X15486849Y-14438746D02*
X15486849Y-14495888D01*
X15486849Y-14495888D02*
X15477325Y-14514936D01*
X15477325Y-14514936D02*
X15467801Y-14524460D01*
X15467801Y-14524460D02*
X15448753Y-14533984D01*
X15448753Y-14533984D02*
X15420182Y-14533984D01*
X15543992Y-14400650D02*
X15620182Y-14400650D01*
X15572563Y-14333984D02*
X15572563Y-14505412D01*
X15572563Y-14505412D02*
X15582087Y-14524460D01*
X15582087Y-14524460D02*
X15601134Y-14533984D01*
X15601134Y-14533984D02*
X15620182Y-14533984D01*
X15839230Y-14400650D02*
X15839230Y-14600650D01*
X15839230Y-14410174D02*
X15858277Y-14400650D01*
X15858277Y-14400650D02*
X15896373Y-14400650D01*
X15896373Y-14400650D02*
X15915420Y-14410174D01*
X15915420Y-14410174D02*
X15924944Y-14419698D01*
X15924944Y-14419698D02*
X15934468Y-14438746D01*
X15934468Y-14438746D02*
X15934468Y-14495888D01*
X15934468Y-14495888D02*
X15924944Y-14514936D01*
X15924944Y-14514936D02*
X15915420Y-14524460D01*
X15915420Y-14524460D02*
X15896373Y-14533984D01*
X15896373Y-14533984D02*
X15858277Y-14533984D01*
X15858277Y-14533984D02*
X15839230Y-14524460D01*
X16048753Y-14533984D02*
X16029706Y-14524460D01*
X16029706Y-14524460D02*
X16020182Y-14505412D01*
X16020182Y-14505412D02*
X16020182Y-14333984D01*
X16210658Y-14533984D02*
X16210658Y-14429222D01*
X16210658Y-14429222D02*
X16201134Y-14410174D01*
X16201134Y-14410174D02*
X16182087Y-14400650D01*
X16182087Y-14400650D02*
X16143992Y-14400650D01*
X16143992Y-14400650D02*
X16124944Y-14410174D01*
X16210658Y-14524460D02*
X16191611Y-14533984D01*
X16191611Y-14533984D02*
X16143992Y-14533984D01*
X16143992Y-14533984D02*
X16124944Y-14524460D01*
X16124944Y-14524460D02*
X16115420Y-14505412D01*
X16115420Y-14505412D02*
X16115420Y-14486365D01*
X16115420Y-14486365D02*
X16124944Y-14467317D01*
X16124944Y-14467317D02*
X16143992Y-14457793D01*
X16143992Y-14457793D02*
X16191611Y-14457793D01*
X16191611Y-14457793D02*
X16210658Y-14448269D01*
X16277325Y-14400650D02*
X16353515Y-14400650D01*
X16305896Y-14333984D02*
X16305896Y-14505412D01*
X16305896Y-14505412D02*
X16315420Y-14524460D01*
X16315420Y-14524460D02*
X16334468Y-14533984D01*
X16334468Y-14533984D02*
X16353515Y-14533984D01*
X16496373Y-14524460D02*
X16477325Y-14533984D01*
X16477325Y-14533984D02*
X16439230Y-14533984D01*
X16439230Y-14533984D02*
X16420182Y-14524460D01*
X16420182Y-14524460D02*
X16410658Y-14505412D01*
X16410658Y-14505412D02*
X16410658Y-14429222D01*
X16410658Y-14429222D02*
X16420182Y-14410174D01*
X16420182Y-14410174D02*
X16439230Y-14400650D01*
X16439230Y-14400650D02*
X16477325Y-14400650D01*
X16477325Y-14400650D02*
X16496373Y-14410174D01*
X16496373Y-14410174D02*
X16505896Y-14429222D01*
X16505896Y-14429222D02*
X16505896Y-14448269D01*
X16505896Y-14448269D02*
X16410658Y-14467317D01*
X16677325Y-14533984D02*
X16677325Y-14333984D01*
X16677325Y-14524460D02*
X16658277Y-14533984D01*
X16658277Y-14533984D02*
X16620182Y-14533984D01*
X16620182Y-14533984D02*
X16601134Y-14524460D01*
X16601134Y-14524460D02*
X16591611Y-14514936D01*
X16591611Y-14514936D02*
X16582087Y-14495888D01*
X16582087Y-14495888D02*
X16582087Y-14438746D01*
X16582087Y-14438746D02*
X16591611Y-14419698D01*
X16591611Y-14419698D02*
X16601134Y-14410174D01*
X16601134Y-14410174D02*
X16620182Y-14400650D01*
X16620182Y-14400650D02*
X16658277Y-14400650D01*
X16658277Y-14400650D02*
X16677325Y-14410174D01*
X16753515Y-14610174D02*
X16763039Y-14600650D01*
X16763039Y-14600650D02*
X16782087Y-14572079D01*
X16782087Y-14572079D02*
X16791611Y-14553031D01*
X16791611Y-14553031D02*
X16801135Y-14524460D01*
X16801135Y-14524460D02*
X16810658Y-14476841D01*
X16810658Y-14476841D02*
X16810658Y-14438746D01*
X16810658Y-14438746D02*
X16801135Y-14391127D01*
X16801135Y-14391127D02*
X16791611Y-14362555D01*
X16791611Y-14362555D02*
X16782087Y-14343508D01*
X16782087Y-14343508D02*
X16763039Y-14314936D01*
X16763039Y-14314936D02*
X16753515Y-14305412D01*
M02*
