%TF.GenerationSoftware,KiCad,Pcbnew,10.0.4*%
%TF.CreationDate,2026-07-17T09:54:57+02:00*%
%TF.ProjectId,neorecall-wearable-v1,6e656f72-6563-4616-9c6c-2d7765617261,rev?*%
%TF.SameCoordinates,Original*%
%TF.FileFunction,Soldermask,Bot*%
%TF.FilePolarity,Negative*%
%FSLAX46Y46*%
G04 Gerber Fmt 4.6, Leading zero omitted, Abs format (unit mm)*
G04 Created by KiCad (PCBNEW 10.0.4) date 2026-07-17 09:54:57*
%MOMM*%
%LPD*%
G01*
G04 APERTURE LIST*
G04 Aperture macros list*
%AMRoundRect*
0 Rectangle with rounded corners*
0 $1 Rounding radius*
0 $2 $3 $4 $5 $6 $7 $8 $9 X,Y pos of 4 corners*
0 Add a 4 corners polygon primitive as box body*
4,1,4,$2,$3,$4,$5,$6,$7,$8,$9,$2,$3,0*
0 Add four circle primitives for the rounded corners*
1,1,$1+$1,$2,$3*
1,1,$1+$1,$4,$5*
1,1,$1+$1,$6,$7*
1,1,$1+$1,$8,$9*
0 Add four rect primitives between the rounded corners*
20,1,$1+$1,$2,$3,$4,$5,0*
20,1,$1+$1,$4,$5,$6,$7,0*
20,1,$1+$1,$6,$7,$8,$9,0*
20,1,$1+$1,$8,$9,$2,$3,0*%
G04 Aperture macros list end*
%ADD10C,1.000000*%
%ADD11RoundRect,0.200000X-0.200000X-0.275000X0.200000X-0.275000X0.200000X0.275000X-0.200000X0.275000X0*%
%ADD12RoundRect,0.112500X0.112500X-0.187500X0.112500X0.187500X-0.112500X0.187500X-0.112500X-0.187500X0*%
%ADD13R,0.950000X0.450000*%
%ADD14R,1.200000X0.400000*%
%ADD15R,1.300000X1.400000*%
%ADD16RoundRect,0.225000X-0.225000X-0.250000X0.225000X-0.250000X0.225000X0.250000X-0.225000X0.250000X0*%
%ADD17RoundRect,0.150000X0.150000X-0.512500X0.150000X0.512500X-0.150000X0.512500X-0.150000X-0.512500X0*%
%ADD18RoundRect,0.200000X0.275000X-0.200000X0.275000X0.200000X-0.275000X0.200000X-0.275000X-0.200000X0*%
%ADD19RoundRect,0.140000X-0.140000X-0.170000X0.140000X-0.170000X0.140000X0.170000X-0.140000X0.170000X0*%
%ADD20RoundRect,0.225000X0.250000X-0.225000X0.250000X0.225000X-0.250000X0.225000X-0.250000X-0.225000X0*%
%ADD21RoundRect,0.135000X0.185000X-0.135000X0.185000X0.135000X-0.185000X0.135000X-0.185000X-0.135000X0*%
%ADD22RoundRect,0.250000X-0.250000X-0.475000X0.250000X-0.475000X0.250000X0.475000X-0.250000X0.475000X0*%
G04 APERTURE END LIST*
D10*
%TO.C,MK2*%
X125708000Y-119000000D03*
%TD*%
%TO.C,MK1*%
X103000000Y-118292000D03*
%TD*%
D11*
%TO.C,R8*%
X102175000Y-124500000D03*
X103825000Y-124500000D03*
%TD*%
D12*
%TO.C,D1*%
X107000000Y-137050000D03*
X107000000Y-134950000D03*
%TD*%
D13*
%TO.C,J3*%
X123745000Y-124720000D03*
X123745000Y-125420000D03*
X123745000Y-126120000D03*
X123745000Y-126820000D03*
X123745000Y-128520000D03*
D14*
X118275000Y-133460000D03*
X122125000Y-133460000D03*
D15*
X117070000Y-133150000D03*
X123330000Y-133150000D03*
D13*
X123745000Y-129220000D03*
D15*
X117070000Y-122650000D03*
X123330000Y-122650000D03*
D14*
X118275000Y-122340000D03*
X122125000Y-122340000D03*
D13*
X123745000Y-130620000D03*
X123745000Y-131320000D03*
X123745000Y-129920000D03*
%TD*%
D16*
%TO.C,C3*%
X108725000Y-133500000D03*
X110275000Y-133500000D03*
%TD*%
D17*
%TO.C,U2*%
X114450000Y-131137500D03*
X113500000Y-131137500D03*
X112550000Y-131137500D03*
X112550000Y-128862500D03*
X113500000Y-128862500D03*
X114450000Y-128862500D03*
%TD*%
D10*
%TO.C,TP3*%
X125000000Y-113000000D03*
%TD*%
D18*
%TO.C,R25*%
X127000000Y-126325000D03*
X127000000Y-124675000D03*
%TD*%
%TO.C,R16*%
X104800000Y-117825000D03*
X104800000Y-116175000D03*
%TD*%
%TO.C,R22*%
X112000000Y-121325000D03*
X112000000Y-119675000D03*
%TD*%
D11*
%TO.C,R11*%
X121175000Y-115500000D03*
X122825000Y-115500000D03*
%TD*%
D19*
%TO.C,C23*%
X104820000Y-127300000D03*
X105780000Y-127300000D03*
%TD*%
D16*
%TO.C,C9*%
X108725000Y-115500000D03*
X110275000Y-115500000D03*
%TD*%
D20*
%TO.C,C22*%
X113500000Y-125575000D03*
X113500000Y-124025000D03*
%TD*%
D21*
%TO.C,R28*%
X125200000Y-124710000D03*
X125200000Y-123690000D03*
%TD*%
D11*
%TO.C,R7*%
X101675000Y-133500000D03*
X103325000Y-133500000D03*
%TD*%
D18*
%TO.C,R12*%
X107000000Y-112825000D03*
X107000000Y-111175000D03*
%TD*%
D10*
%TO.C,TP5*%
X125200000Y-116200000D03*
%TD*%
D20*
%TO.C,C8*%
X107000000Y-115775000D03*
X107000000Y-114225000D03*
%TD*%
D16*
%TO.C,C10*%
X112725000Y-114500000D03*
X114275000Y-114500000D03*
%TD*%
D11*
%TO.C,R13*%
X116675000Y-118000000D03*
X118325000Y-118000000D03*
%TD*%
D18*
%TO.C,R26*%
X127000000Y-123325000D03*
X127000000Y-121675000D03*
%TD*%
%TO.C,R23*%
X114000000Y-121325000D03*
X114000000Y-119675000D03*
%TD*%
D22*
%TO.C,C19*%
X122550000Y-136000000D03*
X124450000Y-136000000D03*
%TD*%
D18*
%TO.C,R32*%
X107500000Y-125625000D03*
X107500000Y-123975000D03*
%TD*%
D11*
%TO.C,R14*%
X118175000Y-116000000D03*
X119825000Y-116000000D03*
%TD*%
D18*
%TO.C,R29*%
X126300000Y-132325000D03*
X126300000Y-130675000D03*
%TD*%
%TO.C,R20*%
X108000000Y-121325000D03*
X108000000Y-119675000D03*
%TD*%
%TO.C,R27*%
X105500000Y-125325000D03*
X105500000Y-123675000D03*
%TD*%
D10*
%TO.C,TP4*%
X123000000Y-118000000D03*
%TD*%
D18*
%TO.C,R3*%
X105000000Y-136825000D03*
X105000000Y-135175000D03*
%TD*%
D11*
%TO.C,R6*%
X102175000Y-129500000D03*
X103825000Y-129500000D03*
%TD*%
%TO.C,R19*%
X121675000Y-120800000D03*
X123325000Y-120800000D03*
%TD*%
%TO.C,R10*%
X121175000Y-113500000D03*
X122825000Y-113500000D03*
%TD*%
D21*
%TO.C,R1*%
X114250000Y-117610000D03*
X114250000Y-116590000D03*
%TD*%
D18*
%TO.C,R21*%
X110000000Y-121325000D03*
X110000000Y-119675000D03*
%TD*%
%TO.C,R24*%
X126300000Y-129325000D03*
X126300000Y-127675000D03*
%TD*%
D20*
%TO.C,C11*%
X104800000Y-120775000D03*
X104800000Y-119225000D03*
%TD*%
D10*
%TO.C,TP1*%
X103000000Y-113000000D03*
%TD*%
D21*
%TO.C,R2*%
X112750000Y-117610000D03*
X112750000Y-116590000D03*
%TD*%
D16*
%TO.C,C2*%
X105025000Y-132000000D03*
X106575000Y-132000000D03*
%TD*%
D17*
%TO.C,U7*%
X111450000Y-125937500D03*
X110500000Y-125937500D03*
X109550000Y-125937500D03*
X109550000Y-123662500D03*
X110500000Y-123662500D03*
X111450000Y-123662500D03*
%TD*%
D20*
%TO.C,C18*%
X126300000Y-135275000D03*
X126300000Y-133725000D03*
%TD*%
D11*
%TO.C,R9*%
X101675000Y-126500000D03*
X103325000Y-126500000D03*
%TD*%
D20*
%TO.C,C1*%
X109000000Y-130775000D03*
X109000000Y-129225000D03*
%TD*%
D10*
%TO.C,TP2*%
X103000000Y-115000000D03*
%TD*%
D18*
%TO.C,R15*%
X104800000Y-114825000D03*
X104800000Y-113175000D03*
%TD*%
M02*
