M48
; DRILL file KiCad 10.0.4 date 2026-07-17T09:54:58
; FORMAT={-:-/ absolute / metric / decimal}
; #@! TF.CreationDate,2026-07-17T09:54:58+02:00
; #@! TF.GenerationSoftware,Kicad,Pcbnew,10.0.4
; #@! TF.FileFunction,Plated,1,4,PTH
FMAT,2
METRIC
; #@! TA.AperFunction,Plated,PTH,ViaDrill
T1C0.200
; #@! TA.AperFunction,Plated,PTH,ViaDrill
T2C0.250
%
G90
G05
T1
X100.614Y-116.752
X101.04Y-128.0
X101.293Y-114.825
X101.673Y-127.767
X103.836Y-128.406
X103.862Y-127.591
X103.869Y-113.002
X104.556Y-128.155
X104.749Y-113.916
X105.594Y-122.916
X105.609Y-113.16
X105.715Y-133.835
X105.945Y-135.373
X106.003Y-118.731
X106.142Y-112.585
X106.155Y-117.504
X106.185Y-115.479
X107.054Y-112.0
X107.118Y-119.676
X107.27Y-122.767
X107.392Y-120.294
X107.69Y-128.297
X107.788Y-117.377
X107.82Y-123.134
X107.84Y-131.884
X108.866Y-120.261
X108.913Y-123.699
X109.07Y-122.791
X109.143Y-116.807
X109.179Y-121.197
X109.859Y-126.935
X110.07Y-122.279
X111.047Y-118.75
X111.079Y-117.02
X111.316Y-120.778
X111.367Y-128.862
X112.097Y-116.59
X112.191Y-117.186
X112.602Y-118.779
X112.603Y-126.027
X112.888Y-122.117
X113.291Y-122.851
X113.627Y-126.615
X113.707Y-117.022
X113.913Y-130.139
X114.003Y-122.421
X114.03Y-120.477
X114.549Y-124.077
X114.59Y-127.596
X114.628Y-120.697
X114.795Y-117.13
X114.798Y-125.804
X114.808Y-130.134
X115.726Y-123.798
X115.738Y-121.985
X117.089Y-121.02
X117.231Y-116.771
X117.716Y-117.357
X117.888Y-119.084
X118.339Y-113.16
X119.058Y-117.831
X119.115Y-113.053
X119.168Y-112.5
X119.168Y-114.264
X119.174Y-111.234
X120.631Y-117.037
X121.711Y-114.366
X121.995Y-123.727
X122.091Y-115.159
X122.563Y-119.631
X122.575Y-118.823
X122.932Y-125.138
X123.408Y-114.854
X124.501Y-117.109
X124.718Y-130.892
X124.829Y-120.609
X125.0Y-111.933
X125.184Y-131.217
X125.394Y-127.141
X126.555Y-113.053
X126.556Y-120.885
X126.961Y-112.5
X127.063Y-125.42
T2
X101.828Y-116.962
X102.5Y-133.863
X103.64Y-130.723
X105.751Y-114.048
X105.992Y-116.374
X106.098Y-126.536
X106.811Y-133.044
X107.054Y-109.794
X107.31Y-127.691
X107.314Y-131.079
X107.652Y-118.814
X109.698Y-131.918
X111.0Y-127.652
X111.6Y-132.626
X111.722Y-130.504
X115.29Y-127.904
X115.592Y-114.518
X115.677Y-125.377
X116.255Y-121.243
X116.767Y-134.255
X116.779Y-118.88
X120.13Y-121.845
X120.408Y-132.815
X121.039Y-121.567
X121.35Y-126.347
X125.181Y-121.564
X125.319Y-134.786
X125.415Y-133.91
X125.426Y-132.815
M30
