%TF.GenerationSoftware,KiCad,Pcbnew,10.0.4*%
%TF.CreationDate,2026-07-17T09:54:58+02:00*%
%TF.ProjectId,neorecall-wearable-v1,6e656f72-6563-4616-9c6c-2d7765617261,rev?*%
%TF.SameCoordinates,Original*%
%TF.FileFunction,Drillmap*%
%TF.FilePolarity,Positive*%
%FSLAX45Y45*%
G04 Gerber Fmt 4.5, Leading zero omitted, Abs format (unit mm)*
G04 Created by KiCad (PCBNEW 10.0.4) date 2026-07-17 09:54:58*
%MOMM*%
%LPD*%
G01*
G04 APERTURE LIST*
%ADD10C,0.050000*%
%ADD11C,0.200000*%
%ADD12C,0.100000*%
G04 APERTURE END LIST*
D10*
X10000000Y-10000000D02*
X12800000Y-10000000D01*
X10000000Y-13800000D02*
X10000000Y-10000000D01*
X12800000Y-10000000D02*
X12800000Y-13800000D01*
X12800000Y-13800000D02*
X10000000Y-13800000D01*
D11*
D12*
X10051400Y-11665250D02*
X10071400Y-11685250D01*
X10071400Y-11665250D02*
X10051400Y-11685250D01*
X10093970Y-12790000D02*
X10113970Y-12810000D01*
X10113970Y-12790000D02*
X10093970Y-12810000D01*
X10119300Y-11472530D02*
X10139300Y-11492530D01*
X10139300Y-11472530D02*
X10119300Y-11492530D01*
X10157270Y-12766670D02*
X10177270Y-12786670D01*
X10177270Y-12766670D02*
X10157270Y-12786670D01*
X10373600Y-12830650D02*
X10393600Y-12850650D01*
X10393600Y-12830650D02*
X10373600Y-12850650D01*
X10376220Y-12749110D02*
X10396220Y-12769110D01*
X10396220Y-12749110D02*
X10376220Y-12769110D01*
X10376930Y-11290170D02*
X10396930Y-11310170D01*
X10396930Y-11290170D02*
X10376930Y-11310170D01*
X10445570Y-12805510D02*
X10465570Y-12825510D01*
X10465570Y-12805510D02*
X10445570Y-12825510D01*
X10464950Y-11381590D02*
X10484950Y-11401590D01*
X10484950Y-11381590D02*
X10464950Y-11401590D01*
X10549430Y-12281600D02*
X10569430Y-12301600D01*
X10569430Y-12281600D02*
X10549430Y-12301600D01*
X10550930Y-11306000D02*
X10570930Y-11326000D01*
X10570930Y-11306000D02*
X10550930Y-11326000D01*
X10561520Y-13373480D02*
X10581520Y-13393480D01*
X10581520Y-13373480D02*
X10561520Y-13393480D01*
X10584480Y-13527320D02*
X10604480Y-13547320D01*
X10604480Y-13527320D02*
X10584480Y-13547320D01*
X10590340Y-11863100D02*
X10610340Y-11883100D01*
X10610340Y-11863100D02*
X10590340Y-11883100D01*
X10604200Y-11248520D02*
X10624200Y-11268520D01*
X10624200Y-11248520D02*
X10604200Y-11268520D01*
X10605530Y-11740400D02*
X10625530Y-11760400D01*
X10625530Y-11740400D02*
X10605530Y-11760400D01*
X10608530Y-11537870D02*
X10628530Y-11557870D01*
X10628530Y-11537870D02*
X10608530Y-11557870D01*
X10695390Y-11190000D02*
X10715390Y-11210000D01*
X10715390Y-11190000D02*
X10695390Y-11210000D01*
X10701770Y-11957560D02*
X10721770Y-11977560D01*
X10721770Y-11957560D02*
X10701770Y-11977560D01*
X10716970Y-12266720D02*
X10736970Y-12286720D01*
X10736970Y-12266720D02*
X10716970Y-12286720D01*
X10729220Y-12019370D02*
X10749220Y-12039370D01*
X10749220Y-12019370D02*
X10729220Y-12039370D01*
X10759030Y-12819720D02*
X10779030Y-12839720D01*
X10779030Y-12819720D02*
X10759030Y-12839720D01*
X10768780Y-11727670D02*
X10788780Y-11747670D01*
X10788780Y-11727670D02*
X10768780Y-11747670D01*
X10771990Y-12303430D02*
X10791990Y-12323430D01*
X10791990Y-12303430D02*
X10771990Y-12323430D01*
X10773950Y-13178410D02*
X10793950Y-13198410D01*
X10793950Y-13178410D02*
X10773950Y-13198410D01*
X10876610Y-12016100D02*
X10896610Y-12036100D01*
X10896610Y-12016100D02*
X10876610Y-12036100D01*
X10881330Y-12359910D02*
X10901330Y-12379910D01*
X10901330Y-12359910D02*
X10881330Y-12379910D01*
X10897020Y-12269100D02*
X10917020Y-12289100D01*
X10917020Y-12269100D02*
X10897020Y-12289100D01*
X10904260Y-11670720D02*
X10924260Y-11690720D01*
X10924260Y-11670720D02*
X10904260Y-11690720D01*
X10907950Y-12109690D02*
X10927950Y-12129690D01*
X10927950Y-12109690D02*
X10907950Y-12129690D01*
X10975910Y-12683540D02*
X10995910Y-12703540D01*
X10995910Y-12683540D02*
X10975910Y-12703540D01*
X10997000Y-12217940D02*
X11017000Y-12237940D01*
X11017000Y-12217940D02*
X10997000Y-12237940D01*
X11094690Y-11864980D02*
X11114690Y-11884980D01*
X11114690Y-11864980D02*
X11094690Y-11884980D01*
X11097950Y-11691990D02*
X11117950Y-11711990D01*
X11117950Y-11691990D02*
X11097950Y-11711990D01*
X11121570Y-12067790D02*
X11141570Y-12087790D01*
X11141570Y-12067790D02*
X11121570Y-12087790D01*
X11126720Y-12876250D02*
X11146720Y-12896250D01*
X11146720Y-12876250D02*
X11126720Y-12896250D01*
X11199700Y-11649000D02*
X11219700Y-11669000D01*
X11219700Y-11649000D02*
X11199700Y-11669000D01*
X11209110Y-11708560D02*
X11229110Y-11728560D01*
X11229110Y-11708560D02*
X11209110Y-11728560D01*
X11250170Y-11867870D02*
X11270170Y-11887870D01*
X11270170Y-11867870D02*
X11250170Y-11887870D01*
X11250270Y-12592680D02*
X11270270Y-12612680D01*
X11270270Y-12592680D02*
X11250270Y-12612680D01*
X11278830Y-12201740D02*
X11298830Y-12221740D01*
X11298830Y-12201740D02*
X11278830Y-12221740D01*
X11319110Y-12275100D02*
X11339110Y-12295100D01*
X11339110Y-12275100D02*
X11319110Y-12295100D01*
X11352690Y-12651490D02*
X11372690Y-12671490D01*
X11372690Y-12651490D02*
X11352690Y-12671490D01*
X11360710Y-11692220D02*
X11380710Y-11712220D01*
X11380710Y-11692220D02*
X11360710Y-11712220D01*
X11381270Y-13003920D02*
X11401270Y-13023920D01*
X11401270Y-13003920D02*
X11381270Y-13023920D01*
X11390330Y-12232100D02*
X11410330Y-12252100D01*
X11410330Y-12232100D02*
X11390330Y-12252100D01*
X11393040Y-12037660D02*
X11413040Y-12057660D01*
X11413040Y-12037660D02*
X11393040Y-12057660D01*
X11444950Y-12397740D02*
X11464950Y-12417740D01*
X11464950Y-12397740D02*
X11444950Y-12417740D01*
X11449050Y-12749570D02*
X11469050Y-12769570D01*
X11469050Y-12749570D02*
X11449050Y-12769570D01*
X11452780Y-12059720D02*
X11472780Y-12079720D01*
X11472780Y-12059720D02*
X11452780Y-12079720D01*
X11469520Y-11702980D02*
X11489520Y-11722980D01*
X11489520Y-11702980D02*
X11469520Y-11722980D01*
X11469840Y-12570420D02*
X11489840Y-12590420D01*
X11489840Y-12570420D02*
X11469840Y-12590420D01*
X11470840Y-13003390D02*
X11490840Y-13023390D01*
X11490840Y-13003390D02*
X11470840Y-13023390D01*
X11562610Y-12369830D02*
X11582610Y-12389830D01*
X11582610Y-12369830D02*
X11562610Y-12389830D01*
X11563850Y-12188490D02*
X11583850Y-12208490D01*
X11583850Y-12188490D02*
X11563850Y-12208490D01*
X11698930Y-12092030D02*
X11718930Y-12112030D01*
X11718930Y-12092030D02*
X11698930Y-12112030D01*
X11713090Y-11667060D02*
X11733090Y-11687060D01*
X11733090Y-11667060D02*
X11713090Y-11687060D01*
X11761580Y-11725730D02*
X11781580Y-11745730D01*
X11781580Y-11725730D02*
X11761580Y-11745730D01*
X11778840Y-11898380D02*
X11798840Y-11918380D01*
X11798840Y-11898380D02*
X11778840Y-11918380D01*
X11823910Y-11306000D02*
X11843910Y-11326000D01*
X11843910Y-11306000D02*
X11823910Y-11326000D01*
X11895760Y-11773070D02*
X11915760Y-11793070D01*
X11915760Y-11773070D02*
X11895760Y-11793070D01*
X11901490Y-11295350D02*
X11921490Y-11315350D01*
X11921490Y-11295350D02*
X11901490Y-11315350D01*
X11906790Y-11240010D02*
X11926790Y-11260010D01*
X11926790Y-11240010D02*
X11906790Y-11260010D01*
X11906790Y-11416380D02*
X11926790Y-11436380D01*
X11926790Y-11416380D02*
X11906790Y-11436380D01*
X11907440Y-11113360D02*
X11927440Y-11133360D01*
X11927440Y-11113360D02*
X11907440Y-11133360D01*
X12053060Y-11693730D02*
X12073060Y-11713730D01*
X12073060Y-11693730D02*
X12053060Y-11713730D01*
X12161120Y-11426620D02*
X12181120Y-11446620D01*
X12181120Y-11426620D02*
X12161120Y-11446620D01*
X12189470Y-12362720D02*
X12209470Y-12382720D01*
X12209470Y-12362720D02*
X12189470Y-12382720D01*
X12199130Y-11505950D02*
X12219130Y-11525950D01*
X12219130Y-11505950D02*
X12199130Y-11525950D01*
X12246300Y-11953090D02*
X12266300Y-11973090D01*
X12266300Y-11953090D02*
X12246300Y-11973090D01*
X12247470Y-11872310D02*
X12267470Y-11892310D01*
X12267470Y-11872310D02*
X12247470Y-11892310D01*
X12283160Y-12503760D02*
X12303160Y-12523760D01*
X12303160Y-12503760D02*
X12283160Y-12523760D01*
X12330800Y-11475380D02*
X12350800Y-11495380D01*
X12350800Y-11475380D02*
X12330800Y-11495380D01*
X12440100Y-11700870D02*
X12460100Y-11720870D01*
X12460100Y-11700870D02*
X12440100Y-11720870D01*
X12461770Y-13079200D02*
X12481770Y-13099200D01*
X12481770Y-13079200D02*
X12461770Y-13099200D01*
X12472930Y-12050880D02*
X12492930Y-12070880D01*
X12492930Y-12050880D02*
X12472930Y-12070880D01*
X12490000Y-11183290D02*
X12510000Y-11203290D01*
X12510000Y-11183290D02*
X12490000Y-11203290D01*
X12508420Y-13111700D02*
X12528420Y-13131700D01*
X12528420Y-13111700D02*
X12508420Y-13131700D01*
X12529400Y-12704070D02*
X12549400Y-12724070D01*
X12549400Y-12704070D02*
X12529400Y-12724070D01*
X12645500Y-11295350D02*
X12665500Y-11315350D01*
X12665500Y-11295350D02*
X12645500Y-11315350D01*
X12645650Y-12078500D02*
X12665650Y-12098500D01*
X12665650Y-12078500D02*
X12645650Y-12098500D01*
X12686080Y-11240010D02*
X12706080Y-11260010D01*
X12706080Y-11240010D02*
X12686080Y-11260010D01*
X12696340Y-12532020D02*
X12716340Y-12552020D01*
X12716340Y-12532020D02*
X12696340Y-12552020D01*
X10195280Y-11696150D02*
G75*
G02*
X10170280Y-11696150I-12500J0D01*
G01*
X10170280Y-11696150D02*
G75*
G02*
X10195280Y-11696150I12500J0D01*
G01*
X10262500Y-13386310D02*
G75*
G02*
X10237500Y-13386310I-12500J0D01*
G01*
X10237500Y-13386310D02*
G75*
G02*
X10262500Y-13386310I12500J0D01*
G01*
X10376500Y-13072310D02*
G75*
G02*
X10351500Y-13072310I-12500J0D01*
G01*
X10351500Y-13072310D02*
G75*
G02*
X10376500Y-13072310I12500J0D01*
G01*
X10587590Y-11404810D02*
G75*
G02*
X10562590Y-11404810I-12500J0D01*
G01*
X10562590Y-11404810D02*
G75*
G02*
X10587590Y-11404810I12500J0D01*
G01*
X10611690Y-11637410D02*
G75*
G02*
X10586690Y-11637410I-12500J0D01*
G01*
X10586690Y-11637410D02*
G75*
G02*
X10611690Y-11637410I12500J0D01*
G01*
X10622330Y-12653580D02*
G75*
G02*
X10597330Y-12653580I-12500J0D01*
G01*
X10597330Y-12653580D02*
G75*
G02*
X10622330Y-12653580I12500J0D01*
G01*
X10693630Y-13304360D02*
G75*
G02*
X10668630Y-13304360I-12500J0D01*
G01*
X10668630Y-13304360D02*
G75*
G02*
X10693630Y-13304360I12500J0D01*
G01*
X10717890Y-10979370D02*
G75*
G02*
X10692890Y-10979370I-12500J0D01*
G01*
X10692890Y-10979370D02*
G75*
G02*
X10717890Y-10979370I12500J0D01*
G01*
X10743510Y-12769100D02*
G75*
G02*
X10718510Y-12769100I-12500J0D01*
G01*
X10718510Y-12769100D02*
G75*
G02*
X10743510Y-12769100I12500J0D01*
G01*
X10743950Y-13107950D02*
G75*
G02*
X10718950Y-13107950I-12500J0D01*
G01*
X10718950Y-13107950D02*
G75*
G02*
X10743950Y-13107950I12500J0D01*
G01*
X10777700Y-11881370D02*
G75*
G02*
X10752700Y-11881370I-12500J0D01*
G01*
X10752700Y-11881370D02*
G75*
G02*
X10777700Y-11881370I12500J0D01*
G01*
X10982330Y-13191780D02*
G75*
G02*
X10957330Y-13191780I-12500J0D01*
G01*
X10957330Y-13191780D02*
G75*
G02*
X10982330Y-13191780I12500J0D01*
G01*
X11112500Y-12765160D02*
G75*
G02*
X11087500Y-12765160I-12500J0D01*
G01*
X11087500Y-12765160D02*
G75*
G02*
X11112500Y-12765160I12500J0D01*
G01*
X11172500Y-13262620D02*
G75*
G02*
X11147500Y-13262620I-12500J0D01*
G01*
X11147500Y-13262620D02*
G75*
G02*
X11172500Y-13262620I12500J0D01*
G01*
X11184690Y-13050360D02*
G75*
G02*
X11159690Y-13050360I-12500J0D01*
G01*
X11159690Y-13050360D02*
G75*
G02*
X11184690Y-13050360I12500J0D01*
G01*
X11541470Y-12790430D02*
G75*
G02*
X11516470Y-12790430I-12500J0D01*
G01*
X11516470Y-12790430D02*
G75*
G02*
X11541470Y-12790430I12500J0D01*
G01*
X11571740Y-11451800D02*
G75*
G02*
X11546740Y-11451800I-12500J0D01*
G01*
X11546740Y-11451800D02*
G75*
G02*
X11571740Y-11451800I12500J0D01*
G01*
X11580190Y-12537750D02*
G75*
G02*
X11555190Y-12537750I-12500J0D01*
G01*
X11555190Y-12537750D02*
G75*
G02*
X11580190Y-12537750I12500J0D01*
G01*
X11638020Y-12124270D02*
G75*
G02*
X11613020Y-12124270I-12500J0D01*
G01*
X11613020Y-12124270D02*
G75*
G02*
X11638020Y-12124270I12500J0D01*
G01*
X11689170Y-13425450D02*
G75*
G02*
X11664170Y-13425450I-12500J0D01*
G01*
X11664170Y-13425450D02*
G75*
G02*
X11689170Y-13425450I12500J0D01*
G01*
X11690360Y-11887980D02*
G75*
G02*
X11665360Y-11887980I-12500J0D01*
G01*
X11665360Y-11887980D02*
G75*
G02*
X11690360Y-11887980I12500J0D01*
G01*
X12025470Y-12184460D02*
G75*
G02*
X12000470Y-12184460I-12500J0D01*
G01*
X12000470Y-12184460D02*
G75*
G02*
X12025470Y-12184460I12500J0D01*
G01*
X12053260Y-13281490D02*
G75*
G02*
X12028260Y-13281490I-12500J0D01*
G01*
X12028260Y-13281490D02*
G75*
G02*
X12053260Y-13281490I12500J0D01*
G01*
X12116410Y-12156660D02*
G75*
G02*
X12091410Y-12156660I-12500J0D01*
G01*
X12091410Y-12156660D02*
G75*
G02*
X12116410Y-12156660I12500J0D01*
G01*
X12147500Y-12634680D02*
G75*
G02*
X12122500Y-12634680I-12500J0D01*
G01*
X12122500Y-12634680D02*
G75*
G02*
X12147500Y-12634680I12500J0D01*
G01*
X12530630Y-12156430D02*
G75*
G02*
X12505630Y-12156430I-12500J0D01*
G01*
X12505630Y-12156430D02*
G75*
G02*
X12530630Y-12156430I12500J0D01*
G01*
X12544390Y-13478620D02*
G75*
G02*
X12519390Y-13478620I-12500J0D01*
G01*
X12519390Y-13478620D02*
G75*
G02*
X12544390Y-13478620I12500J0D01*
G01*
X12553970Y-13391020D02*
G75*
G02*
X12528970Y-13391020I-12500J0D01*
G01*
X12528970Y-13391020D02*
G75*
G02*
X12553970Y-13391020I12500J0D01*
G01*
X12555140Y-13281490D02*
G75*
G02*
X12530140Y-13281490I-12500J0D01*
G01*
X12530140Y-13281490D02*
G75*
G02*
X12555140Y-13281490I12500J0D01*
G01*
D11*
X10258277Y-14113984D02*
X10258277Y-13913984D01*
X10258277Y-13913984D02*
X10305896Y-13913984D01*
X10305896Y-13913984D02*
X10334467Y-13923508D01*
X10334467Y-13923508D02*
X10353515Y-13942555D01*
X10353515Y-13942555D02*
X10363039Y-13961603D01*
X10363039Y-13961603D02*
X10372563Y-13999698D01*
X10372563Y-13999698D02*
X10372563Y-14028269D01*
X10372563Y-14028269D02*
X10363039Y-14066365D01*
X10363039Y-14066365D02*
X10353515Y-14085412D01*
X10353515Y-14085412D02*
X10334467Y-14104460D01*
X10334467Y-14104460D02*
X10305896Y-14113984D01*
X10305896Y-14113984D02*
X10258277Y-14113984D01*
X10458277Y-14113984D02*
X10458277Y-13980650D01*
X10458277Y-14018746D02*
X10467801Y-13999698D01*
X10467801Y-13999698D02*
X10477324Y-13990174D01*
X10477324Y-13990174D02*
X10496372Y-13980650D01*
X10496372Y-13980650D02*
X10515420Y-13980650D01*
X10582086Y-14113984D02*
X10582086Y-13980650D01*
X10582086Y-13913984D02*
X10572563Y-13923508D01*
X10572563Y-13923508D02*
X10582086Y-13933031D01*
X10582086Y-13933031D02*
X10591610Y-13923508D01*
X10591610Y-13923508D02*
X10582086Y-13913984D01*
X10582086Y-13913984D02*
X10582086Y-13933031D01*
X10705896Y-14113984D02*
X10686848Y-14104460D01*
X10686848Y-14104460D02*
X10677324Y-14085412D01*
X10677324Y-14085412D02*
X10677324Y-13913984D01*
X10810658Y-14113984D02*
X10791610Y-14104460D01*
X10791610Y-14104460D02*
X10782086Y-14085412D01*
X10782086Y-14085412D02*
X10782086Y-13913984D01*
X11039229Y-14113984D02*
X11039229Y-13913984D01*
X11039229Y-13913984D02*
X11105896Y-14056841D01*
X11105896Y-14056841D02*
X11172563Y-13913984D01*
X11172563Y-13913984D02*
X11172563Y-14113984D01*
X11353515Y-14113984D02*
X11353515Y-14009222D01*
X11353515Y-14009222D02*
X11343991Y-13990174D01*
X11343991Y-13990174D02*
X11324943Y-13980650D01*
X11324943Y-13980650D02*
X11286848Y-13980650D01*
X11286848Y-13980650D02*
X11267801Y-13990174D01*
X11353515Y-14104460D02*
X11334467Y-14113984D01*
X11334467Y-14113984D02*
X11286848Y-14113984D01*
X11286848Y-14113984D02*
X11267801Y-14104460D01*
X11267801Y-14104460D02*
X11258277Y-14085412D01*
X11258277Y-14085412D02*
X11258277Y-14066365D01*
X11258277Y-14066365D02*
X11267801Y-14047317D01*
X11267801Y-14047317D02*
X11286848Y-14037793D01*
X11286848Y-14037793D02*
X11334467Y-14037793D01*
X11334467Y-14037793D02*
X11353515Y-14028269D01*
X11448753Y-13980650D02*
X11448753Y-14180650D01*
X11448753Y-13990174D02*
X11467801Y-13980650D01*
X11467801Y-13980650D02*
X11505896Y-13980650D01*
X11505896Y-13980650D02*
X11524943Y-13990174D01*
X11524943Y-13990174D02*
X11534467Y-13999698D01*
X11534467Y-13999698D02*
X11543991Y-14018746D01*
X11543991Y-14018746D02*
X11543991Y-14075888D01*
X11543991Y-14075888D02*
X11534467Y-14094936D01*
X11534467Y-14094936D02*
X11524943Y-14104460D01*
X11524943Y-14104460D02*
X11505896Y-14113984D01*
X11505896Y-14113984D02*
X11467801Y-14113984D01*
X11467801Y-14113984D02*
X11448753Y-14104460D01*
X11629705Y-14094936D02*
X11639229Y-14104460D01*
X11639229Y-14104460D02*
X11629705Y-14113984D01*
X11629705Y-14113984D02*
X11620182Y-14104460D01*
X11620182Y-14104460D02*
X11629705Y-14094936D01*
X11629705Y-14094936D02*
X11629705Y-14113984D01*
X11629705Y-13990174D02*
X11639229Y-13999698D01*
X11639229Y-13999698D02*
X11629705Y-14009222D01*
X11629705Y-14009222D02*
X11620182Y-13999698D01*
X11620182Y-13999698D02*
X11629705Y-13990174D01*
X11629705Y-13990174D02*
X11629705Y-14009222D01*
D12*
X9977500Y-14432500D02*
X9997500Y-14452500D01*
X9997500Y-14432500D02*
X9977500Y-14452500D01*
D11*
X10296372Y-14333984D02*
X10315420Y-14333984D01*
X10315420Y-14333984D02*
X10334467Y-14343508D01*
X10334467Y-14343508D02*
X10343991Y-14353031D01*
X10343991Y-14353031D02*
X10353515Y-14372079D01*
X10353515Y-14372079D02*
X10363039Y-14410174D01*
X10363039Y-14410174D02*
X10363039Y-14457793D01*
X10363039Y-14457793D02*
X10353515Y-14495888D01*
X10353515Y-14495888D02*
X10343991Y-14514936D01*
X10343991Y-14514936D02*
X10334467Y-14524460D01*
X10334467Y-14524460D02*
X10315420Y-14533984D01*
X10315420Y-14533984D02*
X10296372Y-14533984D01*
X10296372Y-14533984D02*
X10277324Y-14524460D01*
X10277324Y-14524460D02*
X10267801Y-14514936D01*
X10267801Y-14514936D02*
X10258277Y-14495888D01*
X10258277Y-14495888D02*
X10248753Y-14457793D01*
X10248753Y-14457793D02*
X10248753Y-14410174D01*
X10248753Y-14410174D02*
X10258277Y-14372079D01*
X10258277Y-14372079D02*
X10267801Y-14353031D01*
X10267801Y-14353031D02*
X10277324Y-14343508D01*
X10277324Y-14343508D02*
X10296372Y-14333984D01*
X10448753Y-14514936D02*
X10458277Y-14524460D01*
X10458277Y-14524460D02*
X10448753Y-14533984D01*
X10448753Y-14533984D02*
X10439229Y-14524460D01*
X10439229Y-14524460D02*
X10448753Y-14514936D01*
X10448753Y-14514936D02*
X10448753Y-14533984D01*
X10534467Y-14353031D02*
X10543991Y-14343508D01*
X10543991Y-14343508D02*
X10563039Y-14333984D01*
X10563039Y-14333984D02*
X10610658Y-14333984D01*
X10610658Y-14333984D02*
X10629705Y-14343508D01*
X10629705Y-14343508D02*
X10639229Y-14353031D01*
X10639229Y-14353031D02*
X10648753Y-14372079D01*
X10648753Y-14372079D02*
X10648753Y-14391127D01*
X10648753Y-14391127D02*
X10639229Y-14419698D01*
X10639229Y-14419698D02*
X10524944Y-14533984D01*
X10524944Y-14533984D02*
X10648753Y-14533984D01*
X10772563Y-14333984D02*
X10791610Y-14333984D01*
X10791610Y-14333984D02*
X10810658Y-14343508D01*
X10810658Y-14343508D02*
X10820182Y-14353031D01*
X10820182Y-14353031D02*
X10829705Y-14372079D01*
X10829705Y-14372079D02*
X10839229Y-14410174D01*
X10839229Y-14410174D02*
X10839229Y-14457793D01*
X10839229Y-14457793D02*
X10829705Y-14495888D01*
X10829705Y-14495888D02*
X10820182Y-14514936D01*
X10820182Y-14514936D02*
X10810658Y-14524460D01*
X10810658Y-14524460D02*
X10791610Y-14533984D01*
X10791610Y-14533984D02*
X10772563Y-14533984D01*
X10772563Y-14533984D02*
X10753515Y-14524460D01*
X10753515Y-14524460D02*
X10743991Y-14514936D01*
X10743991Y-14514936D02*
X10734467Y-14495888D01*
X10734467Y-14495888D02*
X10724944Y-14457793D01*
X10724944Y-14457793D02*
X10724944Y-14410174D01*
X10724944Y-14410174D02*
X10734467Y-14372079D01*
X10734467Y-14372079D02*
X10743991Y-14353031D01*
X10743991Y-14353031D02*
X10753515Y-14343508D01*
X10753515Y-14343508D02*
X10772563Y-14333984D01*
X10963039Y-14333984D02*
X10982086Y-14333984D01*
X10982086Y-14333984D02*
X11001134Y-14343508D01*
X11001134Y-14343508D02*
X11010658Y-14353031D01*
X11010658Y-14353031D02*
X11020182Y-14372079D01*
X11020182Y-14372079D02*
X11029705Y-14410174D01*
X11029705Y-14410174D02*
X11029705Y-14457793D01*
X11029705Y-14457793D02*
X11020182Y-14495888D01*
X11020182Y-14495888D02*
X11010658Y-14514936D01*
X11010658Y-14514936D02*
X11001134Y-14524460D01*
X11001134Y-14524460D02*
X10982086Y-14533984D01*
X10982086Y-14533984D02*
X10963039Y-14533984D01*
X10963039Y-14533984D02*
X10943991Y-14524460D01*
X10943991Y-14524460D02*
X10934467Y-14514936D01*
X10934467Y-14514936D02*
X10924944Y-14495888D01*
X10924944Y-14495888D02*
X10915420Y-14457793D01*
X10915420Y-14457793D02*
X10915420Y-14410174D01*
X10915420Y-14410174D02*
X10924944Y-14372079D01*
X10924944Y-14372079D02*
X10934467Y-14353031D01*
X10934467Y-14353031D02*
X10943991Y-14343508D01*
X10943991Y-14343508D02*
X10963039Y-14333984D01*
X11115420Y-14533984D02*
X11115420Y-14400650D01*
X11115420Y-14419698D02*
X11124944Y-14410174D01*
X11124944Y-14410174D02*
X11143991Y-14400650D01*
X11143991Y-14400650D02*
X11172563Y-14400650D01*
X11172563Y-14400650D02*
X11191610Y-14410174D01*
X11191610Y-14410174D02*
X11201134Y-14429222D01*
X11201134Y-14429222D02*
X11201134Y-14533984D01*
X11201134Y-14429222D02*
X11210658Y-14410174D01*
X11210658Y-14410174D02*
X11229705Y-14400650D01*
X11229705Y-14400650D02*
X11258277Y-14400650D01*
X11258277Y-14400650D02*
X11277324Y-14410174D01*
X11277324Y-14410174D02*
X11286848Y-14429222D01*
X11286848Y-14429222D02*
X11286848Y-14533984D01*
X11382086Y-14533984D02*
X11382086Y-14400650D01*
X11382086Y-14419698D02*
X11391610Y-14410174D01*
X11391610Y-14410174D02*
X11410658Y-14400650D01*
X11410658Y-14400650D02*
X11439229Y-14400650D01*
X11439229Y-14400650D02*
X11458277Y-14410174D01*
X11458277Y-14410174D02*
X11467801Y-14429222D01*
X11467801Y-14429222D02*
X11467801Y-14533984D01*
X11467801Y-14429222D02*
X11477324Y-14410174D01*
X11477324Y-14410174D02*
X11496372Y-14400650D01*
X11496372Y-14400650D02*
X11524943Y-14400650D01*
X11524943Y-14400650D02*
X11543991Y-14410174D01*
X11543991Y-14410174D02*
X11553515Y-14429222D01*
X11553515Y-14429222D02*
X11553515Y-14533984D01*
X11943991Y-14324460D02*
X11772563Y-14581603D01*
X12201134Y-14333984D02*
X12220182Y-14333984D01*
X12220182Y-14333984D02*
X12239229Y-14343508D01*
X12239229Y-14343508D02*
X12248753Y-14353031D01*
X12248753Y-14353031D02*
X12258277Y-14372079D01*
X12258277Y-14372079D02*
X12267801Y-14410174D01*
X12267801Y-14410174D02*
X12267801Y-14457793D01*
X12267801Y-14457793D02*
X12258277Y-14495888D01*
X12258277Y-14495888D02*
X12248753Y-14514936D01*
X12248753Y-14514936D02*
X12239229Y-14524460D01*
X12239229Y-14524460D02*
X12220182Y-14533984D01*
X12220182Y-14533984D02*
X12201134Y-14533984D01*
X12201134Y-14533984D02*
X12182086Y-14524460D01*
X12182086Y-14524460D02*
X12172563Y-14514936D01*
X12172563Y-14514936D02*
X12163039Y-14495888D01*
X12163039Y-14495888D02*
X12153515Y-14457793D01*
X12153515Y-14457793D02*
X12153515Y-14410174D01*
X12153515Y-14410174D02*
X12163039Y-14372079D01*
X12163039Y-14372079D02*
X12172563Y-14353031D01*
X12172563Y-14353031D02*
X12182086Y-14343508D01*
X12182086Y-14343508D02*
X12201134Y-14333984D01*
X12353515Y-14514936D02*
X12363039Y-14524460D01*
X12363039Y-14524460D02*
X12353515Y-14533984D01*
X12353515Y-14533984D02*
X12343991Y-14524460D01*
X12343991Y-14524460D02*
X12353515Y-14514936D01*
X12353515Y-14514936D02*
X12353515Y-14533984D01*
X12486848Y-14333984D02*
X12505896Y-14333984D01*
X12505896Y-14333984D02*
X12524944Y-14343508D01*
X12524944Y-14343508D02*
X12534467Y-14353031D01*
X12534467Y-14353031D02*
X12543991Y-14372079D01*
X12543991Y-14372079D02*
X12553515Y-14410174D01*
X12553515Y-14410174D02*
X12553515Y-14457793D01*
X12553515Y-14457793D02*
X12543991Y-14495888D01*
X12543991Y-14495888D02*
X12534467Y-14514936D01*
X12534467Y-14514936D02*
X12524944Y-14524460D01*
X12524944Y-14524460D02*
X12505896Y-14533984D01*
X12505896Y-14533984D02*
X12486848Y-14533984D01*
X12486848Y-14533984D02*
X12467801Y-14524460D01*
X12467801Y-14524460D02*
X12458277Y-14514936D01*
X12458277Y-14514936D02*
X12448753Y-14495888D01*
X12448753Y-14495888D02*
X12439229Y-14457793D01*
X12439229Y-14457793D02*
X12439229Y-14410174D01*
X12439229Y-14410174D02*
X12448753Y-14372079D01*
X12448753Y-14372079D02*
X12458277Y-14353031D01*
X12458277Y-14353031D02*
X12467801Y-14343508D01*
X12467801Y-14343508D02*
X12486848Y-14333984D01*
X12677325Y-14333984D02*
X12696372Y-14333984D01*
X12696372Y-14333984D02*
X12715420Y-14343508D01*
X12715420Y-14343508D02*
X12724944Y-14353031D01*
X12724944Y-14353031D02*
X12734467Y-14372079D01*
X12734467Y-14372079D02*
X12743991Y-14410174D01*
X12743991Y-14410174D02*
X12743991Y-14457793D01*
X12743991Y-14457793D02*
X12734467Y-14495888D01*
X12734467Y-14495888D02*
X12724944Y-14514936D01*
X12724944Y-14514936D02*
X12715420Y-14524460D01*
X12715420Y-14524460D02*
X12696372Y-14533984D01*
X12696372Y-14533984D02*
X12677325Y-14533984D01*
X12677325Y-14533984D02*
X12658277Y-14524460D01*
X12658277Y-14524460D02*
X12648753Y-14514936D01*
X12648753Y-14514936D02*
X12639229Y-14495888D01*
X12639229Y-14495888D02*
X12629706Y-14457793D01*
X12629706Y-14457793D02*
X12629706Y-14410174D01*
X12629706Y-14410174D02*
X12639229Y-14372079D01*
X12639229Y-14372079D02*
X12648753Y-14353031D01*
X12648753Y-14353031D02*
X12658277Y-14343508D01*
X12658277Y-14343508D02*
X12677325Y-14333984D01*
X12810658Y-14333984D02*
X12943991Y-14333984D01*
X12943991Y-14333984D02*
X12858277Y-14533984D01*
X13029706Y-14533984D02*
X13067801Y-14533984D01*
X13067801Y-14533984D02*
X13086848Y-14524460D01*
X13086848Y-14524460D02*
X13096372Y-14514936D01*
X13096372Y-14514936D02*
X13115420Y-14486365D01*
X13115420Y-14486365D02*
X13124944Y-14448269D01*
X13124944Y-14448269D02*
X13124944Y-14372079D01*
X13124944Y-14372079D02*
X13115420Y-14353031D01*
X13115420Y-14353031D02*
X13105896Y-14343508D01*
X13105896Y-14343508D02*
X13086848Y-14333984D01*
X13086848Y-14333984D02*
X13048753Y-14333984D01*
X13048753Y-14333984D02*
X13029706Y-14343508D01*
X13029706Y-14343508D02*
X13020182Y-14353031D01*
X13020182Y-14353031D02*
X13010658Y-14372079D01*
X13010658Y-14372079D02*
X13010658Y-14419698D01*
X13010658Y-14419698D02*
X13020182Y-14438746D01*
X13020182Y-14438746D02*
X13029706Y-14448269D01*
X13029706Y-14448269D02*
X13048753Y-14457793D01*
X13048753Y-14457793D02*
X13086848Y-14457793D01*
X13086848Y-14457793D02*
X13105896Y-14448269D01*
X13105896Y-14448269D02*
X13115420Y-14438746D01*
X13115420Y-14438746D02*
X13124944Y-14419698D01*
X13201134Y-14333984D02*
X13201134Y-14372079D01*
X13277325Y-14333984D02*
X13277325Y-14372079D01*
X13572563Y-14610174D02*
X13563039Y-14600650D01*
X13563039Y-14600650D02*
X13543991Y-14572079D01*
X13543991Y-14572079D02*
X13534468Y-14553031D01*
X13534468Y-14553031D02*
X13524944Y-14524460D01*
X13524944Y-14524460D02*
X13515420Y-14476841D01*
X13515420Y-14476841D02*
X13515420Y-14438746D01*
X13515420Y-14438746D02*
X13524944Y-14391127D01*
X13524944Y-14391127D02*
X13534468Y-14362555D01*
X13534468Y-14362555D02*
X13543991Y-14343508D01*
X13543991Y-14343508D02*
X13563039Y-14314936D01*
X13563039Y-14314936D02*
X13572563Y-14305412D01*
X13677325Y-14419698D02*
X13658277Y-14410174D01*
X13658277Y-14410174D02*
X13648753Y-14400650D01*
X13648753Y-14400650D02*
X13639229Y-14381603D01*
X13639229Y-14381603D02*
X13639229Y-14372079D01*
X13639229Y-14372079D02*
X13648753Y-14353031D01*
X13648753Y-14353031D02*
X13658277Y-14343508D01*
X13658277Y-14343508D02*
X13677325Y-14333984D01*
X13677325Y-14333984D02*
X13715420Y-14333984D01*
X13715420Y-14333984D02*
X13734468Y-14343508D01*
X13734468Y-14343508D02*
X13743991Y-14353031D01*
X13743991Y-14353031D02*
X13753515Y-14372079D01*
X13753515Y-14372079D02*
X13753515Y-14381603D01*
X13753515Y-14381603D02*
X13743991Y-14400650D01*
X13743991Y-14400650D02*
X13734468Y-14410174D01*
X13734468Y-14410174D02*
X13715420Y-14419698D01*
X13715420Y-14419698D02*
X13677325Y-14419698D01*
X13677325Y-14419698D02*
X13658277Y-14429222D01*
X13658277Y-14429222D02*
X13648753Y-14438746D01*
X13648753Y-14438746D02*
X13639229Y-14457793D01*
X13639229Y-14457793D02*
X13639229Y-14495888D01*
X13639229Y-14495888D02*
X13648753Y-14514936D01*
X13648753Y-14514936D02*
X13658277Y-14524460D01*
X13658277Y-14524460D02*
X13677325Y-14533984D01*
X13677325Y-14533984D02*
X13715420Y-14533984D01*
X13715420Y-14533984D02*
X13734468Y-14524460D01*
X13734468Y-14524460D02*
X13743991Y-14514936D01*
X13743991Y-14514936D02*
X13753515Y-14495888D01*
X13753515Y-14495888D02*
X13753515Y-14457793D01*
X13753515Y-14457793D02*
X13743991Y-14438746D01*
X13743991Y-14438746D02*
X13734468Y-14429222D01*
X13734468Y-14429222D02*
X13715420Y-14419698D01*
X13820182Y-14333984D02*
X13943991Y-14333984D01*
X13943991Y-14333984D02*
X13877325Y-14410174D01*
X13877325Y-14410174D02*
X13905896Y-14410174D01*
X13905896Y-14410174D02*
X13924944Y-14419698D01*
X13924944Y-14419698D02*
X13934468Y-14429222D01*
X13934468Y-14429222D02*
X13943991Y-14448269D01*
X13943991Y-14448269D02*
X13943991Y-14495888D01*
X13943991Y-14495888D02*
X13934468Y-14514936D01*
X13934468Y-14514936D02*
X13924944Y-14524460D01*
X13924944Y-14524460D02*
X13905896Y-14533984D01*
X13905896Y-14533984D02*
X13848753Y-14533984D01*
X13848753Y-14533984D02*
X13829706Y-14524460D01*
X13829706Y-14524460D02*
X13820182Y-14514936D01*
X14182087Y-14533984D02*
X14182087Y-14333984D01*
X14267801Y-14533984D02*
X14267801Y-14429222D01*
X14267801Y-14429222D02*
X14258277Y-14410174D01*
X14258277Y-14410174D02*
X14239230Y-14400650D01*
X14239230Y-14400650D02*
X14210658Y-14400650D01*
X14210658Y-14400650D02*
X14191610Y-14410174D01*
X14191610Y-14410174D02*
X14182087Y-14419698D01*
X14391610Y-14533984D02*
X14372563Y-14524460D01*
X14372563Y-14524460D02*
X14363039Y-14514936D01*
X14363039Y-14514936D02*
X14353515Y-14495888D01*
X14353515Y-14495888D02*
X14353515Y-14438746D01*
X14353515Y-14438746D02*
X14363039Y-14419698D01*
X14363039Y-14419698D02*
X14372563Y-14410174D01*
X14372563Y-14410174D02*
X14391610Y-14400650D01*
X14391610Y-14400650D02*
X14420182Y-14400650D01*
X14420182Y-14400650D02*
X14439230Y-14410174D01*
X14439230Y-14410174D02*
X14448753Y-14419698D01*
X14448753Y-14419698D02*
X14458277Y-14438746D01*
X14458277Y-14438746D02*
X14458277Y-14495888D01*
X14458277Y-14495888D02*
X14448753Y-14514936D01*
X14448753Y-14514936D02*
X14439230Y-14524460D01*
X14439230Y-14524460D02*
X14420182Y-14533984D01*
X14420182Y-14533984D02*
X14391610Y-14533984D01*
X14572563Y-14533984D02*
X14553515Y-14524460D01*
X14553515Y-14524460D02*
X14543991Y-14505412D01*
X14543991Y-14505412D02*
X14543991Y-14333984D01*
X14724944Y-14524460D02*
X14705896Y-14533984D01*
X14705896Y-14533984D02*
X14667801Y-14533984D01*
X14667801Y-14533984D02*
X14648753Y-14524460D01*
X14648753Y-14524460D02*
X14639230Y-14505412D01*
X14639230Y-14505412D02*
X14639230Y-14429222D01*
X14639230Y-14429222D02*
X14648753Y-14410174D01*
X14648753Y-14410174D02*
X14667801Y-14400650D01*
X14667801Y-14400650D02*
X14705896Y-14400650D01*
X14705896Y-14400650D02*
X14724944Y-14410174D01*
X14724944Y-14410174D02*
X14734468Y-14429222D01*
X14734468Y-14429222D02*
X14734468Y-14448269D01*
X14734468Y-14448269D02*
X14639230Y-14467317D01*
X14810658Y-14524460D02*
X14829706Y-14533984D01*
X14829706Y-14533984D02*
X14867801Y-14533984D01*
X14867801Y-14533984D02*
X14886849Y-14524460D01*
X14886849Y-14524460D02*
X14896372Y-14505412D01*
X14896372Y-14505412D02*
X14896372Y-14495888D01*
X14896372Y-14495888D02*
X14886849Y-14476841D01*
X14886849Y-14476841D02*
X14867801Y-14467317D01*
X14867801Y-14467317D02*
X14839230Y-14467317D01*
X14839230Y-14467317D02*
X14820182Y-14457793D01*
X14820182Y-14457793D02*
X14810658Y-14438746D01*
X14810658Y-14438746D02*
X14810658Y-14429222D01*
X14810658Y-14429222D02*
X14820182Y-14410174D01*
X14820182Y-14410174D02*
X14839230Y-14400650D01*
X14839230Y-14400650D02*
X14867801Y-14400650D01*
X14867801Y-14400650D02*
X14886849Y-14410174D01*
X14963039Y-14610174D02*
X14972563Y-14600650D01*
X14972563Y-14600650D02*
X14991611Y-14572079D01*
X14991611Y-14572079D02*
X15001134Y-14553031D01*
X15001134Y-14553031D02*
X15010658Y-14524460D01*
X15010658Y-14524460D02*
X15020182Y-14476841D01*
X15020182Y-14476841D02*
X15020182Y-14438746D01*
X15020182Y-14438746D02*
X15010658Y-14391127D01*
X15010658Y-14391127D02*
X15001134Y-14362555D01*
X15001134Y-14362555D02*
X14991611Y-14343508D01*
X14991611Y-14343508D02*
X14972563Y-14314936D01*
X14972563Y-14314936D02*
X14963039Y-14305412D01*
D12*
X9997500Y-14706500D02*
G75*
G02*
X9972500Y-14706500I-12500J0D01*
G01*
X9972500Y-14706500D02*
G75*
G02*
X9997500Y-14706500I12500J0D01*
G01*
D11*
X10296372Y-14597984D02*
X10315420Y-14597984D01*
X10315420Y-14597984D02*
X10334467Y-14607508D01*
X10334467Y-14607508D02*
X10343991Y-14617031D01*
X10343991Y-14617031D02*
X10353515Y-14636079D01*
X10353515Y-14636079D02*
X10363039Y-14674174D01*
X10363039Y-14674174D02*
X10363039Y-14721793D01*
X10363039Y-14721793D02*
X10353515Y-14759888D01*
X10353515Y-14759888D02*
X10343991Y-14778936D01*
X10343991Y-14778936D02*
X10334467Y-14788460D01*
X10334467Y-14788460D02*
X10315420Y-14797984D01*
X10315420Y-14797984D02*
X10296372Y-14797984D01*
X10296372Y-14797984D02*
X10277324Y-14788460D01*
X10277324Y-14788460D02*
X10267801Y-14778936D01*
X10267801Y-14778936D02*
X10258277Y-14759888D01*
X10258277Y-14759888D02*
X10248753Y-14721793D01*
X10248753Y-14721793D02*
X10248753Y-14674174D01*
X10248753Y-14674174D02*
X10258277Y-14636079D01*
X10258277Y-14636079D02*
X10267801Y-14617031D01*
X10267801Y-14617031D02*
X10277324Y-14607508D01*
X10277324Y-14607508D02*
X10296372Y-14597984D01*
X10448753Y-14778936D02*
X10458277Y-14788460D01*
X10458277Y-14788460D02*
X10448753Y-14797984D01*
X10448753Y-14797984D02*
X10439229Y-14788460D01*
X10439229Y-14788460D02*
X10448753Y-14778936D01*
X10448753Y-14778936D02*
X10448753Y-14797984D01*
X10534467Y-14617031D02*
X10543991Y-14607508D01*
X10543991Y-14607508D02*
X10563039Y-14597984D01*
X10563039Y-14597984D02*
X10610658Y-14597984D01*
X10610658Y-14597984D02*
X10629705Y-14607508D01*
X10629705Y-14607508D02*
X10639229Y-14617031D01*
X10639229Y-14617031D02*
X10648753Y-14636079D01*
X10648753Y-14636079D02*
X10648753Y-14655127D01*
X10648753Y-14655127D02*
X10639229Y-14683698D01*
X10639229Y-14683698D02*
X10524944Y-14797984D01*
X10524944Y-14797984D02*
X10648753Y-14797984D01*
X10829705Y-14597984D02*
X10734467Y-14597984D01*
X10734467Y-14597984D02*
X10724944Y-14693222D01*
X10724944Y-14693222D02*
X10734467Y-14683698D01*
X10734467Y-14683698D02*
X10753515Y-14674174D01*
X10753515Y-14674174D02*
X10801134Y-14674174D01*
X10801134Y-14674174D02*
X10820182Y-14683698D01*
X10820182Y-14683698D02*
X10829705Y-14693222D01*
X10829705Y-14693222D02*
X10839229Y-14712269D01*
X10839229Y-14712269D02*
X10839229Y-14759888D01*
X10839229Y-14759888D02*
X10829705Y-14778936D01*
X10829705Y-14778936D02*
X10820182Y-14788460D01*
X10820182Y-14788460D02*
X10801134Y-14797984D01*
X10801134Y-14797984D02*
X10753515Y-14797984D01*
X10753515Y-14797984D02*
X10734467Y-14788460D01*
X10734467Y-14788460D02*
X10724944Y-14778936D01*
X10963039Y-14597984D02*
X10982086Y-14597984D01*
X10982086Y-14597984D02*
X11001134Y-14607508D01*
X11001134Y-14607508D02*
X11010658Y-14617031D01*
X11010658Y-14617031D02*
X11020182Y-14636079D01*
X11020182Y-14636079D02*
X11029705Y-14674174D01*
X11029705Y-14674174D02*
X11029705Y-14721793D01*
X11029705Y-14721793D02*
X11020182Y-14759888D01*
X11020182Y-14759888D02*
X11010658Y-14778936D01*
X11010658Y-14778936D02*
X11001134Y-14788460D01*
X11001134Y-14788460D02*
X10982086Y-14797984D01*
X10982086Y-14797984D02*
X10963039Y-14797984D01*
X10963039Y-14797984D02*
X10943991Y-14788460D01*
X10943991Y-14788460D02*
X10934467Y-14778936D01*
X10934467Y-14778936D02*
X10924944Y-14759888D01*
X10924944Y-14759888D02*
X10915420Y-14721793D01*
X10915420Y-14721793D02*
X10915420Y-14674174D01*
X10915420Y-14674174D02*
X10924944Y-14636079D01*
X10924944Y-14636079D02*
X10934467Y-14617031D01*
X10934467Y-14617031D02*
X10943991Y-14607508D01*
X10943991Y-14607508D02*
X10963039Y-14597984D01*
X11115420Y-14797984D02*
X11115420Y-14664650D01*
X11115420Y-14683698D02*
X11124944Y-14674174D01*
X11124944Y-14674174D02*
X11143991Y-14664650D01*
X11143991Y-14664650D02*
X11172563Y-14664650D01*
X11172563Y-14664650D02*
X11191610Y-14674174D01*
X11191610Y-14674174D02*
X11201134Y-14693222D01*
X11201134Y-14693222D02*
X11201134Y-14797984D01*
X11201134Y-14693222D02*
X11210658Y-14674174D01*
X11210658Y-14674174D02*
X11229705Y-14664650D01*
X11229705Y-14664650D02*
X11258277Y-14664650D01*
X11258277Y-14664650D02*
X11277324Y-14674174D01*
X11277324Y-14674174D02*
X11286848Y-14693222D01*
X11286848Y-14693222D02*
X11286848Y-14797984D01*
X11382086Y-14797984D02*
X11382086Y-14664650D01*
X11382086Y-14683698D02*
X11391610Y-14674174D01*
X11391610Y-14674174D02*
X11410658Y-14664650D01*
X11410658Y-14664650D02*
X11439229Y-14664650D01*
X11439229Y-14664650D02*
X11458277Y-14674174D01*
X11458277Y-14674174D02*
X11467801Y-14693222D01*
X11467801Y-14693222D02*
X11467801Y-14797984D01*
X11467801Y-14693222D02*
X11477324Y-14674174D01*
X11477324Y-14674174D02*
X11496372Y-14664650D01*
X11496372Y-14664650D02*
X11524943Y-14664650D01*
X11524943Y-14664650D02*
X11543991Y-14674174D01*
X11543991Y-14674174D02*
X11553515Y-14693222D01*
X11553515Y-14693222D02*
X11553515Y-14797984D01*
X11943991Y-14588460D02*
X11772563Y-14845603D01*
X12201134Y-14597984D02*
X12220182Y-14597984D01*
X12220182Y-14597984D02*
X12239229Y-14607508D01*
X12239229Y-14607508D02*
X12248753Y-14617031D01*
X12248753Y-14617031D02*
X12258277Y-14636079D01*
X12258277Y-14636079D02*
X12267801Y-14674174D01*
X12267801Y-14674174D02*
X12267801Y-14721793D01*
X12267801Y-14721793D02*
X12258277Y-14759888D01*
X12258277Y-14759888D02*
X12248753Y-14778936D01*
X12248753Y-14778936D02*
X12239229Y-14788460D01*
X12239229Y-14788460D02*
X12220182Y-14797984D01*
X12220182Y-14797984D02*
X12201134Y-14797984D01*
X12201134Y-14797984D02*
X12182086Y-14788460D01*
X12182086Y-14788460D02*
X12172563Y-14778936D01*
X12172563Y-14778936D02*
X12163039Y-14759888D01*
X12163039Y-14759888D02*
X12153515Y-14721793D01*
X12153515Y-14721793D02*
X12153515Y-14674174D01*
X12153515Y-14674174D02*
X12163039Y-14636079D01*
X12163039Y-14636079D02*
X12172563Y-14617031D01*
X12172563Y-14617031D02*
X12182086Y-14607508D01*
X12182086Y-14607508D02*
X12201134Y-14597984D01*
X12353515Y-14778936D02*
X12363039Y-14788460D01*
X12363039Y-14788460D02*
X12353515Y-14797984D01*
X12353515Y-14797984D02*
X12343991Y-14788460D01*
X12343991Y-14788460D02*
X12353515Y-14778936D01*
X12353515Y-14778936D02*
X12353515Y-14797984D01*
X12486848Y-14597984D02*
X12505896Y-14597984D01*
X12505896Y-14597984D02*
X12524944Y-14607508D01*
X12524944Y-14607508D02*
X12534467Y-14617031D01*
X12534467Y-14617031D02*
X12543991Y-14636079D01*
X12543991Y-14636079D02*
X12553515Y-14674174D01*
X12553515Y-14674174D02*
X12553515Y-14721793D01*
X12553515Y-14721793D02*
X12543991Y-14759888D01*
X12543991Y-14759888D02*
X12534467Y-14778936D01*
X12534467Y-14778936D02*
X12524944Y-14788460D01*
X12524944Y-14788460D02*
X12505896Y-14797984D01*
X12505896Y-14797984D02*
X12486848Y-14797984D01*
X12486848Y-14797984D02*
X12467801Y-14788460D01*
X12467801Y-14788460D02*
X12458277Y-14778936D01*
X12458277Y-14778936D02*
X12448753Y-14759888D01*
X12448753Y-14759888D02*
X12439229Y-14721793D01*
X12439229Y-14721793D02*
X12439229Y-14674174D01*
X12439229Y-14674174D02*
X12448753Y-14636079D01*
X12448753Y-14636079D02*
X12458277Y-14617031D01*
X12458277Y-14617031D02*
X12467801Y-14607508D01*
X12467801Y-14607508D02*
X12486848Y-14597984D01*
X12677325Y-14597984D02*
X12696372Y-14597984D01*
X12696372Y-14597984D02*
X12715420Y-14607508D01*
X12715420Y-14607508D02*
X12724944Y-14617031D01*
X12724944Y-14617031D02*
X12734467Y-14636079D01*
X12734467Y-14636079D02*
X12743991Y-14674174D01*
X12743991Y-14674174D02*
X12743991Y-14721793D01*
X12743991Y-14721793D02*
X12734467Y-14759888D01*
X12734467Y-14759888D02*
X12724944Y-14778936D01*
X12724944Y-14778936D02*
X12715420Y-14788460D01*
X12715420Y-14788460D02*
X12696372Y-14797984D01*
X12696372Y-14797984D02*
X12677325Y-14797984D01*
X12677325Y-14797984D02*
X12658277Y-14788460D01*
X12658277Y-14788460D02*
X12648753Y-14778936D01*
X12648753Y-14778936D02*
X12639229Y-14759888D01*
X12639229Y-14759888D02*
X12629706Y-14721793D01*
X12629706Y-14721793D02*
X12629706Y-14674174D01*
X12629706Y-14674174D02*
X12639229Y-14636079D01*
X12639229Y-14636079D02*
X12648753Y-14617031D01*
X12648753Y-14617031D02*
X12658277Y-14607508D01*
X12658277Y-14607508D02*
X12677325Y-14597984D01*
X12839229Y-14797984D02*
X12877325Y-14797984D01*
X12877325Y-14797984D02*
X12896372Y-14788460D01*
X12896372Y-14788460D02*
X12905896Y-14778936D01*
X12905896Y-14778936D02*
X12924944Y-14750365D01*
X12924944Y-14750365D02*
X12934467Y-14712269D01*
X12934467Y-14712269D02*
X12934467Y-14636079D01*
X12934467Y-14636079D02*
X12924944Y-14617031D01*
X12924944Y-14617031D02*
X12915420Y-14607508D01*
X12915420Y-14607508D02*
X12896372Y-14597984D01*
X12896372Y-14597984D02*
X12858277Y-14597984D01*
X12858277Y-14597984D02*
X12839229Y-14607508D01*
X12839229Y-14607508D02*
X12829706Y-14617031D01*
X12829706Y-14617031D02*
X12820182Y-14636079D01*
X12820182Y-14636079D02*
X12820182Y-14683698D01*
X12820182Y-14683698D02*
X12829706Y-14702746D01*
X12829706Y-14702746D02*
X12839229Y-14712269D01*
X12839229Y-14712269D02*
X12858277Y-14721793D01*
X12858277Y-14721793D02*
X12896372Y-14721793D01*
X12896372Y-14721793D02*
X12915420Y-14712269D01*
X12915420Y-14712269D02*
X12924944Y-14702746D01*
X12924944Y-14702746D02*
X12934467Y-14683698D01*
X13048753Y-14683698D02*
X13029706Y-14674174D01*
X13029706Y-14674174D02*
X13020182Y-14664650D01*
X13020182Y-14664650D02*
X13010658Y-14645603D01*
X13010658Y-14645603D02*
X13010658Y-14636079D01*
X13010658Y-14636079D02*
X13020182Y-14617031D01*
X13020182Y-14617031D02*
X13029706Y-14607508D01*
X13029706Y-14607508D02*
X13048753Y-14597984D01*
X13048753Y-14597984D02*
X13086848Y-14597984D01*
X13086848Y-14597984D02*
X13105896Y-14607508D01*
X13105896Y-14607508D02*
X13115420Y-14617031D01*
X13115420Y-14617031D02*
X13124944Y-14636079D01*
X13124944Y-14636079D02*
X13124944Y-14645603D01*
X13124944Y-14645603D02*
X13115420Y-14664650D01*
X13115420Y-14664650D02*
X13105896Y-14674174D01*
X13105896Y-14674174D02*
X13086848Y-14683698D01*
X13086848Y-14683698D02*
X13048753Y-14683698D01*
X13048753Y-14683698D02*
X13029706Y-14693222D01*
X13029706Y-14693222D02*
X13020182Y-14702746D01*
X13020182Y-14702746D02*
X13010658Y-14721793D01*
X13010658Y-14721793D02*
X13010658Y-14759888D01*
X13010658Y-14759888D02*
X13020182Y-14778936D01*
X13020182Y-14778936D02*
X13029706Y-14788460D01*
X13029706Y-14788460D02*
X13048753Y-14797984D01*
X13048753Y-14797984D02*
X13086848Y-14797984D01*
X13086848Y-14797984D02*
X13105896Y-14788460D01*
X13105896Y-14788460D02*
X13115420Y-14778936D01*
X13115420Y-14778936D02*
X13124944Y-14759888D01*
X13124944Y-14759888D02*
X13124944Y-14721793D01*
X13124944Y-14721793D02*
X13115420Y-14702746D01*
X13115420Y-14702746D02*
X13105896Y-14693222D01*
X13105896Y-14693222D02*
X13086848Y-14683698D01*
X13201134Y-14597984D02*
X13201134Y-14636079D01*
X13277325Y-14597984D02*
X13277325Y-14636079D01*
X13572563Y-14874174D02*
X13563039Y-14864650D01*
X13563039Y-14864650D02*
X13543991Y-14836079D01*
X13543991Y-14836079D02*
X13534468Y-14817031D01*
X13534468Y-14817031D02*
X13524944Y-14788460D01*
X13524944Y-14788460D02*
X13515420Y-14740841D01*
X13515420Y-14740841D02*
X13515420Y-14702746D01*
X13515420Y-14702746D02*
X13524944Y-14655127D01*
X13524944Y-14655127D02*
X13534468Y-14626555D01*
X13534468Y-14626555D02*
X13543991Y-14607508D01*
X13543991Y-14607508D02*
X13563039Y-14578936D01*
X13563039Y-14578936D02*
X13572563Y-14569412D01*
X13639229Y-14617031D02*
X13648753Y-14607508D01*
X13648753Y-14607508D02*
X13667801Y-14597984D01*
X13667801Y-14597984D02*
X13715420Y-14597984D01*
X13715420Y-14597984D02*
X13734468Y-14607508D01*
X13734468Y-14607508D02*
X13743991Y-14617031D01*
X13743991Y-14617031D02*
X13753515Y-14636079D01*
X13753515Y-14636079D02*
X13753515Y-14655127D01*
X13753515Y-14655127D02*
X13743991Y-14683698D01*
X13743991Y-14683698D02*
X13629706Y-14797984D01*
X13629706Y-14797984D02*
X13753515Y-14797984D01*
X13848753Y-14797984D02*
X13886848Y-14797984D01*
X13886848Y-14797984D02*
X13905896Y-14788460D01*
X13905896Y-14788460D02*
X13915420Y-14778936D01*
X13915420Y-14778936D02*
X13934468Y-14750365D01*
X13934468Y-14750365D02*
X13943991Y-14712269D01*
X13943991Y-14712269D02*
X13943991Y-14636079D01*
X13943991Y-14636079D02*
X13934468Y-14617031D01*
X13934468Y-14617031D02*
X13924944Y-14607508D01*
X13924944Y-14607508D02*
X13905896Y-14597984D01*
X13905896Y-14597984D02*
X13867801Y-14597984D01*
X13867801Y-14597984D02*
X13848753Y-14607508D01*
X13848753Y-14607508D02*
X13839229Y-14617031D01*
X13839229Y-14617031D02*
X13829706Y-14636079D01*
X13829706Y-14636079D02*
X13829706Y-14683698D01*
X13829706Y-14683698D02*
X13839229Y-14702746D01*
X13839229Y-14702746D02*
X13848753Y-14712269D01*
X13848753Y-14712269D02*
X13867801Y-14721793D01*
X13867801Y-14721793D02*
X13905896Y-14721793D01*
X13905896Y-14721793D02*
X13924944Y-14712269D01*
X13924944Y-14712269D02*
X13934468Y-14702746D01*
X13934468Y-14702746D02*
X13943991Y-14683698D01*
X14182087Y-14797984D02*
X14182087Y-14597984D01*
X14267801Y-14797984D02*
X14267801Y-14693222D01*
X14267801Y-14693222D02*
X14258277Y-14674174D01*
X14258277Y-14674174D02*
X14239230Y-14664650D01*
X14239230Y-14664650D02*
X14210658Y-14664650D01*
X14210658Y-14664650D02*
X14191610Y-14674174D01*
X14191610Y-14674174D02*
X14182087Y-14683698D01*
X14391610Y-14797984D02*
X14372563Y-14788460D01*
X14372563Y-14788460D02*
X14363039Y-14778936D01*
X14363039Y-14778936D02*
X14353515Y-14759888D01*
X14353515Y-14759888D02*
X14353515Y-14702746D01*
X14353515Y-14702746D02*
X14363039Y-14683698D01*
X14363039Y-14683698D02*
X14372563Y-14674174D01*
X14372563Y-14674174D02*
X14391610Y-14664650D01*
X14391610Y-14664650D02*
X14420182Y-14664650D01*
X14420182Y-14664650D02*
X14439230Y-14674174D01*
X14439230Y-14674174D02*
X14448753Y-14683698D01*
X14448753Y-14683698D02*
X14458277Y-14702746D01*
X14458277Y-14702746D02*
X14458277Y-14759888D01*
X14458277Y-14759888D02*
X14448753Y-14778936D01*
X14448753Y-14778936D02*
X14439230Y-14788460D01*
X14439230Y-14788460D02*
X14420182Y-14797984D01*
X14420182Y-14797984D02*
X14391610Y-14797984D01*
X14572563Y-14797984D02*
X14553515Y-14788460D01*
X14553515Y-14788460D02*
X14543991Y-14769412D01*
X14543991Y-14769412D02*
X14543991Y-14597984D01*
X14724944Y-14788460D02*
X14705896Y-14797984D01*
X14705896Y-14797984D02*
X14667801Y-14797984D01*
X14667801Y-14797984D02*
X14648753Y-14788460D01*
X14648753Y-14788460D02*
X14639230Y-14769412D01*
X14639230Y-14769412D02*
X14639230Y-14693222D01*
X14639230Y-14693222D02*
X14648753Y-14674174D01*
X14648753Y-14674174D02*
X14667801Y-14664650D01*
X14667801Y-14664650D02*
X14705896Y-14664650D01*
X14705896Y-14664650D02*
X14724944Y-14674174D01*
X14724944Y-14674174D02*
X14734468Y-14693222D01*
X14734468Y-14693222D02*
X14734468Y-14712269D01*
X14734468Y-14712269D02*
X14639230Y-14731317D01*
X14810658Y-14788460D02*
X14829706Y-14797984D01*
X14829706Y-14797984D02*
X14867801Y-14797984D01*
X14867801Y-14797984D02*
X14886849Y-14788460D01*
X14886849Y-14788460D02*
X14896372Y-14769412D01*
X14896372Y-14769412D02*
X14896372Y-14759888D01*
X14896372Y-14759888D02*
X14886849Y-14740841D01*
X14886849Y-14740841D02*
X14867801Y-14731317D01*
X14867801Y-14731317D02*
X14839230Y-14731317D01*
X14839230Y-14731317D02*
X14820182Y-14721793D01*
X14820182Y-14721793D02*
X14810658Y-14702746D01*
X14810658Y-14702746D02*
X14810658Y-14693222D01*
X14810658Y-14693222D02*
X14820182Y-14674174D01*
X14820182Y-14674174D02*
X14839230Y-14664650D01*
X14839230Y-14664650D02*
X14867801Y-14664650D01*
X14867801Y-14664650D02*
X14886849Y-14674174D01*
X14963039Y-14874174D02*
X14972563Y-14864650D01*
X14972563Y-14864650D02*
X14991611Y-14836079D01*
X14991611Y-14836079D02*
X15001134Y-14817031D01*
X15001134Y-14817031D02*
X15010658Y-14788460D01*
X15010658Y-14788460D02*
X15020182Y-14740841D01*
X15020182Y-14740841D02*
X15020182Y-14702746D01*
X15020182Y-14702746D02*
X15010658Y-14655127D01*
X15010658Y-14655127D02*
X15001134Y-14626555D01*
X15001134Y-14626555D02*
X14991611Y-14607508D01*
X14991611Y-14607508D02*
X14972563Y-14578936D01*
X14972563Y-14578936D02*
X14963039Y-14569412D01*
M02*
